<svg xmlns="http://www.w3.org/2000/svg" width="120" height="92" fill="none"><g fill="#fff"><rect x="1" y="1" width="118" height="90" rx="3"/><path d="M80 65h1v1 7l.028.964c.199.034.473.036.972.036h16l.964-.028c.034-.199.036-.473.036-.972V17l-.028-.964C98.774 16.002 98.5 16 98 16H22l-.964.028c-.034.198-.036.473-.036.972v47l.028.964c.198.034.473.036.972.036h58z" stroke="#8796a1" stroke-width="2"/></g><path d="M34 73c0 .943 0 1.414.293 1.707S35.057 75 36 75h15c.943 0 1.414 0 1.707-.293S53 73.943 53 73v-7c0-.943 0-1.414-.293-1.707S51.943 64 51 64H36c-.943 0-1.414 0-1.707.293S34 65.057 34 66v7zm23 0c0 .943 0 1.414.293 1.707S58.057 75 59 75h15c.943 0 1.414 0 1.707-.293S76 73.943 76 73v-7c0-.943 0-1.414-.293-1.707S74.943 64 74 64H59c-.943 0-1.414 0-1.707.293S57 65.057 57 66v7z" fill="#8796a1"/><rect x="1" y="1" width="118" height="90" rx="3" stroke="#ccc" stroke-width="2"/></svg>