<svg xmlns="http://www.w3.org/2000/svg" width="120" height="92" fill="none"><g fill="#fff"><rect x="1" y="1" width="118" height="90" rx="3"/><path d="M43 25v1h1 53 .054l1.176-.046c.246-.033.513-.096.769-.233V74l-.028.964c-.199.034-.473.036-.972.036H22c-.5 0-.774-.002-.964-.028C21.002 74.774 21 74.5 21 74V18l.028-.964c.198-.034.473-.036.972-.036h20l.964.028c.034.198.036.473.036.972v7z" stroke="#8796a1" stroke-width="2"/></g><path d="M48 18c0-.943 0-1.414.293-1.707S49.057 16 50 16h20c.943 0 1.414 0 1.707.293S72 17.057 72 18v7c0 .943 0 1.414-.293 1.707S70.943 27 70 27H50c-.943 0-1.414 0-1.707-.293S48 25.943 48 25v-7zm28 0c0-.943 0-1.414.293-1.707S77.057 16 78 16h20c.943 0 1.414 0 1.707.293S100 17.057 100 18v7c0 .943 0 1.414-.293 1.707S98.943 27 98 27H78c-.943 0-1.414 0-1.707-.293S76 25.943 76 25v-7z" fill="#8796a1"/><rect x="1" y="1" width="118" height="90" rx="3" stroke="#ccc" stroke-width="2"/></svg>