<svg xmlns="http://www.w3.org/2000/svg" width="120" height="92" fill="none"><g fill="#fff"><rect x="1" y="1" width="118" height="90" rx="3"/><path d="M27 26h1v-1-7l.028-.964c.198-.034.473-.036.972-.036h16l.964.028c.034.198.036.473.036.972v7 1h1 51l.964.028c.034.198.036.473.036.972v47l-.028.964c-.199.034-.473.036-.972.036H22c-.5 0-.774-.002-.964-.028C21.002 74.774 21 74.5 21 74V27l.028-.964c.198-.034.473-.036.972-.036h5z" stroke="#8796a1" stroke-width="2"/></g><path d="M51 18c0-.943 0-1.414.293-1.707S52.057 16 53 16h15c.943 0 1.414 0 1.707.293S70 17.057 70 18v7c0 .943 0 1.414-.293 1.707S68.943 27 68 27H53c-.943 0-1.414 0-1.707-.293S51 25.943 51 25v-7zm23 0c0-.943 0-1.414.293-1.707S75.057 16 76 16h15c.943 0 1.414 0 1.707.293S93 17.057 93 18v7c0 .943 0 1.414-.293 1.707S91.943 27 91 27H76c-.943 0-1.414 0-1.707-.293S74 25.943 74 25v-7z" fill="#8796a1"/><rect x="1" y="1" width="118" height="90" rx="3" stroke="#ccc" stroke-width="2"/></svg>