<svg xmlns="http://www.w3.org/2000/svg" width="100" height="80" fill="none"><rect x=".75" y=".75" width="98.5" height="78.5" rx="2.583" fill="#fff"/><rect x=".75" y=".75" width="98.5" height="78.5" rx="2.583" stroke="#ccc" stroke-width="1.5"/><mask id="A" fill="#fff"><rect x="17" y="21" width="66.67" height="19" rx=".44"/></mask><rect x="17" y="21" width="66.67" height="19" rx=".44" fill="#fff" stroke="#7a8a96" stroke-width="1.333" mask="url(#A)"/><use href="#C" fill="#7a8a96"/><use href="#C" stroke="#7a8a96" stroke-width=".44"/><g fill="#fff"><rect x="20" y="18.75" width="46" height="2" rx=".909"/><path d="M80.667 19.125v1.25h-5v-1.25h5z"/></g><g fill="#b5bec4"><rect x="20.03" y="27.75" width="60.606" height=".833" rx=".417"/><rect x="20.03" y="31.083" width="60.606" height=".833" rx=".417"/><rect x="20.03" y="34.417" width="35.833" height=".833" rx=".417"/></g><rect x="17" y="43" width="66.667" height="9.5" rx=".44" fill="#7a8a96"/><g fill="#fff"><rect x="20" y="46.75" width="46" height="2" rx=".909"/><use href="#D"/></g><rect x="17" y="55.5" width="66.667" height="9.5" rx=".44" fill="#7a8a96"/><g fill="#fff"><rect x="20" y="59.25" width="46" height="2" rx=".909"/><use href="#D" y="12.5"/></g><defs ><path id="C" d="M17.44 15.22h65.786a.22.22 0 0 1 .22.22v8.84H17.22v-8.84a.22.22 0 0 1 .22-.22z"/><path id="D" d="M80.667 47.175v1.024h-5v-1.024h5zm-1.914-1.925v5h-1.167v-5h1.167z"/></defs></svg>