<svg xmlns="http://www.w3.org/2000/svg" width="120" height="92" fill="none"><g fill="#fff"><rect x="1" y="1" width="118" height="90" rx="3"/><path d="M38 25v1h1 60l.964.028c.034.198.036.473.036.972v48l-.028.964c-.199.034-.473.036-.972.036H21c-.5 0-.774-.002-.964-.028C20.002 75.774 20 75.5 20 75V18l.028-.964c.198-.034.473-.036.972-.036h16l.964.028c.034.198.036.473.036.972v7z" stroke="#8796a1" stroke-width="2"/></g><path d="M43 25c0 .943 0 1.414.293 1.707S44.057 27 45 27h15c.943 0 1.414 0 1.707-.293S62 25.943 62 25v-7c0-.943 0-1.414-.293-1.707S60.943 16 60 16H45c-.943 0-1.414 0-1.707.293S43 17.057 43 18v7zm23 0c0 .943 0 1.414.293 1.707S67.057 27 68 27h15c.943 0 1.414 0 1.707-.293S85 25.943 85 25v-7c0-.943 0-1.414-.293-1.707S83.943 16 83 16H68c-.943 0-1.414 0-1.707.293S66 17.057 66 18v7z" fill="#8796a1"/><rect x="1" y="1" width="118" height="90" rx="3" stroke="#ccc" stroke-width="2"/></svg>