<svg xmlns="http://www.w3.org/2000/svg" width="120" height="92" fill="none"><rect x="1" y="1" width="118" height="90" rx="3" fill="#fff"/><path d="M51 18c0-.943 0-1.414.293-1.707S52.057 16 53 16h14c.943 0 1.414 0 1.707.293S69 17.057 69 18v7c0 .943 0 1.414-.293 1.707S67.943 27 67 27H53c-.943 0-1.414 0-1.707-.293S51 25.943 51 25v-7z" fill="#8796a1"/><path d="M46 25v1h1 52l.964.028c.034.198.036.473.036.972v48l-.028.964c-.199.034-.473.036-.972.036H21c-.5 0-.774-.002-.964-.028C20.002 75.774 20 75.5 20 75V27l.028-.964c.198-.034.473-.036.972-.036h8 1v-1-7l.028-.964c.198-.034.473-.036.972-.036h9 5.001l.963.028c.034.198.036.473.036.972v7z" fill="#fff" stroke="#8796a1" stroke-width="2"/><path d="M73 18c0-.943 0-1.414.293-1.707S74.057 16 75 16h14c.943 0 1.414 0 1.707.293S91 17.057 91 18v7c0 .943 0 1.414-.293 1.707S89.943 27 89 27H75c-.943 0-1.414 0-1.707-.293S73 25.943 73 25v-7z" fill="#8796a1"/><path d="M25.949 22.371a.72.72 0 0 1-1.018 1.018l-2.88-2.88a.72.72 0 0 1 0-1.018l2.88-2.88a.72.72 0 0 1 1.018 1.018L23.578 20l2.371 2.371zm68.102 0a.72.72 0 0 0 1.018 1.018l2.88-2.88a.72.72 0 0 0 0-1.018l-2.88-2.88a.72.72 0 0 0-1.018 1.018L96.422 20l-2.371 2.371z" fill="#525454"/><rect x="1" y="1" width="118" height="90" rx="3" stroke="#ccc" stroke-width="2"/></svg>