<svg xmlns="http://www.w3.org/2000/svg" width="120" height="92" fill="none"><g fill="#fff"><rect x="1" y="1" width="118" height="90" rx="3"/><path d="M38 32v-1h-1-15c-.5 0-.774-.002-.964-.028C21.002 30.774 21 30.5 21 30V18l.028-.964c.198-.034.473-.036.972-.036h77l.964.028c.034.198.036.473.036.972v57l-.028.964c-.199.034-.473.036-.972.036H39c-.5 0-.774-.002-.964-.028C38.002 75.774 38 75.5 38 75V32z" stroke="#8796a1" stroke-width="2"/></g><path d="M22 50c-.943 0-1.414 0-1.707-.293S20 48.943 20 48V38c0-.943 0-1.414.293-1.707S21.057 36 22 36h15c.943 0 1.414 0 1.707.293S39 37.057 39 38v10c0 .943 0 1.414-.293 1.707S37.943 50 37 50H22zm0 18c-.943 0-1.414 0-1.707-.293S20 66.943 20 66V56c0-.943 0-1.414.293-1.707S21.057 54 22 54h15c.943 0 1.414 0 1.707.293S39 55.057 39 56v10c0 .943 0 1.414-.293 1.707S37.943 68 37 68H22z" fill="#8796a1"/><rect x="1" y="1" width="118" height="90" rx="3" stroke="#ccc" stroke-width="2"/></svg>