<svg xmlns="http://www.w3.org/2000/svg" width="124" height="130" fill="none"><rect x="1" y="1" width="122" height="128" rx="3" stroke="#ccc" stroke-width="2"/><rect x="15" y="15" width="21.467" height="24.467" rx="1" fill="#d9d9d9"/><use href="#C" fill="#fff"/><rect x="39.467" y="15" width="21.467" height="24.467" rx="1" fill="#d9d9d9"/><use href="#C" x="24.467" fill="#fff"/><rect x="15" y="42.467" width="21.467" height="24.467" rx="1" fill="#d9d9d9"/><path d="M33.4 52.4l-3.68-3.68-1.84-.307c0 1.073-.92 1.993-2.147 1.993s-2.147-.92-2.147-1.993l-1.84.307-3.68 3.68 2.453 2.453 1.227-1.227v7.36h7.973v-7.36l1.227 1.227L33.4 52.4z" fill="#fff"/><rect x="39.467" y="42.467" width="21.467" height="24.467" rx="1" fill="#d9d9d9"/><use href="#C" x="24.467" y="27.467" fill="#fff"/><g fill="#d9d9d9"><rect x="65" y="17" width="31" height="2" rx="1"/><rect x="65" y="21" width="7" height="1.5" rx=".75"/><rect x="65" y="26.5" width="44" height="1" rx=".5"/><rect x="65" y="29.5" width="44" height="1" rx=".5"/><rect x="65" y="32.5" width="44" height="1" rx=".5"/><rect x="65" y="35.5" width="25" height="1" rx=".5"/><circle cx="66.5" cy="42" r="1.5"/><circle cx="70.5" cy="42" r="1.5"/><circle cx="74.5" cy="42" r="1.5"/><circle cx="78.5" cy="42" r="1.5"/><rect x="65" y="47.5" width="9" height="3" rx=".5"/></g><mask id="A" fill="#fff"><rect x="15" y="79" width="94" height="15" rx=".44"/></mask><rect x="15" y="79" width="94" height="15" rx=".44" fill="#fff" stroke="#7a8a96" stroke-width="1.333" mask="url(#A)"/><use href="#D" fill="#7a8a96"/><use href="#D" stroke="#7a8a96" stroke-width=".44"/><g fill="#fff"><rect x="18" y="76.433" width="46" height="2" rx=".909"/><path d="M106 76.808v1.25h-5v-1.25h5z"/></g><g fill="#b5bec4"><rect x="18" y="86" width="88" height=".833" rx=".417"/><rect x="18" y="89.333" width="35.833" height=".833" rx=".417"/><rect x="15" y="96" width="94" height="9.5" rx=".44"/></g><g fill="#fff"><rect x="18" y="99.75" width="46" height="2" rx=".909"/><use href="#E"/></g><rect x="15" y="107.5" width="94" height="9.5" rx=".44" fill="#b5bec4"/><g fill="#fff"><rect x="18" y="111.25" width="46" height="2" rx=".909"/><use href="#E" y="11.5"/></g><defs ><path id="C" d="M33.4 24.933l-3.68-3.68-1.84-.307c0 1.073-.92 1.993-2.147 1.993s-2.147-.92-2.147-1.993l-1.84.307-3.68 3.68 2.453 2.453 1.227-1.227v7.36h7.973v-7.36l1.227 1.227 2.453-2.453z"/><path id="D" d="M15.44 73.153h93.12a.22.22 0 0 1 .22.221v8.34H15.22v-8.34c0-.122.099-.221.221-.221z"/><path id="E" d="M106 100.175v1.023h-5v-1.023h5zm-1.914-1.925v5h-1.167v-5h1.167z"/></defs></svg>