<svg xmlns="http://www.w3.org/2000/svg" width="124" height="130" fill="none"><rect x="1" y="1" width="122" height="128" rx="3" stroke="#ccc" stroke-width="2"/><rect x="15" y="25.228" width="21.467" height="24.467" rx="1" fill="#d9d9d9"/><use href="#D" fill="#fff"/><rect x="39.467" y="25.228" width="21.467" height="24.467" rx="1" fill="#d9d9d9"/><use href="#D" x="24.467" fill="#fff"/><rect x="15" y="52.695" width="21.467" height="24.467" rx="1" fill="#d9d9d9"/><use href="#D" y="27.467" fill="#fff"/><rect x="39.467" y="52.695" width="21.467" height="24.467" rx="1" fill="#d9d9d9"/><use href="#D" x="24.467" y="27.467" fill="#fff"/><rect x="15" y="80.161" width="21.467" height="24.467" rx="1" fill="#d9d9d9"/><use href="#D" y="54.934" fill="#fff"/><rect x="39.467" y="80.161" width="21.467" height="24.467" rx="1" fill="#d9d9d9"/><use href="#D" x="24.467" y="54.934" fill="#fff"/><g fill="#d9d9d9"><rect x="65" y="27.228" width="31" height="2" rx="1"/><rect x="65" y="31.228" width="7" height="1.5" rx=".75"/><rect x="65" y="36.728" width="44" height="1" rx=".5"/><rect x="65" y="39.728" width="44" height="1" rx=".5"/><rect x="65" y="42.728" width="44" height="1" rx=".5"/><rect x="65" y="45.728" width="25" height="1" rx=".5"/><circle cx="66.5" cy="52.228" r="1.5"/><circle cx="70.5" cy="52.228" r="1.5"/><circle cx="74.5" cy="52.228" r="1.5"/><circle cx="78.5" cy="52.228" r="1.5"/><rect x="65" y="57.728" width="9" height="3" rx=".5"/></g><mask id="A" maskUnits="userSpaceOnUse" x="65" y="65.122" width="44" height="7" fill="#000"><path fill="#fff" d="M65 65.122h44v7H65z"/><path d="M65 65.122h44v5.5H65v-5.5z"/></mask><path d="M109 70.622v-.8H65v.8.8h44v-.8z" fill="#b5bec4" mask="url(#A)"/><mask id="B" maskUnits="userSpaceOnUse" x="65" y="65.122" width="11" height="7" fill="#000"><path fill="#fff" d="M65 65.122h11v7H65z"/><path d="M65 65.122h11v5.5H65v-5.5z"/></mask><path d="M65 65.122h11v5.5H65v-5.5z" fill="#65747f"/><path d="M76 70.622v-1H65v1 1h11v-1z" fill="#293035" mask="url(#B)"/><path d="M77.222 65.122h11v5.5h-11v-5.5zm12.223 0h10.999v5.5H89.445v-5.5z" fill="#b5bec4"/><path fill="#e6e9eb" d="M65 73.622h44v31.15H65z"/><defs ><path id="D" d="M33.4 35.161l-3.68-3.68-1.84-.307c0 1.073-.92 1.993-2.147 1.993s-2.147-.92-2.147-1.993l-1.84.307-3.68 3.68 2.453 2.453 1.227-1.227v7.36h7.973v-7.36l1.227 1.227 2.453-2.453z"/></defs></svg>