<svg xmlns="http://www.w3.org/2000/svg" width="120" height="92" fill="none"><g fill="#fff"><rect x="1" y="1" width="118" height="90" rx="3"/><path d="M80 61h-1v-1-43l-.028-.964C78.774 16.002 78.5 16 78 16H21l-.964.028c-.034.198-.036.473-.036.972v58l.028.964c.198.034.473.036.972.036h77l.964-.028c.034-.199.036-.473.036-.972V62l-.028-.964C98.774 61.002 98.5 61 98 61H80z" stroke="#8796a1" stroke-width="2"/></g><path d="M98 38c.943 0 1.414 0 1.707-.293S100 36.943 100 36V26c0-.943 0-1.414-.293-1.707S98.943 24 98 24H80c-.943 0-1.414 0-1.707.293S78 25.057 78 26v10c0 .943 0 1.414.293 1.707S79.057 38 80 38h18zm0 18c.943 0 1.414 0 1.707-.293S100 54.943 100 54V44c0-.943 0-1.414-.293-1.707S98.943 42 98 42H80c-.943 0-1.414 0-1.707.293S78 43.057 78 44v10c0 .943 0 1.414.293 1.707S79.057 56 80 56h18z" fill="#8796a1"/><rect x="1" y="1" width="118" height="90" rx="3" stroke="#ccc" stroke-width="2"/></svg>