<svg xmlns="http://www.w3.org/2000/svg" width="120" height="92" fill="none"><g fill="#fff"><rect x="1" y="1" width="118" height="90" rx="3"/><path d="M79 34v-1h1 18l.964-.028c.034-.198.036-.473.036-.972V17l-.028-.964C98.774 16.002 98.5 16 98 16H21l-.964.028c-.034.198-.036.473-.036.972v57l.028.964c.198.034.473.036.972.036h57l.964-.028c.034-.199.036-.473.036-.972V34z" stroke="#8796a1" stroke-width="2"/></g><path d="M98 76c.943 0 1.414 0 1.707-.276s.293-.719.293-1.607V61.882c0-.887 0-1.331-.293-1.607S98.943 60 98 60H80c-.943 0-1.414 0-1.707.276S78 60.995 78 61.882v12.235c0 .887 0 1.331.293 1.607S79.057 76 80 76h18zm0-20c.943 0 1.414 0 1.707-.293S100 54.943 100 54V41c0-.943 0-1.414-.293-1.707S98.943 39 98 39H80c-.943 0-1.414 0-1.707.293S78 40.057 78 41v13c0 .943 0 1.414.293 1.707S79.057 56 80 56h18z" fill="#8796a1"/><rect x="1" y="1" width="118" height="90" rx="3" stroke="#ccc" stroke-width="2"/></svg>