<svg xmlns="http://www.w3.org/2000/svg" width="300" height="100" fill="none" xmlns:v="https://vecta.io/nano"><style><![CDATA[.B{fill:#fff}.C{fill:#2c3333}.D{stroke:#ccc}.E{fill:#8796a1}.F{stroke-width:1.214}.G{stroke:#8796a1}.H{stroke-width:1.349}]]></style><rect x=".75" y=".75" width="298.5" height="98.5" rx="2.25" stroke-width="1.5" class="D"/><g opacity=".5"><rect x="13.195" y="11.865" width="79.727" height="63.539" rx="1.821" class="B"/><rect x="13.195" y="11.865" width="79.727" height="63.539" rx="1.821" class="D F"/><path d="M27.697 24.074H78.96l.65.019c.023.134.024.319.024.655v37.773l-.019.65c-.134.023-.32.024-.656.024H39.164c-.337 0-.522-.001-.65-.019-.022-.134-.023-.319-.023-.655V33.516H27.697c-.337 0-.521-.001-.649-.019l-.006-.005c-.017-.128-.018-.314-.018-.65v-8.095l.018-.649c.134-.023.319-.024.655-.024z" class="B G H"/><g class="E"><path d="M27.697 46.333c-.636 0-.954 0-1.151-.198s-.198-.516-.198-1.151v-6.745c0-.636 0-.954.198-1.151s.515-.198 1.151-.198h10.118c.636 0 .954 0 1.151.198s.198.516.198 1.151v6.745c0 .636 0 .954-.198 1.151s-.515.198-1.151.198H27.697zm0 12.141c-.636 0-.954 0-1.151-.197s-.198-.516-.198-1.151V50.38c0-.636 0-.954.198-1.151s.515-.197 1.151-.197h10.118c.636 0 .954 0 1.151.197s.198.516.198 1.151v6.745c0 .636 0 .954-.198 1.151s-.515.197-1.151.197H27.697z"/></g><path d="M25.639 87.27l2.119-6.584h1.533l-2.888 8.056h-1.035l.271-1.472zm-1.959-6.584l2.102 6.584.288 1.472h-1.04l-2.877-8.056h1.527zm8.775 8.167c-.443 0-.843-.072-1.201-.216a2.65 2.65 0 0 1-.907-.614c-.247-.262-.437-.57-.57-.924s-.199-.736-.199-1.145v-.221c0-.468.068-.893.205-1.273s.326-.704.57-.974.531-.481.863-.625.692-.216 1.079-.216c.428 0 .802.072 1.123.216a2.11 2.11 0 0 1 .797.609c.214.258.372.566.476.924a4.12 4.12 0 0 1 .16 1.184v.57h-4.626v-.957h3.309v-.105a1.87 1.87 0 0 0-.144-.675c-.085-.21-.216-.38-.393-.509s-.413-.194-.708-.194c-.221 0-.419.048-.592.144a1.17 1.17 0 0 0-.426.404c-.114.177-.203.391-.266.642s-.089.526-.089.835v.221c0 .262.035.505.105.73s.181.415.321.581a1.52 1.52 0 0 0 .509.393 1.6 1.6 0 0 0 .681.138c.321 0 .607-.065.858-.194s.468-.312.653-.548l.703.681a2.74 2.74 0 0 1-.503.542 2.52 2.52 0 0 1-.758.415c-.295.107-.638.16-1.029.16zm4.775-4.958v4.847h-1.334v-5.987h1.273l.061 1.14zm1.831-1.178l-.011 1.239a2.63 2.63 0 0 0-.266-.033l-.277-.011a1.68 1.68 0 0 0-.603.1 1.14 1.14 0 0 0-.437.277c-.114.118-.203.262-.266.432a1.93 1.93 0 0 0-.111.57l-.304.022c0-.376.037-.725.111-1.046a2.86 2.86 0 0 1 .332-.847c.151-.243.339-.433.564-.57s.492-.205.791-.205c.081 0 .168.007.26.022a1.12 1.12 0 0 1 .216.05zm3.857.039v.974h-3.375v-.974h3.375zm-2.401-1.466h1.333v5.799c0 .184.026.327.078.426s.131.16.227.194.208.05.337.05a2.05 2.05 0 0 0 .266-.017l.205-.033.005 1.018c-.111.033-.24.063-.387.089s-.31.039-.498.039a1.95 1.95 0 0 1-.813-.16c-.236-.111-.421-.29-.553-.537s-.199-.575-.199-.985v-5.882zm4.858 1.466v5.987h-1.339v-5.987h1.339zm-1.428-1.571c0-.203.066-.371.199-.504s.325-.205.564-.205.422.068.559.205.205.301.205.504-.068.365-.205.498-.323.199-.559.199-.428-.066-.564-.199-.199-.299-.199-.498zm5.334 6.606c.218 0 .413-.042.587-.127a1.11 1.11 0 0 0 .426-.365c.111-.155.172-.334.183-.537h1.256a1.87 1.87 0 0 1-.343 1.057 2.38 2.38 0 0 1-.88.758c-.365.184-.769.277-1.212.277-.457 0-.856-.078-1.195-.232s-.622-.376-.846-.653-.395-.596-.509-.957-.166-.749-.166-1.162v-.194c0-.413.055-.8.166-1.162s.284-.686.509-.963a2.31 2.31 0 0 1 .846-.647c.339-.159.736-.238 1.19-.238.48 0 .9.096 1.262.288s.645.452.852.791.319.727.326 1.173h-1.256c-.011-.221-.066-.421-.166-.597s-.232-.325-.409-.432-.382-.16-.625-.16c-.269 0-.492.055-.67.166s-.315.254-.415.443-.172.393-.216.625-.061.467-.061.714v.194a4.17 4.17 0 0 0 .061.719c.041.232.111.441.21.625s.243.326.42.437.402.16.675.16zm6.85-.249v-2.855c0-.214-.039-.398-.116-.553s-.196-.275-.354-.36-.35-.127-.587-.127c-.218 0-.406.037-.564.111s-.282.173-.371.299a.72.72 0 0 0-.133.426h-1.328c0-.236.057-.465.172-.686s.28-.419.498-.592.478-.31.78-.409.642-.149 1.018-.149c.45 0 .848.076 1.195.227s.625.38.824.686.304.682.304 1.14v2.662a4.43 4.43 0 0 0 .055.736c.041.214.098.4.172.559v.089h-1.367c-.063-.144-.112-.326-.149-.548s-.05-.443-.05-.653zm.194-2.44l.011.824h-.957a2.66 2.66 0 0 0-.653.072c-.188.044-.345.111-.47.199s-.22.196-.282.321a.94.94 0 0 0-.094.426c0 .159.037.304.111.437s.181.231.321.304.317.111.52.111c.273 0 .511-.055.714-.166s.369-.253.487-.415.181-.323.188-.47l.432.592c-.044.151-.12.314-.227.487s-.247.339-.42.498a2.09 2.09 0 0 1-.614.382c-.236.1-.509.149-.819.149-.391 0-.74-.078-1.046-.232s-.546-.371-.719-.636a1.65 1.65 0 0 1-.26-.913c0-.317.059-.597.177-.841a1.65 1.65 0 0 1 .531-.62 2.57 2.57 0 0 1 .863-.376c.339-.089.727-.133 1.162-.133h1.046zm3.967-4.858v8.499h-1.339v-8.499h1.339zm9.462 7.398v1.101h-4.045v-1.101h4.045zm-3.657-6.955v8.056h-1.389v-8.056h1.389zm7.237 8.167c-.443 0-.843-.072-1.201-.216a2.65 2.65 0 0 1-.907-.614c-.247-.262-.437-.57-.57-.924s-.199-.736-.199-1.145v-.221c0-.468.068-.893.205-1.273a2.89 2.89 0 0 1 .57-.974c.243-.273.531-.481.863-.625s.692-.216 1.079-.216c.428 0 .802.072 1.123.216a2.11 2.11 0 0 1 .797.609c.214.258.372.566.476.924a4.12 4.12 0 0 1 .16 1.184v.57h-4.626v-.957h3.309v-.105a1.87 1.87 0 0 0-.144-.675c-.085-.21-.216-.38-.393-.509s-.413-.194-.708-.194c-.221 0-.419.048-.592.144a1.17 1.17 0 0 0-.426.404c-.114.177-.203.391-.266.642s-.089.526-.089.835v.221c0 .262.035.505.105.73s.181.415.321.581a1.52 1.52 0 0 0 .509.393 1.6 1.6 0 0 0 .681.138c.321 0 .607-.065.858-.194s.468-.312.653-.548l.703.681a2.74 2.74 0 0 1-.504.542 2.52 2.52 0 0 1-.758.415c-.295.107-.638.16-1.029.16zm5.24-.111H77.24V82.18c0-.446.083-.821.249-1.123a1.64 1.64 0 0 1 .725-.692c.314-.159.684-.238 1.112-.238.133 0 .264.009.393.028s.255.039.376.072l-.033 1.029c-.074-.018-.155-.031-.243-.039l-.277-.011c-.203 0-.378.039-.526.116s-.255.183-.332.326-.111.321-.111.531v6.562zm1.234-5.987v.974h-3.486v-.974h3.486zm3.713 0v.974h-3.375v-.974h3.375zm-2.401-1.466h1.334v5.799c0 .184.026.327.077.426s.131.16.227.194.208.05.338.05c.092 0 .181-.005.266-.017l.205-.033.006 1.018a3.42 3.42 0 0 1-.387.089c-.144.026-.31.039-.498.039-.306 0-.577-.053-.813-.16s-.421-.29-.553-.537-.199-.575-.199-.985v-5.882z" class="C"/></g><g opacity=".5"><rect x="110.666" y="11.865" width="79.727" height="63.539" rx="1.821" class="B"/><rect x="110.666" y="11.865" width="79.727" height="63.539" rx="1.821" class="D F"/><path d="M125.167 24.074h51.263l.65.019c.024.134.025.319.025.655v8.095l-.019.65c-.134.022-.319.023-.656.023h-10.792v29.005l-.018.65c-.135.023-.319.024-.656.024h-39.797c-.336 0-.521-.001-.649-.019-.023-.134-.024-.319-.024-.655V24.748l.018-.649c.134-.023.319-.024.655-.024z" class="B G H"/><g class="E"><path d="M166.313 46.333c-.636 0-.954 0-1.151-.198s-.198-.516-.198-1.151v-6.745c0-.636 0-.954.198-1.151s.515-.198 1.151-.198h10.118c.636 0 .954 0 1.151.198s.198.516.198 1.151v6.745c0 .636 0 .954-.198 1.151s-.515.198-1.151.198h-10.118zm0 12.141c-.636 0-.954 0-1.151-.197s-.198-.516-.198-1.151V50.38c0-.636 0-.954.198-1.151s.515-.197 1.151-.197h10.118c.636 0 .954 0 1.151.197s.198.516.198 1.151v6.745c0 .636 0 .954-.198 1.151s-.515.197-1.151.197h-10.118z"/></g><path d="M119.609 87.27l2.119-6.584h1.533l-2.888 8.056h-1.035l.271-1.472zm-1.958-6.584l2.102 6.584.288 1.472h-1.04l-2.878-8.056h1.528zm8.775 8.167c-.443 0-.843-.072-1.201-.216a2.65 2.65 0 0 1-.907-.614 2.73 2.73 0 0 1-.57-.924 3.23 3.23 0 0 1-.199-1.145v-.221c0-.468.068-.893.205-1.273s.326-.704.569-.974.532-.481.864-.625a2.68 2.68 0 0 1 1.079-.216c.427 0 .802.072 1.123.216s.586.347.797.609a2.52 2.52 0 0 1 .475.924 4.12 4.12 0 0 1 .161 1.184v.57h-4.626v-.957h3.309v-.105c-.007-.24-.055-.465-.144-.675a1.15 1.15 0 0 0-.393-.509c-.177-.129-.413-.194-.708-.194-.221 0-.419.048-.592.144s-.312.227-.426.404-.203.391-.266.642a3.61 3.61 0 0 0-.088.835v.221c0 .262.035.505.105.73s.181.415.321.581a1.52 1.52 0 0 0 .509.393 1.6 1.6 0 0 0 .681.138c.32 0 .606-.065.857-.194a1.96 1.96 0 0 0 .653-.548l.703.681a2.73 2.73 0 0 1-.504.542c-.206.17-.459.308-.758.415s-.638.16-1.029.16zm4.775-4.958v4.847h-1.333v-5.987h1.272l.061 1.14zm1.832-1.178l-.011 1.239c-.082-.015-.17-.026-.266-.033l-.277-.011c-.228 0-.429.033-.603.1a1.14 1.14 0 0 0-.437.277c-.114.118-.203.262-.266.432a1.95 1.95 0 0 0-.11.57l-.305.022a4.65 4.65 0 0 1 .111-1.046c.074-.321.185-.603.332-.847a1.7 1.7 0 0 1 .564-.57c.229-.136.493-.205.792-.205.081 0 .168.007.26.022a1.12 1.12 0 0 1 .216.05zm3.856.039v.974h-3.375v-.974h3.375zm-2.401-1.466h1.333v5.799c0 .184.026.327.078.426s.131.16.227.194.208.05.337.05a2.06 2.06 0 0 0 .266-.017l.204-.033.006 1.018c-.111.033-.24.063-.387.089a2.85 2.85 0 0 1-.498.039c-.307 0-.578-.053-.814-.16s-.42-.29-.553-.537-.199-.575-.199-.985v-5.882zm4.858 1.466v5.987h-1.339v-5.987h1.339zm-1.428-1.571c0-.203.067-.371.199-.504.137-.136.325-.205.565-.205s.422.068.559.205.204.301.204.504-.068.365-.204.498-.323.199-.559.199-.428-.066-.565-.199a.68.68 0 0 1-.199-.498zm5.334 6.606a1.32 1.32 0 0 0 .587-.127 1.11 1.11 0 0 0 .426-.365 1 1 0 0 0 .182-.537h1.256a1.86 1.86 0 0 1-.343 1.057c-.221.317-.514.57-.879.758s-.77.277-1.212.277c-.458 0-.856-.078-1.195-.232a2.36 2.36 0 0 1-.847-.653c-.225-.277-.395-.596-.509-.957a3.94 3.94 0 0 1-.166-1.162v-.194a3.94 3.94 0 0 1 .166-1.162c.114-.365.284-.686.509-.963s.507-.492.847-.647.736-.238 1.189-.238c.48 0 .9.096 1.262.288a2.13 2.13 0 0 1 .852.791c.21.336.319.727.326 1.173h-1.256a1.33 1.33 0 0 0-.166-.597c-.096-.181-.232-.325-.409-.432s-.382-.16-.625-.16c-.27 0-.493.055-.67.166a1.12 1.12 0 0 0-.415.443c-.099.184-.171.393-.216.625-.04.229-.06.467-.06.714v.194c0 .247.02.487.06.719a2.05 2.05 0 0 0 .211.625 1.22 1.22 0 0 0 .42.437c.177.107.402.16.675.16zm6.85-.249v-2.855a1.23 1.23 0 0 0-.116-.553c-.077-.155-.196-.275-.354-.36s-.351-.127-.587-.127a1.33 1.33 0 0 0-.564.111c-.159.074-.282.173-.371.299s-.133.267-.133.426h-1.327a1.48 1.48 0 0 1 .171-.686c.114-.221.28-.419.498-.592s.478-.31.78-.409.642-.149 1.018-.149c.45 0 .849.076 1.195.227s.626.38.825.686.304.682.304 1.14v2.662c0 .273.019.518.056.736a2.34 2.34 0 0 0 .171.559v.089h-1.367c-.062-.144-.112-.326-.149-.548s-.05-.443-.05-.653zm.194-2.44l.011.824h-.957a2.66 2.66 0 0 0-.653.072c-.188.044-.345.111-.471.199a.87.87 0 0 0-.282.321.95.95 0 0 0-.094.426c0 .159.037.304.111.437a.78.78 0 0 0 .321.304c.144.074.317.111.52.111a1.47 1.47 0 0 0 .714-.166c.206-.114.369-.253.487-.415s.18-.323.188-.47l.431.592c-.044.151-.12.314-.227.487s-.247.339-.42.498-.375.282-.614.382-.509.149-.819.149c-.391 0-.74-.078-1.046-.232s-.546-.371-.719-.636-.26-.574-.26-.913c0-.317.059-.597.177-.841s.299-.454.531-.62.524-.291.863-.376.727-.133 1.162-.133h1.046zm3.967-4.858v8.499h-1.339v-8.499h1.339zm4.415.443h2.85c.612 0 1.134.092 1.566.277s.762.457.99.819.349.8.349 1.328c0 .402-.074.756-.221 1.062a2.16 2.16 0 0 1-.626.775 3.02 3.02 0 0 1-.962.481l-.421.205h-2.562l-.011-1.101h1.92c.332 0 .609-.059.83-.177s.387-.278.498-.481a1.42 1.42 0 0 0 .172-.697c0-.28-.056-.524-.166-.73a1.07 1.07 0 0 0-.498-.481c-.225-.114-.511-.171-.858-.171h-1.461v6.95h-1.389v-8.056zm4.598 8.056l-1.892-3.619 1.455-.005 1.92 3.552v.072h-1.483zm3.835-5.987v5.987h-1.339v-5.987h1.339zm-1.428-1.571c0-.203.067-.371.2-.504s.324-.205.564-.205.422.068.559.205.204.301.204.504-.068.365-.204.498-.323.199-.559.199-.428-.066-.564-.199-.2-.299-.2-.498zm6.723 1.571h1.212v5.821c0 .539-.115.996-.343 1.372s-.548.662-.957.858-.884.299-1.422.299a3.34 3.34 0 0 1-.764-.1 3.13 3.13 0 0 1-.808-.321 2 2 0 0 1-.647-.57l.625-.786a2.04 2.04 0 0 0 .708.559c.258.118.53.177.814.177.306 0 .566-.057.78-.172a1.16 1.16 0 0 0 .503-.492c.118-.218.177-.483.177-.797v-4.493l.122-1.356zm-4.067 3.06v-.116c0-.454.056-.867.166-1.239s.27-.699.476-.968.457-.481.753-.625.629-.221 1.001-.221c.387 0 .718.07.99.21.277.14.508.341.692.603a3.01 3.01 0 0 1 .432.93c.107.358.186.756.238 1.195v.371c-.048.428-.129.819-.244 1.173s-.265.66-.454.918a1.93 1.93 0 0 1-.697.597c-.273.14-.595.21-.968.21-.365 0-.695-.076-.99-.227s-.543-.363-.753-.636-.365-.594-.476-.963-.166-.776-.166-1.212zm1.334-.116v.116c0 .273.026.528.077.764.056.236.139.445.249.625.115.177.258.317.432.421s.385.149.625.149c.314 0 .57-.066.769-.199a1.29 1.29 0 0 0 .465-.537c.111-.229.188-.483.232-.764v-1.001c-.022-.218-.068-.421-.138-.609s-.157-.352-.271-.492-.258-.255-.432-.332-.378-.122-.614-.122-.448.052-.625.155-.323.245-.437.426a2.09 2.09 0 0 0-.249.631c-.056.24-.083.496-.083.769zm6.645-5.456v8.499h-1.328v-8.499h1.328zm-.232 5.284l-.432-.005c.004-.413.061-.795.172-1.145s.272-.655.475-.913a2.12 2.12 0 0 1 .742-.603 2.11 2.11 0 0 1 .957-.216c.295 0 .561.041.797.122s.446.212.619.393.305.41.393.697.139.631.139 1.04v3.846h-1.339v-3.857c0-.288-.043-.516-.128-.686s-.201-.291-.359-.365-.353-.116-.581-.116c-.24 0-.452.048-.637.144s-.332.227-.453.393-.214.358-.277.575-.088.45-.088.697zm7.956-2.772v.974h-3.375v-.974h3.375zm-2.401-1.466h1.333v5.799c0 .184.026.327.078.426s.131.16.227.194.208.05.337.05a2.06 2.06 0 0 0 .266-.017l.204-.033.006 1.018c-.111.033-.24.063-.387.089a2.85 2.85 0 0 1-.498.039c-.307 0-.578-.053-.814-.16s-.42-.29-.553-.537-.199-.575-.199-.985v-5.882z" class="C"/></g><g opacity=".5"><rect x="207.607" y="11.865" width="79.727" height="63.539" rx="1.821" class="B"/><rect x="207.607" y="11.865" width="79.727" height="63.539" rx="1.821" class="D F"/><path d="M241.67 24.748c0-.636 0-.954.197-1.152s.516-.197 1.152-.197h9.443c.636 0 .954 0 1.151.197s.198.516.198 1.152v4.722c0 .636 0 .954-.198 1.151s-.515.198-1.151.198h-9.443c-.636 0-.954 0-1.152-.198s-.197-.515-.197-1.151v-4.722z" class="E"/><path d="M228.18 24.074h9.443l.65.019c.023.134.024.319.024.655v5.397h35.074l.651.019c.023.134.024.319.024.656v31.702l-.018.65c-.135.023-.32.024-.657.024h-51.262c-.337 0-.522-.001-.65-.019-.023-.134-.024-.319-.024-.655V30.819l.018-.65c.134-.023.319-.024.656-.024h5.396v-5.397l.019-.649c.134-.023.319-.024.656-.024z" class="B G H"/><path d="M256.509 24.748c0-.636 0-.954.198-1.152s.515-.197 1.151-.197h9.443c.636 0 .954 0 1.152.197s.197.516.197 1.152v4.722c0 .636 0 .954-.197 1.151s-.516.198-1.152.198h-9.443c-.636 0-.954 0-1.151-.198s-.198-.515-.198-1.151v-4.722z" class="E"/><g clip-path="url(#A)" class="C"><path d="M224.503 27.755c.19.19.19.497 0 .687-.095.095-.219.142-.343.142s-.249-.047-.344-.142l-1.942-1.943c-.19-.19-.19-.497 0-.687l1.942-1.943c.19-.19.497-.19.687 0s.19.497 0 .687l-1.599 1.599 1.599 1.599z"/></g><g clip-path="url(#B)" class="C"><path d="M270.438 27.755c-.189.19-.189.497 0 .687.095.095.219.142.344.142s.248-.047.343-.142l1.943-1.943c.189-.19.189-.497 0-.687l-1.943-1.943c-.19-.19-.497-.19-.687 0s-.189.497 0 .687l1.599 1.599-1.599 1.599z"/></g><path d="M215.104 80.686v8.056h-1.378v-8.056h1.378zm2.528 0v1.107h-6.412v-1.107h6.412zm3.564 6.855v-2.855a1.23 1.23 0 0 0-.116-.553c-.078-.155-.196-.275-.355-.36s-.35-.127-.586-.127c-.218 0-.406.037-.564.111s-.283.173-.371.299-.133.267-.133.426h-1.328a1.47 1.47 0 0 1 .172-.686c.114-.221.28-.419.498-.592s.477-.31.78-.409.642-.149 1.018-.149c.45 0 .848.076 1.195.227s.625.38.824.686.305.682.305 1.14v2.662a4.42 4.42 0 0 0 .055.736c.041.214.098.4.172.559v.089h-1.367c-.063-.144-.113-.326-.149-.548s-.05-.443-.05-.653zm.193-2.44l.011.824h-.957a2.66 2.66 0 0 0-.653.072c-.188.044-.345.111-.47.199a.87.87 0 0 0-.282.321c-.063.125-.094.267-.094.426s.037.304.11.437a.78.78 0 0 0 .321.304 1.13 1.13 0 0 0 .52.111 1.47 1.47 0 0 0 .714-.166c.207-.114.369-.253.487-.415s.181-.323.188-.47l.432.592c-.044.151-.12.314-.227.487s-.247.339-.42.498-.375.282-.615.382-.509.149-.819.149a2.28 2.28 0 0 1-1.045-.232c-.306-.159-.546-.371-.72-.636s-.26-.574-.26-.913c0-.317.059-.597.177-.841s.299-.454.532-.62.523-.291.863-.376.726-.133 1.162-.133h1.045zm2.546-4.858h1.333v7.221l-.127 1.278h-1.206v-8.499zm5.239 5.45v.116a4.71 4.71 0 0 1-.149 1.223c-.096.369-.243.69-.443.963a2.05 2.05 0 0 1-.73.636c-.288.147-.621.221-1.001.221-.373 0-.698-.07-.974-.21a1.93 1.93 0 0 1-.697-.597c-.185-.258-.334-.566-.449-.924s-.195-.752-.243-1.184v-.371a6.02 6.02 0 0 1 .243-1.184c.115-.358.264-.666.449-.924s.418-.463.691-.603a2.12 2.12 0 0 1 .969-.21 2.21 2.21 0 0 1 1.012.221 1.99 1.99 0 0 1 .736.631c.195.269.341.59.437.963s.149.784.149 1.234zm-1.333.116v-.116c0-.269-.022-.522-.066-.758a1.99 1.99 0 0 0-.222-.631c-.099-.181-.236-.323-.409-.426s-.382-.16-.636-.16a1.4 1.4 0 0 0-.609.122c-.17.081-.312.192-.426.332a1.62 1.62 0 0 0-.271.487c-.063.184-.105.384-.128.598v1.001a2.56 2.56 0 0 0 .211.763c.11.229.265.413.465.553s.455.205.769.205c.247 0 .455-.05.625-.149s.304-.238.404-.415a1.99 1.99 0 0 0 .221-.631c.048-.24.072-.498.072-.775zm5.821 1.311c0-.133-.033-.253-.1-.36s-.193-.21-.382-.299-.457-.17-.818-.243c-.318-.07-.609-.153-.875-.249a2.77 2.77 0 0 1-.675-.36c-.188-.14-.334-.306-.437-.498s-.155-.413-.155-.664a1.55 1.55 0 0 1 .161-.692c.107-.218.26-.409.459-.575s.441-.297.725-.393.608-.144.963-.144c.501 0 .931.085 1.289.255s.638.393.83.681.287.605.287.963h-1.333c0-.159-.041-.306-.122-.443s-.195-.253-.354-.338-.358-.133-.597-.133c-.229 0-.419.037-.57.111s-.259.162-.332.277-.105.24-.105.376c0 .1.018.19.055.271s.107.149.199.216.218.122.376.177a5.44 5.44 0 0 0 .609.16c.457.096.85.219 1.178.371s.587.339.764.575.266.528.266.885a1.57 1.57 0 0 1-.172.73 1.66 1.66 0 0 1-.487.57c-.214.159-.47.282-.769.371s-.627.133-.996.133c-.542 0-1.001-.096-1.378-.288s-.662-.444-.857-.747-.288-.623-.288-.952h1.289c.015.247.083.445.205.592s.28.249.465.315.382.094.581.094c.24 0 .441-.031.603-.094a.87.87 0 0 0 .371-.266.64.64 0 0 0 .127-.387zm10.186-1.002h1.384a3.2 3.2 0 0 1-.443 1.411c-.251.409-.603.732-1.057.968s-1.005.354-1.654.354a3.28 3.28 0 0 1-1.345-.266 2.96 2.96 0 0 1-1.024-.764c-.284-.332-.501-.732-.652-1.201s-.222-.992-.222-1.571v-.669c0-.579.076-1.103.227-1.571a3.47 3.47 0 0 1 .664-1.201c.288-.336.633-.592 1.035-.769s.861-.266 1.366-.266c.642 0 1.185.118 1.627.354s.786.563 1.029.979.399.895.454 1.433h-1.383c-.037-.347-.118-.644-.244-.891a1.25 1.25 0 0 0-.542-.564c-.24-.133-.553-.199-.941-.199-.317 0-.593.059-.83.177a1.57 1.57 0 0 0-.592.52c-.158.229-.278.511-.359.847s-.116.712-.116 1.14v.681c0 .406.035.775.105 1.107a2.7 2.7 0 0 0 .332.846 1.6 1.6 0 0 0 .575.548c.233.129.511.194.836.194.394 0 .713-.063.957-.188a1.26 1.26 0 0 0 .559-.548c.129-.243.214-.54.254-.891zm5.887 1.422v-2.855c0-.214-.038-.398-.116-.553a.81.81 0 0 0-.354-.36 1.21 1.21 0 0 0-.586-.127 1.33 1.33 0 0 0-.565.111.91.91 0 0 0-.37.299c-.089.125-.133.267-.133.426h-1.328a1.48 1.48 0 0 1 .171-.686 1.85 1.85 0 0 1 .498-.592c.218-.173.478-.31.78-.409a3.25 3.25 0 0 1 1.019-.149c.45 0 .848.076 1.195.227s.625.38.824.686.304.682.304 1.14v2.662c0 .273.019.518.056.736s.098.4.171.559v.089h-1.366a2.35 2.35 0 0 1-.15-.548c-.033-.225-.05-.443-.05-.653zm.194-2.44l.011.824h-.957a2.66 2.66 0 0 0-.653.072c-.188.044-.345.111-.47.199s-.22.196-.282.321-.095.267-.095.426.037.304.111.437a.78.78 0 0 0 .321.304c.144.074.317.111.52.111a1.47 1.47 0 0 0 .714-.166c.207-.114.369-.253.487-.415s.181-.323.188-.47l.432.592a2.05 2.05 0 0 1-.227.487c-.107.173-.247.339-.421.498s-.374.282-.614.382-.509.149-.819.149c-.391 0-.739-.078-1.046-.232s-.546-.371-.719-.636-.26-.574-.26-.913c0-.317.059-.597.177-.841s.299-.454.531-.62.524-.291.863-.376a4.62 4.62 0 0 1 1.162-.133h1.046zm3.879-1.206v4.847h-1.334v-5.987h1.273l.061 1.14zm1.831-1.178l-.011 1.239a2.61 2.61 0 0 0-.265-.033l-.277-.011c-.229 0-.43.033-.603.1a1.13 1.13 0 0 0-.437.277c-.115.118-.203.262-.266.432a1.95 1.95 0 0 0-.111.57l-.304.022a4.65 4.65 0 0 1 .111-1.046 2.85 2.85 0 0 1 .332-.847 1.7 1.7 0 0 1 .564-.57c.229-.136.493-.205.791-.205.082 0 .168.007.26.022a1.12 1.12 0 0 1 .216.05zm.437 3.099v-.127c0-.432.063-.832.189-1.201s.306-.695.542-.968.531-.491.874-.642.738-.232 1.173-.232a2.82 2.82 0 0 1 1.173.232c.347.151.64.365.88.642a2.81 2.81 0 0 1 .548.968 3.72 3.72 0 0 1 .188 1.201v.127a3.72 3.72 0 0 1-.188 1.201 2.88 2.88 0 0 1-.548.968 2.54 2.54 0 0 1-.874.642c-.344.151-.733.227-1.168.227s-.832-.076-1.178-.227-.635-.369-.875-.642-.422-.599-.547-.968-.189-.769-.189-1.201zm1.334-.127v.127c0 .269.028.524.083.764s.142.45.26.631a1.28 1.28 0 0 0 .454.426c.184.103.404.155.658.155.247 0 .461-.052.642-.155a1.29 1.29 0 0 0 .454-.426c.118-.181.204-.391.26-.631s.088-.494.088-.764v-.127c0-.266-.029-.516-.088-.752a1.94 1.94 0 0 0-.266-.636c-.118-.184-.269-.328-.454-.432-.18-.107-.396-.16-.647-.16a1.28 1.28 0 0 0-1.101.592 2 2 0 0 0-.26.636 3.31 3.31 0 0 0-.083.752zm8.952 1.643v-4.576h1.339v5.987h-1.261l-.078-1.411zm.189-1.245l.448-.011c0 .402-.045.773-.133 1.112s-.225.629-.41.88a1.91 1.91 0 0 1-.708.581c-.287.136-.632.205-1.034.205-.292 0-.559-.042-.803-.127s-.453-.216-.631-.393a1.78 1.78 0 0 1-.403-.692c-.096-.284-.144-.623-.144-1.018v-3.868h1.333v3.879c0 .218.026.4.078.548s.121.26.21.349.192.151.31.188a1.25 1.25 0 0 0 .376.055c.38 0 .679-.074.896-.221.222-.151.378-.354.471-.609s.144-.54.144-.858zm5.876 1.035a.67.67 0 0 0-.1-.36c-.066-.111-.194-.21-.382-.299s-.457-.17-.819-.243a7.08 7.08 0 0 1-.874-.249 2.77 2.77 0 0 1-.675-.36c-.188-.14-.334-.306-.437-.498s-.155-.413-.155-.664a1.55 1.55 0 0 1 .161-.692c.107-.218.26-.409.459-.575s.441-.297.725-.393.608-.144.962-.144c.502 0 .932.085 1.29.255s.638.393.83.681.287.605.287.963h-1.333c0-.159-.041-.306-.122-.443s-.195-.253-.354-.338-.358-.133-.598-.133c-.228 0-.418.037-.57.111-.147.07-.258.162-.332.277s-.105.24-.105.376c0 .1.019.19.056.271s.107.149.199.216.218.122.376.177a5.38 5.38 0 0 0 .609.16c.457.096.85.219 1.178.371s.587.339.764.575.265.528.265.885a1.57 1.57 0 0 1-.171.73 1.66 1.66 0 0 1-.487.57c-.214.159-.47.282-.769.371s-.627.133-.996.133c-.542 0-1.002-.096-1.378-.288s-.662-.444-.857-.747-.288-.623-.288-.952h1.289c.015.247.083.445.205.592s.28.249.465.315a1.82 1.82 0 0 0 .581.094c.239 0 .44-.031.603-.094s.286-.155.37-.266.128-.243.128-.387zm5.112 1.732c-.442 0-.843-.072-1.2-.216s-.657-.352-.908-.614a2.73 2.73 0 0 1-.57-.924 3.23 3.23 0 0 1-.199-1.145v-.221c0-.468.068-.893.205-1.273s.326-.704.57-.974.531-.481.863-.625a2.68 2.68 0 0 1 1.079-.216c.428 0 .802.072 1.123.216a2.11 2.11 0 0 1 .797.609c.214.258.372.566.476.924s.16.752.16 1.184v.57h-4.626v-.957h3.309v-.105c-.007-.24-.055-.465-.144-.675s-.215-.38-.393-.509-.413-.194-.708-.194c-.221 0-.418.048-.592.144a1.18 1.18 0 0 0-.426.404c-.114.177-.203.391-.265.642s-.089.526-.089.835v.221c0 .262.035.505.105.73s.181.415.321.581a1.52 1.52 0 0 0 .509.393 1.6 1.6 0 0 0 .681.138c.321 0 .607-.065.857-.194a1.96 1.96 0 0 0 .653-.548l.703.681a2.73 2.73 0 0 1-.504.542c-.206.17-.459.308-.758.415s-.638.16-1.029.16zm4.864-8.609v8.499h-1.339v-8.499h1.339z" class="C"/></g><defs><clipPath id="A"><path transform="translate(220.49 23.458)" d="M0 0h5.396v5.396H0z" class="B"/></clipPath><clipPath id="B"><path transform="matrix(-1 0 0 1 274.451 23.458)" d="M0 0h5.396v5.396H0z" class="B"/></clipPath></defs></svg>