<svg width="120" height="64" viewBox="0 0 120 64" fill="none" xmlns="http://www.w3.org/2000/svg">
<rect x="0.75" y="0.75" width="118.5" height="62.5" rx="3.09615" fill="white"/>
<rect x="0.75" y="0.75" width="118.5" height="62.5" rx="3.09615" stroke="#8796A1" stroke-width="1.5"/>
<rect x="13" y="40" width="92" height="1.5" fill="#9EA9B2"/>
<mask id="path-3-inside-1_1912_8619" fill="white">
<path d="M15 24.5C15 23.9477 15.4477 23.5 16 23.5H40C40.5523 23.5 41 23.9477 41 24.5V41.5H15V24.5Z"/>
</mask>
<path d="M15 24.5C15 23.9477 15.4477 23.5 16 23.5H40C40.5523 23.5 41 23.9477 41 24.5V41.5H15V24.5Z" fill="white"/>
<path d="M13.7179 24.5C13.7179 23.2397 14.7397 22.2179 16 22.2179H40C41.2603 22.2179 42.2821 23.2397 42.2821 24.5L39.7179 24.7821H16.2821L13.7179 24.5ZM41 41.5H15H41ZM13.7179 41.5V24.5C13.7179 23.2397 14.7397 22.2179 16 22.2179L16.2821 24.7821V41.5H13.7179ZM40 22.2179C41.2603 22.2179 42.2821 23.2397 42.2821 24.5V41.5H39.7179V24.7821L40 22.2179Z" fill="#9EA9B2" mask="url(#path-3-inside-1_1912_8619)"/>
<mask id="path-5-inside-2_1912_8619" fill="white">
<path d="M45 24.5C45 23.9477 45.4477 23.5 46 23.5H70C70.5523 23.5 71 23.9477 71 24.5V41.5H45V24.5Z"/>
</mask>
<path d="M45 24.5C45 23.9477 45.4477 23.5 46 23.5H70C70.5523 23.5 71 23.9477 71 24.5V41.5H45V24.5Z" fill="white" stroke="#9EA9B2" stroke-width="2.5641" mask="url(#path-5-inside-2_1912_8619)"/>
<mask id="path-6-inside-3_1912_8619" fill="white">
<path d="M75 24.5C75 23.9477 75.4477 23.5 76 23.5H100C100.552 23.5 101 23.9477 101 24.5V41.5H75V24.5Z"/>
</mask>
<path d="M75 24.5C75 23.9477 75.4477 23.5 76 23.5H100C100.552 23.5 101 23.9477 101 24.5V41.5H75V24.5Z" fill="white" stroke="#9EA9B2" stroke-width="2.5641" mask="url(#path-6-inside-3_1912_8619)"/>
<rect x="20" y="31" width="16" height="3" rx="1.5" fill="#58707F"/>
<rect x="50" y="31" width="16" height="3" rx="1.5" fill="#9EA9B2"/>
<rect x="80" y="31" width="16" height="3" rx="1.5" fill="#9EA9B2"/>
</svg>
