<svg xmlns="http://www.w3.org/2000/svg" width="120" height="92" fill="none"><g fill="#fff"><rect x="1" y="1" width="118" height="90" rx="3"/><path d="M80 26h1v-1-7l.028-.964c.199-.034.473-.036.972-.036h16l.964.028c.034.198.036.473.036.972v56l-.028.964c-.199.034-.473.036-.972.036H22c-.5 0-.774-.002-.964-.028C21.002 74.774 21 74.5 21 74V27l.028-.964c.198-.034.473-.036.972-.036h58z" stroke="#8796a1" stroke-width="2"/></g><path d="M34 18c0-.943 0-1.414.293-1.707S35.057 16 36 16h15c.943 0 1.414 0 1.707.293S53 17.057 53 18v7c0 .943 0 1.414-.293 1.707S51.943 27 51 27H36c-.943 0-1.414 0-1.707-.293S34 25.943 34 25v-7zm23 0c0-.943 0-1.414.293-1.707S58.057 16 59 16h15c.943 0 1.414 0 1.707.293S76 17.057 76 18v7c0 .943 0 1.414-.293 1.707S74.943 27 74 27H59c-.943 0-1.414 0-1.707-.293S57 25.943 57 25v-7z" fill="#8796a1"/><rect x="1" y="1" width="118" height="90" rx="3" stroke="#ccc" stroke-width="2"/></svg>