<svg xmlns="http://www.w3.org/2000/svg" width="120" height="92" fill="none"><g fill="#fff"><rect x="1" y="1" width="118" height="90" rx="3"/><path d="M39 25v1h1 58l.964.028c.034.198.036.473.036.972v47l-.028.964c-.199.034-.473.036-.972.036H22c-.5 0-.774-.002-.964-.028C21.002 74.774 21 74.5 21 74V18l.028-.964c.198-.034.473-.036.972-.036h16l.964.028c.034.198.036.473.036.972v7z" stroke="#8796a1" stroke-width="2"/></g><path d="M44 18c0-.943 0-1.414.293-1.707S45.057 16 46 16h15c.943 0 1.414 0 1.707.293S63 17.057 63 18v7c0 .943 0 1.414-.293 1.707S61.943 27 61 27H46c-.943 0-1.414 0-1.707-.293S44 25.943 44 25v-7zm23 0c0-.943 0-1.414.293-1.707S68.057 16 69 16h15c.943 0 1.414 0 1.707.293S86 17.057 86 18v7c0 .943 0 1.414-.293 1.707S84.943 27 84 27H69c-.943 0-1.414 0-1.707-.293S67 25.943 67 25v-7z" fill="#8796a1"/><rect x="1" y="1" width="118" height="90" rx="3" stroke="#ccc" stroke-width="2"/></svg>