<svg xmlns="http://www.w3.org/2000/svg" width="124" height="130" fill="none"><rect x=".75" y=".75" width="122.5" height="128.5" rx="3.25" stroke="#a3afb7" stroke-width="1.5"/><rect x="15" y="15" width="45" height="50" rx="2.044" fill="#e6e9eb"/><path d="M53.168 35.3l-7.52-7.52-3.76-.627c0 2.193-1.88 4.074-4.387 4.074s-4.387-1.88-4.387-4.074l-3.76.627-7.52 7.52 5.014 5.014 2.507-2.507v15.041h16.294V37.807l2.507 2.507 5.014-5.014z" fill="#fff"/><g fill="#e6e9eb"><rect x="65" y="17" width="31" height="2" rx="1"/><rect x="65" y="21" width="7" height="1.5" rx=".75"/><rect x="65" y="25.5" width="44" height="1" rx=".5"/><rect x="65" y="28.5" width="44" height="1" rx=".5"/><rect x="65" y="31.5" width="44" height="1" rx=".5"/><rect x="65" y="34.5" width="25" height="1" rx=".5"/><circle cx="66.5" cy="41" r="1.5"/><circle cx="70.5" cy="41" r="1.5"/><circle cx="74.5" cy="41" r="1.5"/><rect x="65" y="46.5" width="9" height="3" rx=".5"/></g><mask id="A" fill="#fff"><rect x="15" y="77.067" width="94" height="15" rx=".5"/></mask><rect x="15" y="77.067" width="94" height="15" rx=".5" fill="#fff" stroke="#7a8a96" stroke-width="1.333" mask="url(#A)"/><use href="#C" fill="#65747f"/><use href="#C" stroke="#7a8a96" stroke-width=".44"/><g fill="#fff"><rect x="18" y="74.5" width="15" height="2" rx=".909"/><path d="M106 74.875v1.25h-5v-1.25h5z"/></g><g fill="#b5bec4"><rect x="18" y="84.067" width="88" height=".833" rx=".417"/><rect x="18" y="87.4" width="35.833" height=".833" rx=".417"/><rect x="15" y="94.067" width="94" height="9.5" rx=".5"/></g><g fill="#fff"><rect x="18" y="97.817" width="15" height="2" rx=".909"/><path d="M106 98.241v1.024h-5v-1.024h5zm-1.914-1.925v5h-1.167v-5h1.167z"/></g><rect x="15" y="105.567" width="94" height="9.5" rx=".5" fill="#b5bec4"/><g fill="#fff"><rect x="18" y="109.317" width="15" height="2" rx=".909"/><path d="M106 109.741v1.024h-5v-1.024h5zm-1.914-1.924v5h-1.167v-5h1.167z"/></g><defs ><path id="C" d="M15.5 71.22h93a.28.28 0 0 1 .28.28v8.28H15.22V71.5a.28.28 0 0 1 .28-.28z"/></defs></svg>