<svg width="100" height="80" viewBox="0 0 100 80" fill="none" xmlns="http://www.w3.org/2000/svg">
<rect x="0.75" y="0.75" width="98.5" height="78.5" rx="2.58333" fill="white"/>
<rect x="0.75" y="0.75" width="98.5" height="78.5" rx="2.58333" stroke="#CCCCCC" stroke-width="1.5"/>
<mask id="path-2-inside-1_1351_7864" fill="white">
<rect x="17" y="21" width="66.67" height="19" rx="0.440191"/>
</mask>
<rect x="17" y="21" width="66.67" height="19" rx="0.440191" fill="white" stroke="#7A8A96" stroke-width="1.33333" mask="url(#path-2-inside-1_1351_7864)"/>
<path d="M17.4404 15.2197H83.2266C83.3481 15.2198 83.4463 15.3189 83.4463 15.4404V24.2803H17.2197V15.4404C17.2197 15.3189 17.3189 15.2197 17.4404 15.2197Z" fill="#7A8A96"/>
<path d="M17.4404 15.2197H83.2266C83.3481 15.2198 83.4463 15.3189 83.4463 15.4404V24.2803H17.2197V15.4404C17.2197 15.3189 17.3189 15.2197 17.4404 15.2197Z" stroke="#7A8A96" stroke-width="0.440191"/>
<rect x="20" y="18.75" width="46" height="2" rx="0.909091" fill="white"/>
<path d="M80.6666 19.125V20.375H75.6666V19.125H80.6666Z" fill="white"/>
<rect x="20.0303" y="27.75" width="60.6061" height="0.833333" rx="0.416667" fill="#B5BEC4"/>
<rect x="20.0303" y="31.0834" width="60.6061" height="0.833333" rx="0.416667" fill="#B5BEC4"/>
<rect x="20.0303" y="34.4166" width="35.8333" height="0.833333" rx="0.416667" fill="#B5BEC4"/>
<rect x="17" y="43" width="66.6667" height="9.5" rx="0.440191" fill="#B5BEC4"/>
<rect x="20" y="46.75" width="46" height="2" rx="0.909091" fill="white"/>
<path d="M80.6666 47.1745V48.1981H75.6666V47.1745H80.6666ZM78.7528 45.25V50.25H77.5855V45.25H78.7528Z" fill="white"/>
<rect x="17" y="55.5" width="66.6667" height="9.5" rx="0.440191" fill="#B5BEC4"/>
<rect x="20" y="59.25" width="46" height="2" rx="0.909091" fill="white"/>
<path d="M80.6666 59.6745V60.6981H75.6666V59.6745H80.6666ZM78.7528 57.75V62.75H77.5855V57.75H78.7528Z" fill="white"/>
</svg>
