<svg xmlns="http://www.w3.org/2000/svg" width="124" height="130" fill="none"><rect x=".75" y=".75" width="122.5" height="128.5" rx="3.25" stroke="#a3afb7" stroke-width="1.5"/><rect x="15" y="39.033" width="44.98" height="51.967" rx="2.044" fill="#e6e9eb"/><path d="M53.158 60.316l-7.52-7.52-3.76-.627c0 2.194-1.88 4.074-4.387 4.074s-4.387-1.88-4.387-4.074l-3.76.627-7.52 7.52 5.014 5.014 2.507-2.507v15.041h16.294V62.823l2.507 2.507 5.014-5.014z" fill="#fff"/><g fill="#e6e9eb"><rect x="65.019" y="41" width="31" height="2" rx="1"/><rect x="65.019" y="46" width="44" height="1" rx=".5"/><rect x="65.019" y="49" width="25" height="1" rx=".5"/><circle cx="66.52" cy="55.5" r="1.5"/><circle cx="70.52" cy="55.5" r="1.5"/><circle cx="74.52" cy="55.5" r="1.5"/><rect x="65.019" y="61" width="9" height="3" rx=".5"/></g><mask id="A" fill="#fff"><rect x="65.019" y="72.564" width="44" height="10.1" rx=".291"/></mask><rect x="65.019" y="72.564" width="44" height="10.1" rx=".291" fill="#fff" stroke="#7a8a96" stroke-width=".88" mask="url(#A)"/><use href="#C" fill="#65747f"/><use href="#C" stroke="#7a8a96" stroke-width=".291"/><g fill="#fff"><rect x="67" y="71.435" width="12" height="1.4" rx=".7"/><path d="M107.04 71.722v.825h-3.3v-.825h3.3z"/></g><g fill="#b5bec4"><rect x="67.103" y="77.415" width="40" height=".55" rx=".275"/><rect x="67.103" y="79.615" width="23.65" height=".55" rx=".275"/><rect x="65.019" y="84.664" width="44" height="6.27" rx=".291"/></g><g fill="#fff"><rect x="67" y="87.099" width="12" height="1.4" rx=".6"/><path d="M107.04 87.419v.675h-3.3v-.675h3.3zm-1.264-1.27v3.3h-.77v-3.3h.77z"/></g><defs ><path id="C" d="M65.31 69.146h43.419c.08 0 .145.065.145.145v5.835H65.165V69.29c0-.08.065-.144.145-.145z"/></defs></svg>