<svg xmlns="http://www.w3.org/2000/svg" width="124" height="130" fill="none"><rect x=".75" y=".75" width="122.5" height="128.5" rx="3.25" stroke="#a3afb7" stroke-width="1.5"/><rect x="15" y="39" width="45" height="52" rx="2.044" fill="#e6e9eb"/><path d="M53.168 60.3l-7.52-7.52-3.76-.627c0 2.193-1.88 4.074-4.387 4.074s-4.387-1.88-4.387-4.074l-3.76.627-7.52 7.52 5.014 5.014 2.507-2.507v15.041h16.294V62.807l2.507 2.507 5.014-5.014z" fill="#fff"/><g fill="#dce3e7"><rect x="65" y="40.5" width="31" height="2" rx="1"/><rect x="65" y="45.5" width="44" height="1" rx=".5"/><rect x="65" y="48.5" width="25" height="1" rx=".5"/><circle cx="66.5" cy="55" r="1.5"/><circle cx="70.5" cy="55" r="1.5"/><circle cx="74.5" cy="55" r="1.5"/><rect x="65" y="60.5" width="9" height="3" rx=".5"/></g><mask id="A" maskUnits="userSpaceOnUse" x="65" y="68.5" width="44" height="7" fill="#000"><path fill="#fff" d="M65 68.5h44v7H65z"/><path d="M65 68.5h44V74H65v-5.5z"/></mask><path d="M109 74v-.8H65v.8.8h44V74z" fill="#b5bec4" mask="url(#A)"/><mask id="B" maskUnits="userSpaceOnUse" x="65" y="68.5" width="11" height="7" fill="#000"><path fill="#fff" d="M65 68.5h11v7H65z"/><path d="M65 69a.5.5 0 0 1 .5-.5h10a.5.5 0 0 1 .5.5v5H65v-5z"/></mask><path d="M65 69a.5.5 0 0 1 .5-.5h10a.5.5 0 0 1 .5.5v5H65v-5z" fill="#65747f"/><path d="M65 68.5h11-11zm11 6.3H65v-1.6h11v1.6zM65 74v-5.5V74zm11-5.5V74v-5.5z" fill="#293035" mask="url(#B)"/><path d="M77.222 69a.5.5 0 0 1 .5-.5h10a.5.5 0 0 1 .5.5v5h-11v-5zm12.223 0a.5.5 0 0 1 .5-.5h10a.5.5 0 0 1 .499.5v5H89.445v-5z" fill="#b5bec4"/><path fill="#dce3e7" d="M65 77h44v14H65z"/></svg>