<svg width="100" height="80" viewBox="0 0 100 80" fill="none" xmlns="http://www.w3.org/2000/svg">
<rect x="0.75" y="0.75" width="98.5" height="78.5" rx="2.25" fill="white"/>
<rect x="0.75" y="0.75" width="98.5" height="78.5" rx="2.25" stroke="#CCCCCC" stroke-width="1.5"/>
<path d="M10 12.7498H11.5V18.7498H10V12.7498Z" fill="#293035"/>
<path d="M11.5 12.7498H31V18.7498H11.5V12.7498Z" fill="#65747F"/>
<mask id="path-4-inside-1_1347_7490" fill="white">
<path d="M10 18.7498H31V66.7498H10V18.7498Z"/>
</mask>
<path d="M31 18.7498H30.2V66.7498H31H31.8V18.7498H31Z" fill="#B5BEC4" mask="url(#path-4-inside-1_1347_7490)"/>
<path d="M10 20.2498H31V26.2498H10V20.2498Z" fill="#B5BEC4"/>
<path d="M10 27.7498H31V33.7498H10V27.7498Z" fill="#B5BEC4"/>
<path d="M10 35.2498H31V41.2498H10V35.2498Z" fill="#B5BEC4"/>
<path d="M10 42.7498H31V48.7498H10V42.7498Z" fill="#B5BEC4"/>
<rect x="35" y="12.7498" width="54" height="54" fill="#E6E9EB"/>
</svg>
