<svg xmlns="http://www.w3.org/2000/svg" width="120" height="92" fill="none"><g fill="#fff"><rect x="1" y="1" width="118" height="90" rx="3"/><path d="M44 66h-1v1 7l-.028.964c-.198.034-.473.036-.972.036H21c-.5 0-.774-.002-.964-.028C20.002 74.774 20 74.5 20 74V17l.028-.964c.198-.034.473-.036.972-.036h77l.964.028c.034.198.036.473.036.972v48l-.028.964c-.199.034-.473.036-.972.036H44z" stroke="#8796a1" stroke-width="2"/></g><path d="M48 67c0-.943 0-1.414.293-1.707S49.057 65 50 65h20c.943 0 1.414 0 1.707.293S72 66.057 72 67v7c0 .943 0 1.414-.293 1.707S70.943 76 70 76H50c-.943 0-1.414 0-1.707-.293S48 74.943 48 74v-7zm28 0c0-.943 0-1.414.352-1.707S77.269 65 78.4 65h19.2c1.131 0 1.697 0 2.049.293S100 66.057 100 67v7c0 .943 0 1.414-.352 1.707S98.731 76 97.6 76H78.4c-1.131 0-1.697 0-2.049-.293S76 74.943 76 74v-7z" fill="#8796a1"/><rect x="1" y="1" width="118" height="90" rx="3" stroke="#ccc" stroke-width="2"/></svg>