<svg xmlns="http://www.w3.org/2000/svg" width="120" height="92" fill="none"><g fill="#fff"><rect x="1" y="1" width="118" height="90" rx="3"/><path d="M27 65h1v1 7l.028.964c.198.034.473.036.972.036h16l.964-.028c.034-.199.036-.473.036-.972v-7-1h1 51l.964-.028c.034-.199.036-.473.036-.972V17l-.028-.964C98.774 16.002 98.5 16 98 16H22l-.964.028c-.034.198-.036.473-.036.972v47l.028.964c.198.034.473.036.972.036h5z" stroke="#8796a1" stroke-width="2"/></g><path d="M51 73c0 .943 0 1.414.293 1.707S52.057 75 53 75h15c.943 0 1.414 0 1.707-.293S70 73.943 70 73v-7c0-.943 0-1.414-.293-1.707S68.943 64 68 64H53c-.943 0-1.414 0-1.707.293S51 65.057 51 66v7zm23 0c0 .943 0 1.414.293 1.707S75.057 75 76 75h15c.943 0 1.414 0 1.707-.293S93 73.943 93 73v-7c0-.943 0-1.414-.293-1.707S91.943 64 91 64H76c-.943 0-1.414 0-1.707.293S74 65.057 74 66v7z" fill="#8796a1"/><rect x="1" y="1" width="118" height="90" rx="3" stroke="#ccc" stroke-width="2"/></svg>