<svg xmlns="http://www.w3.org/2000/svg" width="120" height="92" fill="none"><g fill="#fff"><rect x="1" y="1" width="118" height="90" rx="3"/><path d="M40 66h-1v1 7l-.028.964c-.198.034-.473.036-.972.036H21c-.5 0-.774-.002-.964-.028C20.002 74.774 20 74.5 20 74V17l.028-.964c.198-.034.473-.036.972-.036h78l.964.028c.034.198.036.473.036.972v48l-.028.964c-.199.034-.473.036-.972.036H40z" stroke="#8796a1" stroke-width="2"/></g><path d="M44 67c0-.943 0-1.414.293-1.707S45.057 65 46 65h15c.943 0 1.414 0 1.707.293S63 66.057 63 67v7c0 .943 0 1.414-.293 1.707S61.943 76 61 76H46c-.943 0-1.414 0-1.707-.293S44 74.943 44 74v-7zm23 0c0-.943 0-1.414.293-1.707S68.057 65 69 65h16c.943 0 1.414 0 1.707.293S87 66.057 87 67v7c0 .943 0 1.414-.293 1.707S85.943 76 85 76H69c-.943 0-1.414 0-1.707-.293S67 74.943 67 74v-7z" fill="#8796a1"/><rect x="1" y="1" width="118" height="90" rx="3" stroke="#ccc" stroke-width="2"/></svg>