<svg width="96" height="66" viewBox="0 0 96 66" fill="none" xmlns="http://www.w3.org/2000/svg">
<rect x="1" y="1" width="94" height="64" rx="2.4" fill="white"/>
<rect x="1" y="1" width="94" height="64" rx="2.4" stroke="#A3AFB7" stroke-width="1.2"/>
<mask id="path-2-outside-1_2025_7192" maskUnits="userSpaceOnUse" x="11" y="12" width="74" height="8" fill="black">
<rect fill="white" x="11" y="12" width="74" height="8"/>
<path d="M11 12H85V18.3704H11V12Z"/>
</mask>
<path d="M85 18.3704V17.7333H11V18.3704V19.0074H85V18.3704Z" fill="#B5BEC4" mask="url(#path-2-outside-1_2025_7192)"/>
<mask id="path-4-outside-2_2025_7192" maskUnits="userSpaceOnUse" x="24.6574" y="12" width="15" height="8" fill="black">
<rect fill="white" x="24.6574" y="12" width="15" height="8"/>
<path d="M24.6574 12H39.1574V18.3704H24.6574V12Z"/>
</mask>
<path d="M24.6574 12H39.1574V18.3704H24.6574V12Z" fill="#65747F"/>
<path d="M39.1574 18.3704V17.7404H24.6574V18.3704V19.0004H39.1574V18.3704Z" fill="#293035" mask="url(#path-4-outside-2_2025_7192)"/>
<path d="M40.75 12H55.25V18.3704H40.75V12Z" fill="#B5BEC4"/>
<path d="M56.8426 12H71.3426V18.3704H56.8426V12Z" fill="#B5BEC4"/>
<rect x="11" y="21.5557" width="74" height="33" fill="#E6E9EB"/>
</svg>
