<svg xmlns="http://www.w3.org/2000/svg" width="120" height="92" fill="none"><g fill="#fff"><rect x="1" y="1" width="118" height="90" rx="3"/><path d="M38 67v-1h1 60l.964-.028c.034-.199.036-.473.036-.972V17l-.028-.964C99.774 16.002 99.5 16 99 16H21l-.964.028c-.034.198-.036.473-.036.972v57l.028.964c.198.034.473.036.972.036h16l.964-.028c.034-.199.036-.473.036-.972v-7z" stroke="#8796a1" stroke-width="2"/></g><path d="M43 67c0-.943 0-1.414.293-1.707S44.057 65 45 65h15c.943 0 1.414 0 1.707.293S62 66.057 62 67v7c0 .943 0 1.414-.293 1.707S60.943 76 60 76H45c-.943 0-1.414 0-1.707-.293S43 74.943 43 74v-7zm23 0c0-.943 0-1.414.293-1.707S67.057 65 68 65h15c.943 0 1.414 0 1.707.293S85 66.057 85 67v7c0 .943 0 1.414-.293 1.707S83.943 76 83 76H68c-.943 0-1.414 0-1.707-.293S66 74.943 66 74v-7z" fill="#8796a1"/><rect x="1" y="1" width="118" height="90" rx="3" stroke="#ccc" stroke-width="2"/></svg>