<svg xmlns="http://www.w3.org/2000/svg" width="120" height="92" fill="none"><g fill="#fff"><rect x="1" y="1" width="118" height="90" rx="3"/><path d="M79 31v-1h1 18l.964-.028c.034-.198.036-.473.036-.972V17l-.028-.964C98.774 16.002 98.5 16 98 16H21l-.964.028c-.034.198-.036.473-.036.972v58l.028.964c.198.034.473.036.972.036h57l.964-.028c.034-.199.036-.473.036-.972V31z" stroke="#8796a1" stroke-width="2"/></g><path d="M98 49c.943 0 1.414 0 1.707-.293S100 47.943 100 47V37c0-.943 0-1.414-.293-1.707S98.943 35 98 35H80c-.943 0-1.414 0-1.707.293S78 36.057 78 37v10c0 .943 0 1.414.293 1.707S79.057 49 80 49h18zm0 18c.943 0 1.414 0 1.707-.293S100 65.943 100 65V55c0-.943 0-1.414-.293-1.707S98.943 53 98 53H80c-.943 0-1.414 0-1.707.293S78 54.057 78 55v10c0 .943 0 1.414.293 1.707S79.057 67 80 67h18z" fill="#8796a1"/><rect x="1" y="1" width="118" height="90" rx="3" stroke="#ccc" stroke-width="2"/></svg>