<svg xmlns="http://www.w3.org/2000/svg" width="120" height="92" fill="none"><g fill="#fff"><rect x="1" y="1" width="118" height="90" rx="3"/><path d="M79 36v-1h1 18l.964-.028c.034-.198.036-.473.036-.972V22l-.028-.964C98.774 21.002 98.5 21 98 21H80h-1v-1-3l-.028-.964C78.774 16.002 78.5 16 78 16H21l-.964.028c-.034.198-.036.473-.036.972v58l.028.964c.198.034.473.036.972.036h57l.964-.028c.034-.199.036-.473.036-.972V36z" stroke="#8796a1" stroke-width="2"/></g><path d="M98 54c.943 0 1.414 0 1.707-.293S100 52.943 100 52V42c0-.943 0-1.414-.293-1.707S98.943 40 98 40H80c-.943 0-1.414 0-1.707.293S78 41.057 78 42v10c0 .943 0 1.414.293 1.707S79.057 54 80 54h18zm0 18c.943 0 1.414 0 1.707-.293S100 70.943 100 70V60c0-.943 0-1.414-.293-1.707S98.943 58 98 58H80c-.943 0-1.414 0-1.707.293S78 59.057 78 60v10c0 .943 0 1.414.293 1.707S79.057 72 80 72h18z" fill="#8796a1"/><rect x="1" y="1" width="118" height="90" rx="3" stroke="#ccc" stroke-width="2"/></svg>