<?xml version="1.0" encoding="UTF-8"?>
<svg id="Layer_1" xmlns="http://www.w3.org/2000/svg" width="180" height="40" xmlns:xlink="http://www.w3.org/1999/xlink" version="1.1" viewBox="0 0 2012.9 450">
  <!-- Generator: Adobe Illustrator 29.8.1, SVG Export Plug-In . SVG Version: 2.1.1 Build 2)  -->
  <defs>
    <style>
      .st0 {
        fill: url(#linear-gradient);
      }

      .st1 {
        fill: #2c3333;
      }
    </style>
    <linearGradient id="linear-gradient" x1="553.9" y1="-604" x2="139" y2="-774.1" gradientTransform="translate(0 -490) scale(1 -1)" gradientUnits="userSpaceOnUse">
      <stop offset="0" stop-color="#02b18c"/>
      <stop offset="1" stop-color="#18629c"/>
    </linearGradient>
  </defs>
  <path class="st0" d="M551.7,0H15C6.7,0,0,6.7,0,15v419.9c0,8.4,6.7,15,15,15h536.7c8.4,0,15-6.7,15-15V15c0-8.4-6.7-15-15-15h0ZM498.4,136.5h-93.3v-68.3h93.3v68.3h0ZM256.6,136.5v-68.3h81.7v68.3h-81.7,0ZM68.4,381.6V68.3h121.7v119.9c0,8.4,6.7,15,15,15h293.4v178.5H68.4Z"/>
  <g>
    <path class="st1" d="M801.3,234.9c-6.8-5.2-14.4-9.6-22.8-13.1l-35.7-14.9c-7.5-3.2-13.6-7-18.5-11.3-4.9-4.3-7.3-8.5-7.3-16.8s3.4-15.3,10.1-20.9c6.7-5.6,15.7-8.4,27-8.4s16.2,1.3,25.5,4.1c9.3,2.8,17.9,6.1,25.8,10,3.2-2.8,5.8-6.4,7.9-10.8,2-4.4,3.1-8.8,3.2-13.1-7.8-3.9-17.2-7.4-28.1-10.6-10.9-3.1-21.4-4.7-34.8-4.7s-25.2,2.6-35.3,7.7c-10.1,5.1-18,12-23.6,20.8-5.6,8.7-8.4,16.4-8.4,29.2s3.7,23.2,11.1,31.5,17.4,15.1,30,20.5l36.2,15.2c8.9,3.7,15.8,8.3,20.8,13.9,4.9,5.6,7.4,11,7.4,19.6s-3.5,15.6-10.5,21c-7,5.4-18.8,8.1-29.1,8.1s-20.8-2-31.4-5.9c-10.6-3.9-20.3-8.8-29-14.6-3.1,2.5-5.9,5.9-8.5,10.3-2.5,4.3-4,8.7-4.4,13.1h-.2c9.9,7,21.2,12.4,33.9,16.5,12.6,4.1,21.1,6.1,37.6,6.1s30.2-2.6,41-7.8,18.9-12.3,24.2-21.3,8-21.5,8-30.6-2-17.2-6-24.3c-4-7.1-9.3-13.3-16.1-18.5Z"/>
    <path class="st1" d="M1052.7,302.4v-72.8c0-8.8-1.4-16.6-4.2-23.7-2.8-7.1-7-12.7-12.7-16.9-5.7-4.2-15-6.3-21.6-6.3s-13.1,1.3-19.5,3.8-12.5,5.9-18.4,10.2c-3.4,2.5-6.7,5.3-9.8,8.3-2.8-6.6-6.9-12-12.5-16.1-5.8-4.1-14.9-6.2-21.7-6.2s-13.3,1.4-19.8,4.2c-6.5,2.8-12.5,6.6-18.2,11.5-1.6,1.4-3.2,2.9-4.7,4.4-.2-5.6-1.4-10-3.6-13.3-2.4-3.7-6.7-5.5-12.8-5.5h0c0,0-11,0-11,0l-2,2.1v147.3c4.2.8,9.3,1.2,14.9,1.2s10.4-.4,14.4-1.2v-105.3c.5-.6,1-1.1,1.5-1.7,5-5.3,10.4-9.5,16.1-12.6,5.7-3.1,9.8-4.7,16.1-4.7s10.9,2.3,13.9,6.8c2.9,4.5,4.4,12.2,4.4,23h0c0-.1,0,94.4,0,94.4,4.2.8,9.3,1.2,14.9,1.2s10.5-.4,14.6-1.2v-104.2c0-.3,0-.5,0-.8.7-.8,1.3-1.5,2-2.2,5.1-5.4,10.5-9.5,16.1-12.5,5.6-2.9,9.6-4.4,15.8-4.4s10.8,2.2,13.9,6.6c3.1,4.4,4.6,12,4.6,22.8h-.1s0,78,0,78c0,6.2,1.1,10.8,3.5,14,2.4,3.1,6.4,4.7,12.1,4.7s6.9-.6,10.2-1.8,6.1-2.7,8.3-4.5c-1.8-3.4-3-7.4-3.7-12-.7-4.6-1-9.5-1-14.7Z"/>
    <path class="st1" d="M1206.1,309.5c-1.1-4.3-1.6-9.4-1.6-15.2v-61.6c0-11.4-1.9-20.8-5.9-28.2-4-7.4-9.6-12.9-16.9-16.6s-15.9-5.5-25.8-5.5-13.9.7-21.4,2c-7.4,1.3-14.6,3-21.6,5.1-7,2.1-13.2,4.4-18.7,6.8.2,3.8,1.1,7.7,2.8,11.9,1.7,4.1,3.7,7.4,6.1,9.8,8-3.2,15.9-6,24-8.3s15.9-3.5,23.7-3.5,13.9,2.1,18.3,6.3c4.4,4.2,6.6,11.2,6.6,21v12.2c-3.3-.5-6.8-.9-10.4-1.1-7.2-.5-8.4-.8-19.3-.8s-20.7,1.7-29.3,5.2c-8.6,3.4-15.4,8.8-20.4,16.1-5,7.3-7.5,16.7-7.5,28.1h0c0,7.1,1.6,14,4.8,20.8,3.2,6.7,8.1,12.3,14.6,16.7,6.5,4.4,15.9,6.6,24.6,6.6s16.6-1.7,23.6-5.2,13.2-7.6,18.5-12.4c1.3-1.2,2.6-2.4,3.9-3.6,0,.1,0,.2.1.3,1.8,4.7,4.5,8.7,8.2,12.1,3.6,3.4,8.5,5.8,14.6,7.2,2.5-1.5,4.8-3.8,7-6.8,2.1-3,3.6-5.8,4.4-8.4l-.2.3c-3.5-3.2-5.7-7-6.8-11.3ZM1162.6,306.1c-8.4,5.2-16.9,7.8-23.7,7.8s-11.9-2.2-15.5-6.6c-3.5-4.4-5.3-7.7-5.3-16.2s2.5-15,7.7-19.8c5.2-4.7,12.5-7.1,21.9-7.1s12.3.2,19.1.6c3.1.2,6.1.5,8.9.9v29c-3.9,4.6-8.3,8.5-13.1,11.5Z"/>
    <path class="st1" d="M1320,183.1c-8.6,0-15.8,1.9-21.7,5.6-5.9,3.7-10.6,8.6-14.3,14.7-1.2,2.1-2.4,4.3-3.4,6.6-1.3-4.3-3-8.2-5.1-11.8-4.7-7.8-11.8-12.8-21.4-15.1-2.3,1.6-4.5,4-6.7,7.1-2.2,3.1-3.6,6-4.3,8.7h0c2.7,2.5,5.2,6.2,7.6,11.4,2.3,5.2,3.5,11.7,3.5,19.6v103.6c4.1.8,9.1,1.2,14.7,1.2s10.5-.4,14.6-1.2v-98.4c1.9-3.7,4.1-7.3,6.6-10.6,3-3.9,6.6-7,11-9.5s9.5-3.7,15.4-3.7c2,0,4,.3,6,.4,2,.1,4,.4,5.9.8,2.5-3.9,4.3-8.4,5.4-13.7s1.7-9.9,1.7-13.9h0c-2.8-.7-5.5-1.1-8-1.4s1.1-.4-7.5-.4Z"/>
    <path class="st1" d="M1438.5,185l-37.2.6v-44.3l-2-2h-11c-6.2,0-10.3,1.5-12.5,4.5-2.1,3-3.2,7.8-3.2,14.4l.2.2v27l-22.2-.4c-.8,3.8-1.2,7-1.2,10.8s.4,7.5,1.2,11l22.2-.3v98.6c0,9.9,2.6,17.4,8,22.4,5.3,5,13,7.5,22.9,7.5s11.6-.2,17.2-.6,10.8-1,15.7-1.7c.3-.9.5-1.9.5-3v-3.3c0-5.5-.8-10.5-2.4-14.9h-21.2c-4.4,0-7.5-1.1-9.4-3.5-1.9-2.4-2.8-5.5-2.8-9.4v-92.3l37.2.5c.9-3.5,1.4-7.6,1.4-11s-.5-7-1.4-10.8h0Z"/>
    <path class="st1" d="M1597.1,143.9c0-2.6-.2-5.3-.5-8.1-.4-2.8-.9-5.3-1.6-7.5h-143.6c-.6,3-1,5.9-1.2,8.9-.3,2.9-.3,5.7-.3,8s.1,4.9.3,7.8c.2,2.9.6,5.9,1.2,8.9h0c0,.1,33.3.1,33.3.1,2.1,0,5.1,0,9.1-.2,4,0,7,0,9.1,0h0v22.1h-.3v149.6c3.3.6,6.8,1,10.4,1.1,3.6.2,7.1.2,9.9.2s6,0,9.6-.2c3.6,0,7.1-.5,10.4-1.1v-171.7h.3c2.3,0,5.3,0,9.2,0,3.8.2,6.8.2,8.9.2h14.1c7.4,0,12.9-1.4,16.4-4.1,3.5-2.7,5.3-7.4,5.3-14Z"/>
    <path class="st1" d="M1718.3,315.8v-.2c0,0,0,.1,0,.2,0,0,0,0,0,0Z"/>
    <path class="st1" d="M1711.8,306.4c-1.3-3.7-1.9-8.1-1.9-13.1v-61.3c0-12.2-2.4-21.9-7.1-29.4s-10.9-12.9-18.6-16.3c-7.7-3.4-18.9-5.1-25.5-5.1s-13.8.5-21.6,1.7c-7.8,1.1-15.5,2.7-23.2,4.7s-14.7,4.3-21,6.9c.4,5,1.4,10.1,3.2,15.3s4.1,9.4,7,12.6c7.9-2.7,15.8-5.1,23.6-7.3,7.8-2.1,15-3.2,22.2-3.2s12.7,1.8,16.4,5.5,5.6,9.4,5.6,17.2v8.1c-2.3-.2-4.7-.4-7.2-.6-6.9-.3-7.3-.5-17.9-.5s-20.3,1.8-29.2,5.4c-8.8,3.6-15.9,9.2-21.3,16.7-5.3,7.5-8,17.2-8,29h-.2c0,7.1,1.6,14.1,4.9,21,3.3,6.9,8.2,12.5,14.9,17s16.2,6.7,25.2,6.7,16.8-1.6,23.7-4.7c6.8-3.1,12.8-6.9,17.9-11.6,1.1-1,2.1-1.9,3.1-2.9,2.4,4.2,5.7,8,9.9,11.1,4.9,3.6,11.1,5.8,18.7,6.5,2.7-1.9,5.3-4.9,7.9-8.9,2.5-3.9,4.1-7.7,5-11.1-3.1-2.5-5.2-5.6-6.5-9.4ZM1663.3,300.8c-7.2,4.7-15.3,7.1-20.7,7.1s-9.5-1.7-12.5-5.1c-2.9-3.4-4.4-6-4.4-12.8s2-12.2,5.9-16.3c3.9-4.1,9.8-6.1,17.7-6.1s10.5.2,16.9.4c1.6,0,3.2.1,4.7.3v26.4c-2.4,2.3-4.9,4.4-7.6,6.1Z"/>
    <path class="st1" d="M1855,191.3c-7.8-6.5-17.6-9.7-29.4-9.7s-14.2,1.1-20.3,3.4c-6.1,2.3-11.5,5.2-16.3,8.8-.1,0-.2.2-.3.2v-57.3c0-8.8-1.7-15-5-18.7-3.3-3.7-8.9-5.5-16.7-5.5h-14.9l-2,2v211.4h0c8.2,3.1,17.2,5.6,26.9,7.4,9.7,1.8,16,2.7,29.9,2.7s26.2-3,37-9.2,19.2-15.2,25.3-27c6.1-11.9,9-26.2,9-43h0c0-14.5-2-27.5-5.9-38.8-3.9-11.4-9.7-20.2-17.5-26.7ZM1834.6,284.7c-2.4,7.5-5.8,13.1-10.4,17-4.6,3.9-9.4,5.8-16.6,5.8s-13-.8-18.9-2.3v-78.7c2.5-2.8,5.4-5.3,8.5-7.3,6.1-3.9,12.1-5.8,17.9-5.6,7,0,12.6,3.4,16.8,10.3,4.2,6.8,6.3,18.1,6.3,33.7s-1.2,19.6-3.6,27.1Z"/>
    <path class="st1" d="M2001.8,260.9c-7.3-7.5-16.7-13.2-28-17.2l-18.6-6.8c-5-1.8-8.7-3.9-11.1-6.2s-3.6-4.8-3.6-8.6,1.4-6.9,4.4-9.5c2.9-2.5,4.9-3.8,12.2-3.8s14.5,1.1,21.7,3.4,13.7,4.7,19.5,7.3c2.2-1.8,4.2-4.2,5.9-7.4,1.7-3.2,3-6.6,4-10.3.9-3.7,1.3-7.1,1.1-10.2-6.3-3.1-14.4-5.8-24.2-8.2-9.8-2.3-17-3.5-27.9-3.5s-20.6,1.9-29,5.7c-8.4,3.8-15,9.2-19.7,16.3-4.7,7.1-7.1,17.4-7.1,25.2s1.6,14.5,5,20.1c3.4,5.6,7.9,10.3,13.7,14.2s12.1,7.1,19,9.7l17.1,6.2c5.4,1.9,9.5,4.3,12.2,7.2,2.7,2.9,4.1,6.2,4.1,9.8,0,4.2-2,7.7-5.9,10.4-3.8,2.7-8.9,4.1-16.1,4.1s-14.4-1.2-21.5-3.8c-7.1-2.5-13.9-5.5-20.3-8.9-3.1,3-5.8,7.1-8.1,12.4-2.3,5.1-3.5,9.8-3.8,14.1,6.8,4,14.8,7.4,24.1,10.3,9.3,2.9,11,4.4,30,4.4s34.1-4.1,45.2-12.5c11.1-8.4,16.7-21.8,16.7-34.2s-3.6-22.2-11-29.7Z"/>
    <path class="st1" d="M1896.8,322.8c0,0,0-.2,0-.2,0,0,0,0-.1,0v.3Z"/>
  </g>
</svg>