<svg width="64" height="40" viewBox="0 0 64 40" fill="none" xmlns="http://www.w3.org/2000/svg">
<rect x="0.75" y="0.75" width="62.5" height="38.5" rx="3.25" stroke="#CCCCCC" stroke-width="1.5"/>
<path d="M24.0172 15.8131L22.9187 18.1401L20.4609 18.5145C20.0202 18.5813 19.8436 19.149 20.1632 19.4741L21.9413 21.2845L21.5208 23.8418C21.4451 24.304 21.911 24.6503 22.3013 24.4341L24.5 23.2266L26.6987 24.4341C27.089 24.6485 27.5549 24.304 27.4792 23.8418L27.0587 21.2845L28.8368 19.4741C29.1564 19.149 28.9798 18.5813 28.5391 18.5145L26.0813 18.1401L24.9828 15.8131C24.786 15.3983 24.2157 15.393 24.0172 15.8131Z" fill="#65747F"/>
<path d="M42.5 18.5H34.5C33.6716 18.5 33 19.1716 33 20C33 20.8284 33.6716 21.5 34.5 21.5H42.5C43.3284 21.5 44 20.8284 44 20C44 19.1716 43.3284 18.5 42.5 18.5Z" fill="#65747F"/>
</svg>
