<svg width="64" height="40" viewBox="0 0 64 40" fill="none" xmlns="http://www.w3.org/2000/svg">
<rect x="0.75" y="0.75" width="62.5" height="38.5" rx="3.25" stroke="#CCCCCC" stroke-width="1.5"/>
<path d="M29.5 18.5H21.5C20.6716 18.5 20 19.1716 20 20C20 20.8284 20.6716 21.5 21.5 21.5H29.5C30.3284 21.5 31 20.8284 31 20C31 19.1716 30.3284 18.5 29.5 18.5Z" fill="#65747F"/>
<path d="M39.0172 15.8131L37.9187 18.1401L35.4609 18.5145C35.0202 18.5813 34.8436 19.149 35.1632 19.4741L36.9413 21.2845L36.5208 23.8418C36.4451 24.304 36.911 24.6503 37.3013 24.4341L39.5 23.2266L41.6987 24.4341C42.089 24.6485 42.5549 24.304 42.4792 23.8418L42.0587 21.2845L43.8368 19.4741C44.1564 19.149 43.9798 18.5813 43.5391 18.5145L41.0813 18.1401L39.9828 15.8131C39.786 15.3983 39.2157 15.393 39.0172 15.8131Z" fill="#65747F"/>
</svg>
