<svg xmlns="http://www.w3.org/2000/svg" width="64" height="40" fill="none" xmlns:v="https://vecta.io/nano"><rect x=".75" y=".75" width="62.5" height="38.5" rx="3.25" stroke="#ccc" stroke-width="1.5"/><g fill="#65747f"><path d="M31.517 12.313l-1.098 2.327-2.458.374c-.441.067-.617.634-.298.96l1.778 1.81-.42 2.557c-.076.462.39.809.781.592L32 19.727l2.199 1.207c.39.214.856-.13.78-.592l-.42-2.557 1.778-1.81c.32-.325.143-.893-.298-.96l-2.458-.374-1.099-2.327a.53.53 0 0 0-.966 0z"/><rect x="21" y="25" width="22" height="3" rx="1.5"/></g></svg>