<svg xmlns="http://www.w3.org/2000/svg" width="124" height="130" fill="none"><rect x=".75" y=".75" width="122.5" height="128.5" rx="3.25" stroke="#a3afb7" stroke-width="1.5"/><rect x="15" y="15" width="45" height="50" rx="2.044" fill="#e6e9eb"/><path d="M53.168 35.3l-7.52-7.52-3.76-.627c0 2.193-1.88 4.074-4.387 4.074s-4.387-1.88-4.387-4.074l-3.76.627-7.52 7.52 5.014 5.014 2.507-2.507v15.041h16.294V37.807l2.507 2.507 5.014-5.014z" fill="#fff"/><g fill="#e6e9eb"><rect x="65" y="17" width="31" height="2" rx="1"/><rect x="65" y="21" width="7" height="1.5" rx=".75"/><rect x="65" y="25.5" width="44" height="1" rx=".5"/><rect x="65" y="28.5" width="44" height="1" rx=".5"/><rect x="65" y="31.5" width="44" height="1" rx=".5"/><rect x="65" y="34.5" width="25" height="1" rx=".5"/><circle cx="66.5" cy="41" r="1.5"/><circle cx="70.5" cy="41" r="1.5"/><circle cx="74.5" cy="41" r="1.5"/><rect x="65" y="46.5" width="9" height="3" rx=".5"/></g><mask id="A" maskUnits="userSpaceOnUse" x="15" y="72" width="94" height="9" fill="#000"><path fill="#fff" d="M15 72h94v9H15z"/><path d="M15 72h94v8H15v-8z"/></mask><path d="M109 80v-1H15v1 1h94v-1z" fill="#b5bec4" mask="url(#A)"/><mask id="B" maskUnits="userSpaceOnUse" x="15" y="72" width="19" height="9" fill="#000"><path fill="#fff" d="M15 72h19v9H15z"/><path d="M15 72.5a.5.5 0 0 1 .5-.5h18a.5.5 0 0 1 .5.5V80H15v-7.5z"/></mask><path d="M15 72.5a.5.5 0 0 1 .5-.5h18a.5.5 0 0 1 .5.5V80H15v-7.5z" fill="#576874"/><path d="M15 72h19-19zm19 9H15v-2h19v2zm-19-1v-8 8zm19-8v8-8z" fill="#293035" mask="url(#B)"/><path d="M36 72.5a.5.5 0 0 1 .5-.5h18a.5.5 0 0 1 .5.5V80H36v-7.5zm21 0a.5.5 0 0 1 .5-.5h18a.5.5 0 0 1 .5.5V80H57v-7.5z" fill="#b5bec4"/><rect x="15" y="84" width="94" height="31" rx="1" fill="#dce3e7"/></svg>