<svg width="80" height="64" viewBox="0 0 80 64" fill="none" xmlns="http://www.w3.org/2000/svg">
<rect x="0.75" y="0.75" width="78.5" height="62.5" rx="3.09615" fill="white"/>
<rect x="0.75" y="0.75" width="78.5" height="62.5" rx="3.09615" stroke="#8796A1" stroke-width="1.5"/>
<path d="M16 11C16 10.4477 16.4477 10 17 10H63C63.5523 10 64 10.4477 64 11V22C64 22.5523 63.5523 23 63 23H17C16.4477 23 16 22.5523 16 22V11Z" fill="#58707F"/>
<rect x="21.5" y="15.5" width="26" height="3" rx="1" fill="white"/>
<rect x="16.5" y="26.5" width="47" height="12" rx="0.5" fill="#F5FAFD" stroke="#9EA9B2"/>
<rect x="21.5" y="31.5" width="18" height="3" rx="1.5" fill="#9EA9B2"/>
<rect x="16.5" y="42.5" width="47" height="12" rx="0.5" fill="#F5FAFD" stroke="#9EA9B2"/>
<rect x="21.5" y="47.5" width="24" height="3" rx="1.5" fill="#9EA9B2"/>
</svg>
