<svg xmlns="http://www.w3.org/2000/svg" width="80" height="64" fill="none"><rect x=".75" y=".75" width="78.5" height="62.5" rx="3.096" fill="#fff"/><rect x=".75" y=".75" width="78.5" height="62.5" rx="3.096" stroke="#8796a1" stroke-width="1.5"/><path d="M16 16.5a6.5 6.5 0 0 1 6.5-6.5h35a6.5 6.5 0 1 1 0 13h-35a6.5 6.5 0 0 1-6.5-6.5z" fill="#58707f"/><g fill="#fff"><rect x="22" y="15.2" width="26" height="3" rx="1.5"/><rect x="16.5" y="26.5" width="47" height="12" rx="6" stroke="#9ea9b2"/></g><rect x="22" y="31.2" width="18" height="3" rx="1.5" fill="#9ea9b2"/><rect x="16.5" y="42.5" width="47" height="12" rx="6" fill="#fff" stroke="#9ea9b2"/><rect x="22" y="47" width="24" height="3" rx="1.5" fill="#9ea9b2"/></svg>