<svg xmlns="http://www.w3.org/2000/svg" width="120" height="92" fill="none"><g fill="#fff"><rect x="1" y="1" width="118" height="90" rx="3"/><path d="M82 32v-1h1 15l.964-.028c.034-.198.036-.473.036-.972V18l-.028-.964C98.774 17.002 98.5 17 98 17H21l-.964.028c-.034.198-.036.473-.036.972v57l.028.964c.198.034.473.036.972.036h60l.964-.028c.034-.199.036-.473.036-.972V32z" stroke="#8796a1" stroke-width="2"/></g><path d="M98 50c.943 0 1.414 0 1.707-.293S100 48.943 100 48V38c0-.943 0-1.414-.293-1.707S98.943 36 98 36H83c-.943 0-1.414 0-1.707.293S81 37.057 81 38v10c0 .943 0 1.414.293 1.707S82.057 50 83 50h15zm0 18c.943 0 1.414 0 1.707-.293S100 66.943 100 66V56c0-.943 0-1.414-.293-1.707S98.943 54 98 54H83c-.943 0-1.414 0-1.707.293S81 55.057 81 56v10c0 .943 0 1.414.293 1.707S82.057 68 83 68h15z" fill="#8796a1"/><rect x="1" y="1" width="118" height="90" rx="3" stroke="#ccc" stroke-width="2"/></svg>