<svg width="227" height="40" viewBox="0 0 227 40" fill="none" xmlns="http://www.w3.org/2000/svg">
<g clip-path="url(#clip0_1819_6514)">
<path d="M49.0402 0H1.33569C0.592658 0 0 0.592658 0 1.33569V38.6643C0 39.4073 0.592658 40 1.33569 40H49.0402C49.7833 40 50.3759 39.4073 50.3759 38.6643V1.33569C50.3759 0.592658 49.7833 0 49.0402 0ZM44.299 12.1362H36.0018V6.06811H44.299V12.1362ZM22.8129 12.1362V6.06811H30.0752V12.1362H22.8129ZM6.07696 33.923V6.06811H16.8952V16.7271C16.8952 17.4701 17.4878 18.0628 18.2309 18.0628H44.3078V33.9319H6.07696V33.923Z" fill="white"/>
<path d="M76.4707 19.7435C75.6215 19.0181 74.7104 18.3901 73.7285 17.8594C72.7467 17.3286 71.8356 16.7625 70.9864 16.1698C70.1372 15.5772 69.4295 14.9049 68.8634 14.153C68.2973 13.4012 68.0142 12.437 68.0142 11.2517C68.0142 10.0664 68.2531 9.42946 68.7396 8.81911C69.2261 8.21761 70.0134 7.91686 71.0925 7.91686C72.1717 7.91686 72.8174 8.15569 73.3039 8.6422C73.7904 9.12871 74.0293 9.73906 74.0293 10.4909C74.0293 11.2428 73.9408 11.4463 73.7551 11.9062C73.5693 12.3662 73.3128 12.72 72.9766 12.9589C73.5074 13.4631 74.1089 13.7196 74.79 13.7196C75.4711 13.7196 76.1168 13.4365 76.5149 12.8704C76.913 12.3043 77.1164 11.5613 77.1164 10.6413C77.1164 9.72137 76.8599 8.70412 76.3557 8.08493C75.8515 7.46573 75.25 7.00576 74.56 6.70501C73.8701 6.40425 73.1801 6.2185 72.4901 6.16542C71.8002 6.1035 71.2871 6.07697 70.951 6.07697C68.5361 6.07697 66.6255 6.6254 65.219 7.7311C63.8126 8.82796 63.1138 10.429 63.1138 12.5343C63.1138 14.6395 63.3703 14.9403 63.8922 15.8337C64.4141 16.7271 65.0686 17.5055 65.8647 18.169C66.6609 18.8324 67.5189 19.4516 68.4211 20.0177C69.3234 20.5838 70.1814 21.1942 70.9775 21.8487C71.7736 22.5033 72.4371 23.264 72.9501 24.1309C73.472 24.9978 73.7285 26.0681 73.7285 27.3242C73.7285 28.5803 73.4101 29.6329 72.782 30.1902C72.154 30.7475 71.2606 31.0217 70.1018 31.0217C68.943 31.0217 67.97 30.7475 67.2004 30.2079C66.422 29.6594 66.0417 28.766 66.0417 27.51C66.0417 26.2539 66.1478 26.3158 66.3689 25.9001C66.5901 25.4755 66.8732 25.1482 67.2181 24.9005C67.572 24.6617 67.9612 24.4936 68.3946 24.3963C68.828 24.299 69.2615 24.2548 69.7038 24.2548C69.5357 23.7948 69.3057 23.4056 69.0138 23.096C68.7219 22.7864 68.4123 22.5299 68.0673 22.3529C67.7312 22.176 67.3862 22.0434 67.0501 21.9726C66.7139 21.9018 66.3955 21.8664 66.1036 21.8664C65.5198 21.8664 64.9625 21.9903 64.4318 22.2468C63.901 22.5033 63.4322 22.8572 63.0341 23.3171C62.6361 23.7771 62.3176 24.3432 62.0877 25.0243C61.8577 25.7054 61.7427 26.4485 61.7427 27.2711C61.7427 28.5007 61.9992 29.5533 62.5034 30.4113C63.0076 31.2694 63.6799 31.9593 64.5202 32.4812C65.3517 33.0031 66.307 33.3746 67.3862 33.6046C68.4654 33.8346 69.5534 33.9496 70.6679 33.9496C71.7825 33.9496 73.0828 33.8081 74.1531 33.5338C75.2146 33.2596 76.1345 32.8085 76.913 32.1893C77.6825 31.5701 78.2929 30.7828 78.744 29.8098C79.1951 28.8456 79.4163 27.6869 79.4163 26.3246C79.4163 24.9624 79.1332 23.4144 78.5671 22.3883C78.001 21.3622 77.2933 20.4865 76.4441 19.7612L76.4707 19.7435Z" fill="white"/>
<path d="M140.283 16.0106C140.009 15.701 139.681 15.4445 139.301 15.2499C138.93 15.0553 138.505 14.958 138.054 14.958C137.275 14.958 136.568 15.2057 135.913 15.701C135.259 16.1964 134.666 16.7625 134.135 17.3906V15.1438H128.916V26.7846H128.881C128.81 27.7046 128.536 28.4653 128.067 29.0668C127.598 29.6683 127.006 29.9691 126.307 29.9691C125.608 29.9691 125.113 29.8098 124.838 29.4825C124.564 29.1553 124.423 28.483 124.423 27.4657V15.1349H119.204V16.8775C119.062 16.4441 118.85 16.0991 118.585 15.8426C118.319 15.586 118.027 15.3914 117.718 15.2588C117.399 15.1261 117.081 15.0376 116.736 15.0022C116.4 14.9668 116.081 14.9492 115.789 14.9492C114.533 14.9492 113.463 15.2676 112.578 15.9133C111.694 16.5502 110.986 17.3729 110.438 18.3636C109.898 19.3543 109.491 20.4423 109.244 21.6276C108.987 22.8129 108.863 23.9629 108.863 25.0774C108.863 26.192 108.916 26.6696 109.022 27.3684C108.969 27.6073 108.907 27.8373 108.846 28.0496C108.739 28.4388 108.598 28.7749 108.43 29.0668C108.262 29.3587 108.041 29.5799 107.775 29.7391C107.51 29.8983 107.174 29.9779 106.758 29.9779C106.006 29.9779 105.511 29.7214 105.254 29.1995C104.998 28.6776 104.874 27.8992 104.874 26.8642C104.874 25.8293 104.874 26.1654 104.892 25.7055C104.9 25.2455 104.918 24.7767 104.945 24.2902C104.971 23.8036 104.989 23.326 104.998 22.8572C105.007 22.3883 105.015 21.9903 105.015 21.6807C105.015 20.4246 104.883 19.3631 104.617 18.5051C104.352 17.6471 103.98 16.9571 103.512 16.4352C103.034 15.9133 102.494 15.5507 101.875 15.3295C101.256 15.1084 100.61 15.0022 99.9291 15.0022C99.248 15.0022 99.1861 15.0376 98.7792 15.1084C98.3811 15.1791 97.9742 15.3295 97.5762 15.5418C97.1781 15.763 96.7889 16.0726 96.4086 16.4883C96.0282 16.904 95.7009 17.4348 95.409 18.0805C94.9225 16.8687 94.2945 16.046 93.5249 15.6126C92.7553 15.1791 91.915 14.958 91.0216 14.958C90.1282 14.958 89.7213 15.0818 89.0136 15.3384C88.2971 15.5949 87.6514 16.1522 87.0764 17.0279V15.1438H81.8486V33.2773H87.0676V21.6365C87.1383 20.7165 87.3506 19.9293 87.7044 19.257C88.0583 18.5936 88.5536 18.2574 89.2082 18.2574C89.8628 18.2574 89.7832 18.337 89.9866 18.4963C90.1901 18.6555 90.3581 18.8501 90.4731 19.0801C90.597 19.3101 90.6766 19.5754 90.7297 19.8762C90.7739 20.1769 90.8004 20.4777 90.8004 20.7607V33.2773H96.0194V21.6365C96.0901 20.7431 96.2936 19.9646 96.6209 19.3012C96.9482 18.6378 97.4612 18.3017 98.16 18.3017C98.8588 18.3017 99.2038 18.6113 99.5399 19.2304C99.8761 19.8496 100.044 20.8846 100.044 22.3353C100.044 23.786 100.044 22.866 100.026 23.2818C100.018 23.6975 100.009 24.1132 100.009 24.5555C100.009 24.9978 100.009 25.4047 99.991 25.8028C99.9822 26.2008 99.9734 26.5104 99.9734 26.7316C99.9734 28.7837 100.389 30.429 101.229 31.6674C102.07 32.897 103.405 33.5162 105.228 33.5162C107.05 33.5162 106.342 33.4366 106.917 33.2773C107.483 33.1181 108.014 32.7997 108.492 32.3132C108.978 31.8266 109.412 31.1455 109.801 30.261C109.819 30.2167 109.845 30.1637 109.863 30.1194C110.164 30.7209 110.509 31.234 110.907 31.6586C111.526 32.3132 112.207 32.782 112.959 33.0739C113.711 33.3658 114.471 33.5073 115.241 33.5073C116.011 33.5073 116.47 33.41 116.966 33.2154C117.461 33.0208 117.895 32.7643 118.275 32.4547C118.647 32.1451 118.974 31.7824 119.239 31.3844C119.505 30.9863 119.735 30.5794 119.929 30.1725C120.195 31.2163 120.663 32.0301 121.327 32.6228C121.99 33.2154 122.963 33.5073 124.246 33.5073C125.528 33.5073 125.29 33.4366 125.918 33.2862C126.546 33.1446 127.165 32.835 127.766 32.3574C128.182 32.0301 128.571 31.6055 128.925 31.0925V33.2862H134.144V19.5047C134.533 19.0978 134.896 18.7528 135.25 18.4697C135.604 18.1955 135.957 18.054 136.32 18.054C136.683 18.054 136.895 18.1778 137.028 18.4166C137.16 18.6555 137.284 18.9209 137.408 19.1951C137.532 19.4693 137.7 19.7347 137.912 19.9735C138.133 20.2123 138.514 20.3362 139.071 20.3362C139.628 20.3362 140.363 20.115 140.681 19.6639C141.008 19.2128 141.168 18.7262 141.168 18.1955C141.168 17.6648 141.088 17.4259 140.929 17.0544C140.769 16.6829 140.557 16.3379 140.274 16.0195L140.283 16.0106ZM119.195 26.7758C119.195 27.3065 119.124 27.7753 118.974 28.1734C118.832 28.5714 118.638 28.9076 118.408 29.173C118.178 29.4383 117.921 29.6418 117.647 29.7745C117.373 29.9071 117.099 29.9779 116.833 29.9779C116.568 29.9779 116.347 29.9514 116.037 29.8894C115.719 29.8275 115.427 29.6329 115.152 29.3056C114.878 28.9783 114.639 28.4565 114.445 27.7488C114.25 27.0323 114.153 26.0416 114.153 24.759C114.153 23.4764 114.215 23.1225 114.33 22.238C114.454 21.3534 114.639 20.5484 114.896 19.8054C115.152 19.0712 115.489 18.452 115.913 17.9567C116.338 17.4613 116.842 17.2136 117.417 17.2136C117.992 17.2136 117.965 17.2667 118.178 17.3729C118.399 17.479 118.576 17.6117 118.726 17.7709C118.868 17.9301 118.983 18.0894 119.053 18.2397C119.124 18.399 119.177 18.5228 119.195 18.6201V26.7758Z" fill="white"/>
<path d="M150.801 29.8806C150.641 29.9425 150.429 29.9691 150.164 29.9691C149.465 29.9691 148.97 29.8099 148.695 29.4826C148.421 29.1553 148.28 28.483 148.28 27.4658V16.5856H150.456V15.1349H148.28V9.40295L143.061 10.1283V15.1349H141.902V16.5856H143.061V27.8638C143.061 29.5533 143.432 30.9156 144.184 31.9417C144.936 32.9677 146.236 33.4808 148.103 33.4808C149.969 33.4808 149.739 33.2243 150.332 32.7201C150.924 32.2159 151.216 31.4551 151.216 30.4379V30.0575C151.216 29.9248 151.207 29.801 151.181 29.6772C151.084 29.7479 150.96 29.8187 150.801 29.8806Z" fill="white"/>
<path d="M183.989 9.93368C184.582 9.36756 184.874 8.53607 184.874 7.44806C184.874 6.36004 184.839 6.6608 184.768 6.18313C184.308 6.37774 183.733 6.55465 183.043 6.70502C182.353 6.86425 181.504 6.94386 180.487 6.94386C179.469 6.94386 179.027 6.89963 178.346 6.82002C177.665 6.73156 176.984 6.6431 176.294 6.52811C175.604 6.42196 174.87 6.32466 174.082 6.2362C173.295 6.14775 172.419 6.11237 171.455 6.11237C169.474 6.11237 167.811 6.31582 166.449 6.73156C165.086 7.14731 163.981 7.71343 163.123 8.43877C162.265 9.16411 161.645 10.0221 161.256 11.0129C160.867 12.0036 160.681 13.065 160.681 14.2061C160.681 16.0195 161.106 17.2844 161.964 17.9921C162.822 18.7086 164.007 19.0624 165.529 19.0624C165.431 18.9385 165.316 18.8059 165.166 18.6466C165.024 18.4874 164.883 18.2574 164.732 17.9567C164.591 17.6559 164.458 17.2579 164.352 16.7802C164.246 16.2937 164.193 15.6568 164.193 14.8607C164.193 14.0646 164.281 13.2066 164.449 12.5078C164.617 11.809 164.918 11.2163 165.352 10.7475C165.785 10.2787 166.369 9.91599 167.094 9.65947C167.82 9.40295 168.722 9.27911 169.819 9.27911H170.181V33.2862H175.4V9.98676C176.435 10.2079 177.444 10.3937 178.408 10.5529C179.372 10.7121 180.248 10.7917 181.017 10.7917C182.397 10.7917 183.379 10.5087 183.972 9.94253L183.989 9.93368Z" fill="white"/>
<path d="M226.51 26.0327C226.342 25.272 226.094 24.3963 225.767 23.4056C225.44 22.4149 225.042 21.1853 224.573 19.7258C224.104 18.2663 223.565 16.3556 222.963 14.0115L217.744 14.7368C217.143 16.3556 216.497 17.6471 215.825 18.6201C215.152 19.5843 214.409 20.1946 213.613 20.4334C213.224 18.6466 212.543 17.2844 211.57 16.3556C210.588 15.4268 209.412 14.958 208.04 14.958C206.669 14.958 207.218 15.0288 206.811 15.1614C206.404 15.2941 205.873 15.5949 205.219 16.046L205.192 7.89032L200.009 8.61566L199.973 26.7846C199.902 27.7046 199.628 28.4653 199.159 29.0668C198.691 29.6683 198.098 29.969 197.399 29.969C196.7 29.969 196.205 29.8098 195.931 29.4825C195.657 29.1552 195.515 28.483 195.515 27.4657V15.1349H190.296V16.8775C190.155 16.4441 189.942 16.0991 189.677 15.8426C189.412 15.586 189.12 15.3914 188.81 15.2587C188.492 15.1261 188.173 15.0376 187.828 15.0022C187.492 14.9668 187.174 14.9491 186.882 14.9491C185.626 14.9491 184.555 15.2676 183.671 15.9133C182.786 16.5502 182.079 17.3729 181.53 18.3636C180.991 19.3543 180.584 20.4423 180.336 21.6276C180.079 22.8129 179.956 23.9629 179.956 25.0774C179.956 26.192 180.141 27.9699 180.522 29.0491C180.893 30.1283 181.389 30.9863 182.008 31.6409C182.627 32.2955 183.308 32.7643 184.06 33.0562C184.812 33.3481 185.573 33.4896 186.342 33.4896C187.112 33.4896 187.572 33.3923 188.067 33.1977C188.562 33.0031 188.996 32.7466 189.376 32.437C189.748 32.1274 190.075 31.7647 190.34 31.3667C190.606 30.9686 190.836 30.5617 191.03 30.1548C191.296 31.1986 191.764 32.0124 192.428 32.6051C193.091 33.1977 194.064 33.4896 195.347 33.4896C196.63 33.4896 196.382 33.4188 197.019 33.2685C197.647 33.1269 198.266 32.8173 198.868 32.3397C199.451 31.8886 199.973 31.234 200.451 30.4025C200.69 30.9863 201.026 31.5082 201.468 31.9593C202.45 32.9766 203.963 33.4808 206.024 33.4808C208.085 33.4808 208.969 33.1712 209.995 32.5343C211.021 31.9062 211.835 31.1013 212.428 30.1194C213.021 29.1376 213.427 28.0672 213.64 26.8908C213.861 25.7143 213.967 24.5997 213.967 23.5383C213.967 22.4768 213.967 23.0694 213.949 22.8483C213.941 22.6272 213.923 22.4149 213.896 22.1937C215.851 21.4242 217.39 19.7966 218.505 17.3375C218.991 19.0535 219.425 20.4511 219.814 21.5303C220.203 22.6095 220.531 23.5294 220.796 24.3078C221.061 25.0863 221.265 25.7851 221.397 26.4308C221.53 27.0677 221.601 27.793 221.601 28.5891C221.601 29.3852 221.459 29.8629 221.167 30.1637C220.876 30.4644 220.433 30.6148 219.823 30.6148C219.213 30.6148 218.549 30.3759 218.098 29.8894C217.647 29.4029 217.328 28.7395 217.134 27.8992C217.258 28.0938 217.417 28.2176 217.62 28.2795C217.824 28.3414 218.027 28.368 218.222 28.368C218.629 28.368 218.974 28.2353 219.239 27.9699C219.504 27.7046 219.637 27.3773 219.637 26.9881C219.637 25.8027 218.885 25.2101 217.39 25.2101C215.895 25.2101 216.4 25.4489 216.01 25.9177C215.621 26.3866 215.427 27.0323 215.427 27.8549C215.427 28.6776 215.55 29.3145 215.789 29.9956C216.028 30.6767 216.4 31.2694 216.895 31.7913C217.39 32.3131 218.018 32.72 218.797 33.0208C219.566 33.3215 220.495 33.4719 221.583 33.4719C222.671 33.4719 222.875 33.3835 223.503 33.2154C224.131 33.0473 224.688 32.7643 225.183 32.3839C225.679 31.9947 226.077 31.4993 226.377 30.8801C226.678 30.261 226.829 29.5002 226.829 28.5803C226.829 27.6603 226.74 26.7846 226.572 26.0239L226.51 26.0327ZM190.278 26.7758C190.278 27.3065 190.208 27.7753 190.057 28.1734C189.916 28.5714 189.721 28.9076 189.491 29.1729C189.261 29.4383 189.005 29.6418 188.73 29.7744C188.456 29.9071 188.182 29.9779 187.917 29.9779C187.651 29.9779 187.43 29.9514 187.121 29.8894C186.802 29.8275 186.51 29.6329 186.236 29.3056C185.962 28.9783 185.723 28.4564 185.528 27.7488C185.334 27.0323 185.236 26.0416 185.236 24.759C185.236 23.4763 185.298 23.1225 185.422 22.238C185.546 21.3534 185.732 20.5484 185.988 19.8054C186.245 19.0712 186.581 18.452 187.006 17.9567C187.43 17.4613 187.934 17.2136 188.509 17.2136C189.084 17.2136 189.058 17.2667 189.27 17.3728C189.482 17.479 189.668 17.6117 189.818 17.7709C189.96 17.9301 190.075 18.0893 190.146 18.2397C190.217 18.3989 190.27 18.5228 190.287 18.6201V26.7758H190.278ZM210.04 25.9974C209.942 26.7138 209.774 27.3596 209.544 27.9522C209.314 28.5449 208.987 29.0314 208.58 29.4029C208.164 29.7744 207.642 29.969 207.006 29.969C206.369 29.969 206.033 29.8098 205.688 29.4825C205.343 29.1552 205.174 28.6068 205.174 27.8284V18.2574C205.369 18.0363 205.661 17.8771 206.05 17.7709C206.439 17.6648 206.784 17.6117 207.076 17.6117C207.563 17.6117 208.014 17.7709 208.412 18.0982C208.81 18.4255 209.146 18.8943 209.42 19.4958C209.226 19.7612 209.128 20.115 209.128 20.5484C209.128 21.5657 209.456 22.2291 210.11 22.5387C210.137 22.7598 210.155 22.9721 210.163 23.1933C210.172 23.4144 210.181 23.6444 210.181 23.8832C210.181 24.582 210.128 25.2897 210.031 26.0062L210.04 25.9974Z" fill="white"/>
</g>
<defs>
<clipPath id="clip0_1819_6514">
<rect width="226.758" height="40" fill="white"/>
</clipPath>
</defs>
</svg>
