<svg width="100" height="100" viewBox="0 0 100 100" fill="none" xmlns="http://www.w3.org/2000/svg">
<g clip-path="url(#clip0_1819_6535)">
<path d="M97.35 10.3H2.65C1.18 10.3 0 11.48 0 12.95V87.06C0 88.53 1.18 89.71 2.65 89.71H97.36C98.83 89.71 100.01 88.53 100.01 87.06V12.94C100.01 11.47 98.83 10.29 97.36 10.29L97.35 10.3ZM87.94 34.4H71.47V22.35H87.94V34.4ZM45.29 34.4V22.35H59.7V34.4H45.29ZM12.06 77.65V22.35H33.53V43.51C33.53 44.98 34.71 46.16 36.18 46.16H87.94V77.66H12.06V77.65Z" fill="url(#paint0_linear_1819_6535)"/>
</g>
<defs>
<linearGradient id="paint0_linear_1819_6535" x1="97.75" y1="30.42" x2="24.54" y2="60.45" gradientUnits="userSpaceOnUse">
<stop stop-color="#02B18C"/>
<stop offset="1" stop-color="#18629C"/>
</linearGradient>
<clipPath id="clip0_1819_6535">
<rect width="100" height="100" fill="white"/>
</clipPath>
</defs>
</svg>
