<svg xmlns="http://www.w3.org/2000/svg" width="875" height="160" fill="none" xmlns:v="https://vecta.io/nano"><g clip-path="url(#A)" fill="#fff"><path d="M196.247 0H5.42C2.469 0 .087 2.382.087 5.333v149.298a5.3 5.3 0 0 0 5.333 5.333h190.827c2.986 0 5.333-2.382 5.333-5.333V5.333A5.3 5.3 0 0 0 196.247 0zm-18.951 48.533h-33.174V24.249h33.174v24.284zm-85.974 0V24.249h29.049v24.284H91.322zM24.407 135.68V24.284h43.271v42.631a5.3 5.3 0 0 0 5.333 5.333h104.32v63.467H24.407v-.036zM299.82 84.622c-3.2-2.453-6.791-4.516-10.773-6.187l-16.96-7.04c-3.556-1.529-6.507-3.307-8.782-5.333-2.311-2.027-3.449-4.693-3.449-7.964s1.6-7.253 4.764-9.885c3.165-2.667 7.467-3.982 12.8-3.982s7.68.64 12.054 1.956 8.462 2.88 12.195 4.729c1.529-1.316 2.774-3.022 3.734-5.12s1.493-4.16 1.528-6.187c-3.697-1.849-8.142-3.52-13.297-5.013-5.191-1.493-10.667-2.24-16.534-2.24s-11.946 1.209-16.746 3.627-8.534 5.724-11.165 9.849c-2.666 4.16-3.982 8.782-3.982 13.867s1.742 10.987 5.262 14.933c3.52 3.911 8.249 7.147 14.258 9.707L281.9 91.52c4.231 1.742 7.503 3.947 9.849 6.578s3.52 5.724 3.52 9.28-1.671 7.395-4.978 9.955-7.928 3.84-13.831 3.84-9.849-.924-14.897-2.773-9.6-4.16-13.76-6.898c-1.458 1.173-2.809 2.809-4.018 4.871s-1.92 4.125-2.098 6.222c4.693 3.272 10.062 5.867 16.071 7.787s11.947 2.88 17.849 2.88 14.329-1.244 19.449-3.698 8.96-5.831 11.449-10.097c2.524-4.267 3.769-9.103 3.769-14.543s-.96-8.177-2.845-11.52c-1.884-3.378-4.444-6.293-7.644-8.747l.035-.036zm119.147 32.036V82.133c0-4.124-.676-7.858-1.991-11.2s-3.342-6.009-6.009-8-6.08-2.987-10.205-2.987-6.222.604-9.244 1.778-5.938 2.809-8.711 4.836c-1.636 1.209-3.2 2.524-4.693 3.911-1.316-3.164-3.307-5.689-5.903-7.573-2.737-1.956-6.151-2.951-10.275-2.951s-6.294.675-9.351 1.991-5.938 3.129-8.605 5.44a45.37 45.37 0 0 0-2.346 2.169c-.107-2.702-.676-4.836-1.672-6.365-1.137-1.742-3.164-2.596-6.044-2.596h-5.191l-.925.995v69.867c1.992.391 4.338.569 7.04.569s4.943-.178 6.827-.569V81.6c.249-.284.498-.569.782-.853 2.383-2.524 4.907-4.516 7.609-5.973s5.262-2.204 7.609-2.204 5.191 1.067 6.578 3.2 2.098 5.76 2.098 10.88v44.8c1.991.391 4.337.569 7.04.569s4.942-.178 6.898-.569V82.027 81.6l.924-1.031c2.418-2.524 4.942-4.516 7.609-5.902s5.155-2.098 7.467-2.098 5.155 1.031 6.577 3.129c1.458 2.098 2.169 5.689 2.169 10.809v36.942c0 2.951.569 5.156 1.671 6.649s3.022 2.24 5.725 2.24 3.271-.285 4.835-.853 2.88-1.28 3.911-2.134c-.853-1.6-1.422-3.52-1.742-5.689s-.462-4.515-.462-6.969v-.035zm72.747 3.271c-.498-2.027-.747-4.444-.747-7.182V83.556c0-5.404-.925-9.884-2.809-13.369-1.884-3.52-4.551-6.151-8-7.858-3.449-1.742-7.538-2.596-12.231-2.596s-6.613.32-10.133.924a84.37 84.37 0 0 0-10.24 2.418c-3.307.996-6.258 2.062-8.854 3.2.107 1.813.534 3.698 1.316 5.653s1.742 3.52 2.88 4.658c3.733-1.529 7.538-2.809 11.342-3.911s7.573-1.636 11.2-1.636 6.613.996 8.676 2.987c2.097 1.991 3.128 5.333 3.128 9.956v5.796c-1.564-.249-3.199-.427-4.871-.533a124.89 124.89 0 0 0-9.137-.356c-5.192 0-9.814.818-13.903 2.453s-7.324 4.196-9.671 7.644c-2.382 3.449-3.555 7.893-3.555 13.298s.746 6.648 2.275 9.848 3.805 5.867 6.898 7.929c3.093 2.098 6.969 3.129 11.662 3.129s7.858-.818 11.165-2.453 6.258-3.591 8.746-5.867a43.14 43.14 0 0 0 1.814-1.706v.071c.853 2.204 2.133 4.124 3.875 5.724s4.054 2.738 6.934 3.413c1.173-.711 2.275-1.777 3.306-3.2s1.707-2.737 2.098-3.982c-1.671-1.529-2.738-3.306-3.236-5.333l.072.071zm-20.658-1.493c-3.947 2.453-7.716 3.697-11.2 3.697s-5.689-1.031-7.36-3.128-2.525-4.658-2.525-7.68 1.209-7.112 3.663-9.352 5.902-3.377 10.346-3.377 5.831.107 9.031.284c1.458.071 2.88.213 4.196.391v13.796c-1.849 2.169-3.876 3.982-6.151 5.369zm74.595-58.24c-4.089 0-7.502.889-10.275 2.631s-5.049 4.089-6.756 6.969c-.604.996-1.138 2.027-1.635 3.093-.605-2.062-1.423-3.947-2.454-5.618-2.204-3.662-5.582-6.08-10.133-7.147-1.102.747-2.133 1.885-3.165 3.342s-1.706 2.844-2.026 4.124c1.28 1.138 2.489 2.915 3.591 5.369s1.671 5.547 1.671 9.28v49.138c1.956.391 4.267.569 6.969.569s4.942-.178 6.898-.569V84.765c.889-1.778 1.92-3.449 3.129-5.013 1.422-1.849 3.164-3.342 5.226-4.516s4.48-1.742 7.289-1.742c.96.036 1.885.107 2.845.178a22.58 22.58 0 0 1 2.773.391c1.173-1.849 2.027-4.018 2.56-6.507s.782-4.693.782-6.578c-1.315-.284-2.595-.498-3.769-.604a39.65 39.65 0 0 0-3.555-.178h.035zm38.507 1.137V40.249l-.924-.924h-5.191c-2.952 0-4.943.711-5.938 2.133-1.031 1.422-1.529 3.698-1.529 6.827v12.942l-10.382-.213c-.391 1.813-.569 3.52-.569 5.12s.178 3.52.569 5.191l10.382-.142v46.649c0 4.693 1.28 8.249 3.804 10.596 2.525 2.382 6.151 3.555 10.845 3.555s5.511-.106 8.142-.284 5.12-.462 7.431-.782c.142-.427.213-.889.249-1.423v-1.564c0-2.596-.391-4.942-1.138-7.04h-10.026c-2.098 0-3.556-.569-4.445-1.671s-1.315-2.596-1.315-4.445V71.111l17.671.213c.426-1.671.64-3.378.64-5.191s-.214-3.307-.64-5.12l-17.671.284.035.036zm92.871-19.768a28.56 28.56 0 0 0-.249-3.84c-.178-1.316-.426-2.524-.746-3.556h-68.089a35.42 35.42 0 0 0-.569 4.231l-.142 3.804.142 3.698a34.85 34.85 0 0 0 .569 4.196h15.822l4.302-.071 4.302-.071h.072v5.298 5.227 70.933a35.62 35.62 0 0 0 4.906.534l4.694.106 4.551-.106a35.62 35.62 0 0 0 4.906-.534V60.48l-.035-5.227v-5.298h.071l4.373.071 4.231.071h6.685c3.52 0 6.115-.64 7.751-1.92 1.671-1.28 2.489-3.484 2.489-6.613h-.036zm54.365 76.906c-.605-1.778-.889-3.84-.889-6.222V83.2c0-5.76-1.103-10.382-3.343-13.938-2.24-3.52-5.191-6.116-8.817-7.716-3.663-1.6-7.68-2.418-12.089-2.418s-6.542.285-10.24.818-7.36 1.28-10.987 2.24-6.933 2.027-9.92 3.271c.178 2.382.711 4.8 1.529 7.253s1.92 4.48 3.307 5.973c3.733-1.28 7.466-2.418 11.164-3.449s7.218-1.529 10.524-1.529 6.009.853 7.752 2.596 2.631 4.445 2.631 8.142v3.911c-1.067-.107-2.169-.213-3.307-.249a159.89 159.89 0 0 0-8.498-.249c-5.049 0-9.635.853-13.866 2.56-4.196 1.707-7.574 4.338-10.098 7.893s-3.805 8.142-3.805 13.76.783 6.756 2.311 9.991 3.876 5.938 7.041 8.036 7.146 3.164 11.911 3.164 7.964-.746 11.2-2.204 6.08-3.307 8.497-5.511l1.423-1.351c1.137 1.991 2.702 3.697 4.657 5.155 2.312 1.707 5.263 2.738 8.854 3.058 1.28-.889 2.524-2.311 3.733-4.196s1.991-3.662 2.382-5.333c-1.458-1.173-2.489-2.667-3.093-4.444l.036.035zm-32.712.818c-2.56 0-4.551-.818-5.937-2.418s-2.098-3.627-2.098-6.044.924-5.796 2.773-7.716 4.658-2.88 8.391-2.88 4.978.071 8 .178c.747 0 1.458.071 2.169.142v12.587c-1.102 1.066-2.275 2.026-3.52 2.844-3.378 2.24-6.649 3.342-9.778 3.342v-.035zM799.233 64c-3.662-3.058-8.32-4.587-13.937-4.587s-6.72.533-9.6 1.6-5.476 2.453-7.716 4.16c-.071.036-.107.107-.178.142v-27.2c0-4.16-.782-7.147-2.346-8.853-1.565-1.742-4.196-2.596-7.894-2.596h-7.04l-.924.925v100.267c3.875 1.458 8.142 2.631 12.729 3.484s9.315 1.28 14.186 1.28 12.445-1.457 17.565-4.373c5.084-2.916 9.102-7.182 11.982-12.764 2.88-5.618 4.302-12.374 4.267-20.374 0-6.933-.925-13.084-2.774-18.453s-4.622-9.564-8.284-12.622l-.036-.035zm-9.635 44.302c-1.138 3.52-2.773 6.223-4.942 8.036s-4.8 2.738-7.858 2.738-6.151-.391-8.96-1.103V80.676c1.209-1.351 2.56-2.524 4.053-3.484 2.88-1.849 5.725-2.738 8.462-2.631 3.307 0 5.974 1.635 7.965 4.871s2.987 8.569 2.987 16-.569 9.316-1.707 12.836v.035zm79.289-11.164c-3.485-3.52-7.929-6.258-13.298-8.142l-8.818-3.2c-2.382-.853-4.124-1.813-5.262-2.916a5.42 5.42 0 0 1-1.707-4.053c0-1.6.712-3.307 2.098-4.516s3.342-1.813 5.796-1.813 6.898.533 10.275 1.6 6.471 2.204 9.209 3.449c1.031-.853 1.956-2.027 2.774-3.52s1.422-3.129 1.884-4.871.64-3.378.533-4.836c-2.986-1.458-6.826-2.773-11.449-3.876-4.657-1.102-9.066-1.671-13.226-1.671s-9.742.889-13.76 2.702c-3.982 1.813-7.111 4.373-9.316 7.715-2.24 3.342-3.342 7.325-3.342 11.911s.782 6.898 2.382 9.529c1.6 2.667 3.734 4.907 6.471 6.72s5.725 3.342 8.996 4.587l8.107 2.915c2.56.889 4.48 2.027 5.76 3.414s1.92 2.915 1.92 4.622c-.036 1.991-.996 3.627-2.809 4.907s-4.374 1.92-7.645 1.92-6.826-.605-10.169-1.814c-3.377-1.209-6.577-2.631-9.6-4.231-1.457 1.422-2.738 3.378-3.84 5.867s-1.671 4.764-1.778 6.791c3.236 1.884 7.041 3.52 11.449 4.907s9.174 2.062 14.258 2.062c9.031 0 16.178-1.991 21.44-5.938s7.894-9.351 7.894-16.213-1.743-10.525-5.227-14.08v.071z"/></g><defs><clipPath id="A"><path fill="#fff" transform="translate(.087)" d="M0 0h874.027v160H0z"/></clipPath></defs></svg>