<svg xmlns="http://www.w3.org/2000/svg" width="80" height="64" fill="none"><rect x=".75" y=".75" width="78.5" height="62.5" rx="1.65" fill="#fff"/><rect x=".75" y=".75" width="78.5" height="62.5" rx="1.65" stroke="#ccc" stroke-width="1.5"/><mask id="A" maskUnits="userSpaceOnUse" x="11.333" y="10.5" width="58" height="8" fill="#000"><path fill="#fff" d="M11.333 10.5h58v8h-58z"/><path d="M11.333 10.5h57.333v6.37H11.333V10.5z"/></mask><path d="M68.667 16.87v-.637H11.333v.637.637h57.333v-.637z" fill="#b5bec4" mask="url(#A)"/><mask id="B" maskUnits="userSpaceOnUse" x="11.333" y="10.5" width="15" height="8" fill="#000"><path fill="#fff" d="M11.333 10.5h15v8h-15z"/><path d="M11.333 10.5h14.5v6.37h-14.5V10.5z"/></mask><use href="#D" fill="#65747f"/><path d="M25.833 16.87v-.796h-14.5v.796.796h14.5v-.796z" fill="#293035" mask="url(#B)"/><g fill="#b5bec4"><use href="#D" x="21.417"/><use href="#D" x="42.834"/></g><path fill="#e6e9eb" d="M11.333 20.056h57.333V53.5H11.333z"/><defs ><path id="D" d="M11.333 10.5h14.5v6.37h-14.5V10.5z"/></defs></svg>