<svg xmlns="http://www.w3.org/2000/svg" width="579" height="45" fill="none" xmlns:v="https://vecta.io/nano"><style><![CDATA[.B{fill:#2c3333}.C{stroke:#a3b1b9}.D{opacity:.5}.E{fill:#e8ecef}.F{stroke-width:1.174}.G{stroke:#2c3333}.H{stroke-width:1.094}.I{stroke-miterlimit:10}.J{stroke-linejoin:round}]]></style><rect x=".5" y=".5" width="577.281" height="44" rx="1.5" class="C"/><g class="D"><use href="#F" class="E"/><use href="#F" class="C F"/><g clip-path="url(#B)"><mask id="A" maskUnits="userSpaceOnUse" x="15" y="15" width="15" height="15"><path d="M15.961 15.5h14v14h-14v-14z" fill="#fff"/></mask><g mask="url(#A)" class="G H I J"><path d="M29.414 27.878H18.658v-8.604h10.755v8.604z"/><path d="M27.263 19.273v-2.151H16.507v8.604h2.151m0 2.152l4.302-4.302 4.302 4.302" stroke-linecap="round"/><path d="M27.247 22.469a1.06 1.06 0 0 1-1.06 1.06 1.06 1.06 0 0 1-1.06-1.06 1.06 1.06 0 0 1 1.06-1.06 1.06 1.06 0 0 1 1.06 1.06z"/></g></g><path d="M37.202 17.595V26.5h-1.535v-8.905h1.535zm3.236 3.633V26.5h-1.474v-6.618h1.388l.086 1.346zm-.239 1.719l-.502-.006c0-.457.057-.879.171-1.266a3.04 3.04 0 0 1 .502-1.009c.22-.29.493-.512.82-.667s.712-.239 1.144-.239a2.42 2.42 0 0 1 .826.135c.253.086.471.222.655.41a1.81 1.81 0 0 1 .428.722c.102.294.153.648.153 1.064v4.41h-1.474v-4.282c0-.322-.049-.575-.147-.758s-.23-.314-.41-.391-.385-.122-.63-.122a1.47 1.47 0 0 0-.709.159c-.192.106-.349.251-.471.434s-.212.396-.269.636-.086.498-.086.771zm4.104-.392l-.691.153c0-.4.055-.777.165-1.132s.279-.673.495-.942.491-.487.814-.642.691-.232 1.107-.232c.338 0 .64.047.905.141a1.66 1.66 0 0 1 .685.428c.188.196.33.451.428.764s.147.685.147 1.125V26.5h-1.48v-4.288c0-.334-.049-.593-.147-.777a.76.76 0 0 0-.404-.379c-.175-.073-.385-.11-.63-.11-.228 0-.43.043-.605.128a1.2 1.2 0 0 0-.434.349c-.118.147-.208.316-.269.508s-.086.4-.086.624zm9.303 2.618v-3.156c0-.236-.043-.44-.129-.612a.9.9 0 0 0-.391-.398c-.171-.094-.387-.141-.648-.141-.241 0-.449.041-.624.122a1.01 1.01 0 0 0-.41.33c-.098.139-.147.296-.147.471H49.79c0-.261.063-.514.19-.758s.31-.463.55-.654a2.75 2.75 0 0 1 .862-.453c.334-.11.709-.165 1.125-.165.497 0 .938.084 1.321.251s.691.42.911.758.336.754.336 1.26v2.942c0 .302.02.573.061.814a2.63 2.63 0 0 0 .19.618v.098h-1.511c-.069-.159-.124-.361-.165-.605s-.055-.489-.055-.722zm.214-2.697l.012.911h-1.058a2.94 2.94 0 0 0-.722.079c-.208.049-.381.122-.52.22s-.243.216-.312.355a1.04 1.04 0 0 0-.104.471.98.98 0 0 0 .122.483c.081.143.2.255.355.336s.351.122.575.122c.302 0 .565-.061.789-.183s.408-.279.538-.459.2-.357.208-.52l.477.654a2.24 2.24 0 0 1-.251.538 2.61 2.61 0 0 1-.465.55 2.31 2.31 0 0 1-.679.422c-.261.11-.563.165-.905.165-.432 0-.818-.086-1.156-.257s-.603-.41-.795-.703-.288-.634-.288-1.009c0-.351.065-.661.196-.93s.33-.502.587-.685.579-.322.954-.416.803-.147 1.284-.147h1.156zm7.046-2.593h1.34v6.434c0 .595-.126 1.101-.379 1.517s-.605.732-1.058.948-.977.33-1.572.33c-.253 0-.534-.037-.844-.11a3.46 3.46 0 0 1-.893-.355c-.285-.159-.524-.369-.716-.63l.691-.869c.236.281.497.487.783.618a2.14 2.14 0 0 0 .899.196c.339 0 .626-.063.862-.19a1.28 1.28 0 0 0 .557-.544c.13-.24.196-.534.196-.881v-4.966l.135-1.498zm-4.495 3.382v-.128c0-.502.061-.958.183-1.37a3.24 3.24 0 0 1 .526-1.07c.228-.302.506-.532.832-.691s.695-.245 1.107-.245c.428 0 .793.077 1.095.232s.561.377.765.667a3.32 3.32 0 0 1 .477 1.027 7.8 7.8 0 0 1 .263 1.321v.41c-.053.473-.143.905-.269 1.297s-.294.73-.502 1.015a2.14 2.14 0 0 1-.771.661c-.302.155-.659.232-1.07.232-.404 0-.769-.084-1.095-.251s-.599-.402-.832-.703a3.33 3.33 0 0 1-.526-1.064c-.122-.412-.183-.858-.183-1.34zm1.474-.128v.128c0 .302.029.583.086.844s.153.491.275.691a1.44 1.44 0 0 0 .477.465c.196.11.426.165.691.165.347 0 .63-.073.85-.22s.395-.344.514-.593.208-.534.257-.844v-1.107a2.71 2.71 0 0 0-.153-.673 1.8 1.8 0 0 0-.3-.544 1.25 1.25 0 0 0-.477-.367c-.192-.09-.418-.135-.679-.135s-.495.057-.691.171-.357.271-.483.471-.214.432-.275.697-.092.549-.092.85zm8.808 3.486a3.53 3.53 0 0 1-1.327-.238 2.93 2.93 0 0 1-1.003-.679 3.01 3.01 0 0 1-.63-1.021c-.147-.391-.22-.813-.22-1.266v-.245c0-.518.075-.987.226-1.407s.361-.779.63-1.076.587-.532.954-.691.765-.239 1.193-.239c.473 0 .887.08 1.242.239s.648.383.881.673.412.626.526 1.021.177.832.177 1.309v.63h-5.113v-1.058h3.658v-.116a2.07 2.07 0 0 0-.159-.746 1.27 1.27 0 0 0-.434-.563c-.196-.143-.457-.214-.783-.214a1.33 1.33 0 0 0-.654.159c-.188.102-.345.251-.471.447s-.224.432-.294.709a3.99 3.99 0 0 0-.098.924v.245a2.7 2.7 0 0 0 .116.807 1.93 1.93 0 0 0 .355.642c.155.183.343.328.563.434s.471.153.752.153c.355 0 .671-.071.948-.214s.518-.344.722-.605l.777.752c-.143.208-.328.408-.557.599s-.508.34-.838.459-.705.177-1.138.177zm13.902-4.673v3.401c-.126.167-.324.351-.593.55s-.618.365-1.058.508-.989.214-1.645.214c-.559 0-1.07-.094-1.535-.281s-.867-.471-1.205-.838-.593-.813-.777-1.34-.275-1.133-.275-1.81v-.618c0-.673.084-1.272.251-1.798s.416-.979.734-1.346a3.07 3.07 0 0 1 1.15-.832c.453-.192.964-.287 1.535-.287.73 0 1.333.122 1.811.367s.852.575 1.113 1.003.426.917.495 1.468h-1.505a2.37 2.37 0 0 0-.287-.832c-.139-.245-.338-.436-.599-.575s-.591-.214-1.003-.214c-.355 0-.667.067-.936.202a1.77 1.77 0 0 0-.673.593c-.175.261-.308.579-.398.954s-.135.803-.135 1.284v.63c0 .489.051.924.153 1.303s.257.699.453.96a1.96 1.96 0 0 0 .728.593c.285.131.608.196.966.196.351 0 .638-.029.862-.086s.402-.133.532-.214.239-.167.312-.245v-1.768h-1.853v-1.144h3.382zm5.285 3.223v-3.156c0-.236-.043-.44-.128-.612a.9.9 0 0 0-.392-.398c-.171-.094-.387-.141-.648-.141-.241 0-.449.041-.624.122a1.01 1.01 0 0 0-.41.33c-.098.139-.147.296-.147.471h-1.468c0-.261.063-.514.19-.758s.31-.463.55-.654a2.75 2.75 0 0 1 .862-.453c.334-.11.709-.165 1.125-.165.498 0 .938.084 1.321.251a2.01 2.01 0 0 1 .911.758c.224.334.336.754.336 1.26v2.942c0 .302.02.573.061.814a2.62 2.62 0 0 0 .19.618v.098H86.06c-.069-.159-.124-.361-.165-.605s-.055-.489-.055-.722zm.214-2.697l.012.911h-1.058c-.273 0-.514.026-.722.079a1.48 1.48 0 0 0-.52.22c-.139.098-.243.216-.312.355s-.104.296-.104.471a.98.98 0 0 0 .122.483c.082.143.2.255.355.336s.351.122.575.122c.302 0 .565-.061.789-.183s.408-.279.538-.459.2-.357.208-.52l.477.654a2.24 2.24 0 0 1-.251.538 2.61 2.61 0 0 1-.465.55 2.31 2.31 0 0 1-.679.422c-.261.11-.563.165-.905.165-.432 0-.817-.086-1.156-.257s-.603-.41-.795-.703-.288-.634-.288-1.009c0-.351.065-.661.196-.93a1.82 1.82 0 0 1 .587-.685c.261-.183.579-.322.954-.416s.803-.147 1.284-.147h1.156zm4.385-5.37V26.5h-1.48v-9.395h1.48zm3.193 0V26.5h-1.48v-9.395h1.48zm4.532 9.517a3.53 3.53 0 0 1-1.327-.238 2.93 2.93 0 0 1-1.003-.679 3.01 3.01 0 0 1-.63-1.021c-.147-.391-.22-.813-.22-1.266v-.245c0-.518.075-.987.226-1.407s.361-.779.63-1.076.587-.532.954-.691.765-.239 1.193-.239c.473 0 .887.08 1.242.239s.648.383.881.673.412.626.526 1.021.177.832.177 1.309v.63h-5.113v-1.058h3.658v-.116a2.07 2.07 0 0 0-.159-.746 1.27 1.27 0 0 0-.434-.563c-.196-.143-.457-.214-.783-.214a1.33 1.33 0 0 0-.654.159c-.188.102-.345.251-.471.447s-.224.432-.294.709a3.99 3.99 0 0 0-.098.924v.245a2.7 2.7 0 0 0 .116.807 1.93 1.93 0 0 0 .355.642c.155.183.342.328.563.434s.471.153.752.153c.355 0 .671-.071.948-.214s.518-.344.722-.605l.776.752a3.01 3.01 0 0 1-.556.599c-.229.188-.508.34-.838.459s-.706.177-1.138.177zm5.279-5.48V26.5h-1.475v-6.618h1.407l.068 1.26zm2.024-1.303l-.012 1.37a2.92 2.92 0 0 0-.294-.037l-.306-.012c-.252 0-.475.037-.666.11a1.25 1.25 0 0 0-.483.306c-.127.131-.225.29-.294.477s-.11.398-.122.63l-.337.024a5.13 5.13 0 0 1 .123-1.156c.081-.355.203-.667.367-.936s.375-.479.623-.63.545-.226.875-.226a1.83 1.83 0 0 1 .288.024 1.22 1.22 0 0 1 .238.055zm2.954 5.939l1.798-5.896h1.578l-2.654 7.627c-.061.163-.141.34-.239.532s-.226.373-.385.544-.349.316-.581.422-.514.165-.844.165c-.13 0-.257-.012-.379-.037l-.337-.067-.006-1.125.147.012.147.006c.245 0 .448-.031.611-.092s.296-.151.398-.281.196-.306.269-.526l.477-1.284zm-1.015-5.896l1.572 4.954.263 1.554-1.022.263-2.403-6.771h1.59z" class="B"/></g><g class="D"><rect x="128.706" y="5.692" width="73.058" height="33.615" rx=".979" class="E"/><rect x="128.706" y="5.692" width="73.058" height="33.615" rx=".979" class="C F"/><circle cx="146.386" cy="22.5" r="5.709" stroke-width="1.37" class="G"/><g class="B"><path d="M149.012 21.907c.457.264.457.923 0 1.186l-3.425 1.977c-.457.264-1.028-.066-1.028-.593v-3.955c0-.527.571-.857 1.028-.593l3.425 1.977zm13.336 2.966l2.342-7.278h1.694l-3.192 8.905h-1.144l.3-1.627zm-2.166-7.278l2.325 7.278.318 1.627h-1.15l-3.181-8.905h1.688zm8.631 2.288V26.5h-1.481v-6.618h1.481zm-1.578-1.737a.75.75 0 0 1 .22-.556c.147-.146.359-.226.624-.226s.467.075.617.226.227.332.227.556-.076.404-.227.55-.356.22-.617.22-.473-.073-.624-.22a.73.73 0 0 1-.22-.55zm7.229 6.985v-8.025h1.48V26.5h-1.339l-.141-1.37zm-4.306-1.866v-.128c0-.502.059-.958.178-1.37s.289-.773.513-1.07.498-.532.82-.691a2.43 2.43 0 0 1 1.089-.245c.404 0 .75.077 1.052.232a2.19 2.19 0 0 1 .77.667c.212.285.382.628.508 1.027a6.78 6.78 0 0 1 .269 1.321v.41a6.66 6.66 0 0 1-.269 1.297 3.46 3.46 0 0 1-.508 1.015c-.212.285-.471.506-.776.661s-.655.232-1.059.232-.76-.084-1.082-.251a2.37 2.37 0 0 1-.814-.703 3.28 3.28 0 0 1-.513-1.064c-.118-.408-.178-.858-.178-1.34zm1.474-.128v.128a4.24 4.24 0 0 0 .08.844c.057.261.145.491.263.691a1.35 1.35 0 0 0 .459.465c.191.11.419.165.685.165.334 0 .609-.073.825-.22a1.5 1.5 0 0 0 .508-.593c.126-.253.212-.534.257-.844v-1.107a2.75 2.75 0 0 0-.153-.673 1.8 1.8 0 0 0-.3-.544 1.26 1.26 0 0 0-.471-.367c-.183-.09-.401-.135-.654-.135-.269 0-.498.057-.685.171a1.39 1.39 0 0 0-.465.471 2.22 2.22 0 0 0-.263.697 4.04 4.04 0 0 0-.086.85zm8.771 3.486c-.489 0-.932-.079-1.327-.238a2.83 2.83 0 0 1-1.003-.679c-.277-.29-.483-.63-.63-1.021a3.57 3.57 0 0 1-.22-1.266v-.245c0-.518.075-.987.226-1.407s.361-.779.63-1.076.587-.532.954-.691a2.97 2.97 0 0 1 1.193-.239c.473 0 .887.08 1.241.239a2.33 2.33 0 0 1 .881.673 2.78 2.78 0 0 1 .526 1.021c.114.395.178.832.178 1.309v.63h-5.114v-1.058h3.658v-.116a2.06 2.06 0 0 0-.159-.746 1.31 1.31 0 0 0-.434-.563c-.195-.143-.457-.214-.783-.214a1.33 1.33 0 0 0-.655.159c-.187.102-.344.251-.471.447a2.33 2.33 0 0 0-.293.709c-.069.277-.098.581-.098.924v.245a2.71 2.71 0 0 0 .116.807c.082.245.2.459.355.642a1.69 1.69 0 0 0 .562.434c.22.106.471.153.753.153a2.04 2.04 0 0 0 .948-.214 2.18 2.18 0 0 0 .722-.605l.776.752a3.01 3.01 0 0 1-.556.599 2.8 2.8 0 0 1-.838.459c-.326.118-.706.177-1.138.177zm3.517-3.358v-.141a4.09 4.09 0 0 1 .208-1.327c.139-.412.338-.769.599-1.07a2.73 2.73 0 0 1 .967-.709c.379-.167.815-.257 1.296-.257s.918.086 1.297.257.708.404.973.709.467.659.605 1.07a4.09 4.09 0 0 1 .208 1.327v.141a4.09 4.09 0 0 1-.208 1.327c-.138.408-.34.765-.605 1.07a2.81 2.81 0 0 1-.967.71c-.379.167-.809.251-1.29.251s-.92-.084-1.303-.251-.701-.408-.966-.71-.467-.663-.606-1.07a4.09 4.09 0 0 1-.208-1.327zm1.474-.141v.141a3.75 3.75 0 0 0 .092.844c.061.265.157.498.287.697s.298.357.502.471.446.171.728.171c.273 0 .509-.057.709-.171s.371-.271.502-.471a2.13 2.13 0 0 0 .287-.697c.061-.265.098-.546.098-.844v-.141a3.43 3.43 0 0 0-.098-.832c-.065-.261-.159-.499-.293-.703a1.41 1.41 0 0 0-.502-.477 1.38 1.38 0 0 0-.716-.177c-.277 0-.517.059-.721.177s-.365.273-.496.477-.226.438-.287.703a3.67 3.67 0 0 0-.092.832z"/></g></g><g class="D"><rect x="207.438" y="5.692" width="70.058" height="33.615" rx=".979" class="E"/><rect x="207.438" y="5.692" width="70.058" height="33.615" rx=".979" class="C F"/><g clip-path="url(#C)" class="B"><path d="M226.91 20.215c.158.904-.272 1.807-1.07 2.247l-.249.131c-.083.361-.403.666-.779.666a.82.82 0 0 1-.799-.799c0-.844.602-1.159.925-1.328l.13-.069c.155-.085.317-.286.267-.571a.54.54 0 0 0-.42-.42c-.327-.059-.602.168-.652.416-.088.432-.51.709-.943.624a.8.8 0 0 1-.624-.942c.229-1.124 1.349-1.874 2.495-1.672.861.151 1.567.858 1.719 1.718zm-2.099 4.109a.8.8 0 0 0-.799.799.8.8 0 0 0 .799.799.8.8 0 0 0 .8-.799.8.8 0 0 0-.8-.799zm6.394-5.594v6.926c0 1.616-1.314 2.93-2.93 2.93h-6.927c-1.616 0-2.93-1.315-2.93-2.93V18.73c0-1.616 1.314-2.931 2.93-2.931h6.927c1.616 0 2.93 1.315 2.93 2.931zm-1.598 0c0-.734-.598-1.332-1.332-1.332h-6.927c-.734 0-1.332.598-1.332 1.332v6.926c0 .735.598 1.332 1.332 1.332h6.927c.734 0 1.332-.597 1.332-1.332V18.73z"/></g><path d="M239.563 17.595V26.5h-1.535v-8.905h1.535zm3.633 3.896v1.217h-4.024v-1.217h4.024zm.508-3.896v1.223h-4.532v-1.223h4.532zm3.603 1.186l-2.661 7.719h-1.609l3.352-8.905h1.028l-.11 1.186zm2.226 7.719l-2.667-7.719-.116-1.186h1.034l3.364 8.905h-1.615zm-.129-3.303v1.217h-4.844v-1.217h4.844zm7.358 2.116l2.343 1.859-.997.875-2.3-1.841.954-.893zm2.361-3.511v.489c0 .673-.087 1.276-.263 1.811s-.426.989-.752 1.364-.716.663-1.168.862-.954.294-1.505.294-1.046-.098-1.498-.294a3.37 3.37 0 0 1-1.169-.862 4 4 0 0 1-.77-1.364c-.18-.534-.269-1.138-.269-1.811v-.489c0-.673.089-1.274.269-1.804s.432-.989.758-1.364a3.27 3.27 0 0 1 1.168-.863c.453-.2.953-.3 1.499-.3a3.69 3.69 0 0 1 1.505.3 3.19 3.19 0 0 1 1.174.863c.326.375.577.83.752 1.364s.269 1.131.269 1.804zm-1.541.489v-.501c0-.498-.049-.936-.147-1.315s-.234-.703-.422-.96a1.76 1.76 0 0 0-.679-.587c-.265-.135-.569-.202-.911-.202a1.96 1.96 0 0 0-.899.202 1.82 1.82 0 0 0-.679.587c-.188.257-.33.577-.428.96s-.147.817-.147 1.315v.501c0 .498.049.938.147 1.321s.24.707.428.973.42.459.685.593a2.05 2.05 0 0 0 .905.196c.343 0 .646-.065.912-.196s.489-.332.672-.593.322-.589.416-.973.147-.824.147-1.321zm6.667 2.416a.74.74 0 0 0-.11-.398c-.074-.122-.214-.232-.422-.33s-.506-.188-.905-.269c-.351-.077-.673-.169-.967-.275s-.538-.243-.746-.398a1.67 1.67 0 0 1-.483-.55c-.114-.212-.172-.457-.172-.734 0-.269.06-.524.178-.764s.287-.453.508-.636.487-.328.801-.434.673-.159 1.064-.159c.555 0 1.03.094 1.425.281s.706.434.918.752.318.669.318 1.064h-1.474a.94.94 0 0 0-.526-.862c-.176-.098-.396-.147-.661-.147-.253 0-.463.041-.63.122s-.285.179-.367.306-.116.265-.116.416c0 .11.02.21.061.3s.118.165.22.239.241.135.416.196.404.12.673.177c.506.106.94.243 1.303.41s.648.375.844.636.293.583.293.979c0 .294-.063.563-.189.807s-.302.45-.539.63-.519.312-.85.41c-.326.098-.693.147-1.101.147-.599 0-1.107-.106-1.523-.318s-.732-.491-.948-.826-.318-.689-.318-1.052h1.425c.017.273.092.491.227.654s.31.275.513.349a2.02 2.02 0 0 0 .643.104c.265 0 .487-.035.666-.104s.316-.171.41-.294a.7.7 0 0 0 .141-.428z" class="B"/></g><g class="D"><rect x="283.17" y="5.692" width="96.058" height="33.615" rx=".979" class="E"/><rect x="283.17" y="5.692" width="96.058" height="33.615" rx=".979" class="C F"/><g class="B"><path d="M306.428 22.362a.81.81 0 0 0-.577.243c-.154.156-.24.367-.24.588v1.982c0 .545-.213 1.068-.592 1.454s-.892.602-1.428.603h-5.48a2 2 0 0 1-1.428-.603 2.08 2.08 0 0 1-.593-1.454v-1.982a.84.84 0 0 0-.239-.588.81.81 0 0 0-1.155 0 .84.84 0 0 0-.239.588v1.982a3.76 3.76 0 0 0 1.072 2.628 3.63 3.63 0 0 0 2.582 1.091h5.48a3.63 3.63 0 0 0 2.582-1.091c.685-.697 1.07-1.642 1.071-2.628v-1.982a.84.84 0 0 0-.239-.588.81.81 0 0 0-.577-.243zm-6.15 2.153l.03.029c.128.118.29.191.462.209h.008l.021.002.058.002.071-.003h.007l.018-.002.022-.003h.008l.032-.006a.8.8 0 0 0 .209-.074l.053-.03.047-.031.006-.004.044-.034.006-.005.034-.031.011-.011 1.948-1.984a.83.83 0 0 0 .177-.27c.041-.101.063-.209.063-.318s-.022-.217-.063-.318a.83.83 0 0 0-.177-.27.82.82 0 0 0-.265-.18.8.8 0 0 0-.625 0 .82.82 0 0 0-.265.18l-.548.557v-4.983a.84.84 0 0 0-.239-.587.81.81 0 0 0-.577-.243c-.107 0-.214.021-.313.063a.81.81 0 0 0-.264.18.83.83 0 0 0-.177.27c-.041.101-.062.209-.062.318v4.983l-.555-.564a.81.81 0 0 0-1.156 0 .84.84 0 0 0 0 1.176l1.951 1.983zm16.07 1.985h-1.902l.012-1.217h1.89c.55 0 1.011-.12 1.382-.361s.656-.585.844-1.034.288-.983.288-1.603v-.483c0-.481-.056-.907-.166-1.278s-.265-.683-.477-.936a2 2 0 0 0-.77-.575c-.302-.131-.651-.196-1.046-.196h-1.994v-1.223h1.994a4.25 4.25 0 0 1 1.621.3 3.56 3.56 0 0 1 1.266.85 3.78 3.78 0 0 1 .825 1.333c.192.518.288 1.097.288 1.737v.471c0 .64-.096 1.219-.288 1.737s-.467.962-.825 1.333a3.7 3.7 0 0 1-1.285.85 4.46 4.46 0 0 1-1.657.294zm-1.052-8.905V26.5h-1.536v-8.905h1.536zm6.22 5.67v-.141a4.09 4.09 0 0 1 .208-1.327c.139-.412.338-.769.599-1.07a2.73 2.73 0 0 1 .967-.709c.379-.167.815-.257 1.296-.257s.918.086 1.297.257.708.404.973.709a3.14 3.14 0 0 1 .605 1.07 4.09 4.09 0 0 1 .208 1.327v.141a4.09 4.09 0 0 1-.208 1.327 3.17 3.17 0 0 1-.605 1.07 2.81 2.81 0 0 1-.967.71c-.379.167-.809.251-1.29.251s-.92-.084-1.303-.251-.701-.408-.966-.71-.467-.663-.606-1.07a4.09 4.09 0 0 1-.208-1.327zm1.474-.141v.141a3.75 3.75 0 0 0 .092.844c.061.265.157.498.287.697s.298.357.502.471.446.171.728.171c.273 0 .509-.057.709-.171s.371-.271.502-.471a2.13 2.13 0 0 0 .287-.697c.061-.265.098-.546.098-.844v-.141a3.43 3.43 0 0 0-.098-.832c-.065-.261-.159-.499-.293-.703a1.41 1.41 0 0 0-.502-.477 1.38 1.38 0 0 0-.716-.177c-.277 0-.517.059-.721.177s-.365.273-.496.477-.226.438-.287.703a3.67 3.67 0 0 0-.092.832zm7.713 1.908l1.529-5.15h.942l-.257 1.541-1.541 5.077h-.844l.171-1.468zm-.899-5.15l1.192 5.174.098 1.444h-.942l-1.792-6.618h1.444zm4.801 5.113l1.156-5.113h1.437l-1.786 6.618h-.942l.135-1.505zm-1.272-5.113l1.511 5.089.189 1.529h-.844l-1.56-5.083-.256-1.535h.96zm6.33 1.413V26.5h-1.474v-6.618h1.389l.085 1.413zm-.263 1.651l-.477-.006a4.32 4.32 0 0 1 .196-1.291c.126-.392.31-.728.538-1.009a2.34 2.34 0 0 1 .832-.648 2.45 2.45 0 0 1 1.076-.232c.319 0 .606.045.863.135a1.64 1.64 0 0 1 .667.422 1.91 1.91 0 0 1 .428.764c.098.31.147.691.147 1.144V26.5h-1.481v-4.282c0-.318-.047-.569-.14-.752a.79.79 0 0 0-.398-.398c-.171-.082-.385-.122-.642-.122s-.479.053-.679.159a1.53 1.53 0 0 0-.508.434 2.13 2.13 0 0 0-.312.636 2.64 2.64 0 0 0-.11.771zm7.352-5.841V26.5h-1.48v-9.395h1.48zm1.334 6.159v-.141c0-.477.069-.919.207-1.327a3.16 3.16 0 0 1 .6-1.07 2.7 2.7 0 0 1 .966-.709c.384-.171.816-.257 1.297-.257s.917.086 1.297.257a2.69 2.69 0 0 1 .972.709c.265.302.467.659.606 1.07a4.1 4.1 0 0 1 .208 1.327v.141a4.11 4.11 0 0 1-.208 1.327c-.138.407-.341.765-.606 1.07s-.587.538-.966.71-.81.251-1.291.251-.919-.084-1.303-.251-.701-.408-.966-.71-.467-.663-.606-1.07-.207-.85-.207-1.327zm1.474-.141v.141c0 .298.03.579.091.844s.157.498.288.697a1.43 1.43 0 0 0 .501.471 1.47 1.47 0 0 0 .728.171 1.41 1.41 0 0 0 .71-.171c.2-.114.371-.271.501-.471s.227-.432.288-.697.098-.546.098-.844v-.141a3.43 3.43 0 0 0-.098-.832 2.25 2.25 0 0 0-.294-.703c-.135-.204-.298-.363-.501-.477s-.439-.177-.716-.177-.518.059-.722.177a1.41 1.41 0 0 0-.495.477c-.13.204-.227.438-.288.703a3.67 3.67 0 0 0-.091.832zm9.645 2.049v-3.156c0-.236-.043-.44-.128-.612a.9.9 0 0 0-.392-.398c-.171-.094-.387-.141-.648-.141-.241 0-.449.041-.624.122s-.312.192-.41.33-.147.296-.147.471h-1.468c0-.261.064-.514.19-.758a2.02 2.02 0 0 1 .551-.654c.24-.192.528-.343.862-.453s.709-.165 1.125-.165c.498 0 .938.084 1.321.251s.692.42.912.758.336.754.336 1.26v2.942a4.99 4.99 0 0 0 .061.814 2.61 2.61 0 0 0 .19.618v.098h-1.511a2.64 2.64 0 0 1-.165-.605c-.037-.249-.055-.489-.055-.722zm.214-2.697l.012.911h-1.058a2.93 2.93 0 0 0-.721.079c-.207.053-.382.122-.52.22a.95.95 0 0 0-.312.355 1.03 1.03 0 0 0-.104.471c0 .175.04.336.122.483a.86.86 0 0 0 .355.336c.159.081.35.122.575.122a1.63 1.63 0 0 0 1.327-.642c.13-.184.2-.357.208-.52l.477.654c-.049.167-.133.347-.251.538s-.273.375-.465.55a2.29 2.29 0 0 1-.679.422c-.26.11-.562.165-.905.165a2.53 2.53 0 0 1-1.156-.257 2.06 2.06 0 0 1-.795-.703 1.82 1.82 0 0 1-.287-1.009c0-.351.065-.661.195-.93a1.81 1.81 0 0 1 .588-.685c.257-.183.579-.322.954-.416s.803-.147 1.284-.147h1.156zm6.844 2.654v-8.025h1.481V26.5h-1.34l-.141-1.37zm-4.306-1.866v-.128c0-.502.06-.958.178-1.37s.289-.773.514-1.07a2.31 2.31 0 0 1 .819-.691 2.43 2.43 0 0 1 1.089-.245c.404 0 .75.077 1.052.232a2.18 2.18 0 0 1 .771.667c.212.29.381.628.507 1.027s.216.836.269 1.321v.41c-.053.473-.142.905-.269 1.297a3.47 3.47 0 0 1-.507 1.015 2.19 2.19 0 0 1-.777.661c-.302.155-.655.232-1.058.232s-.761-.084-1.083-.251a2.39 2.39 0 0 1-.813-.703 3.29 3.29 0 0 1-.514-1.064c-.118-.408-.178-.858-.178-1.34zm1.474-.128v.128a4.24 4.24 0 0 0 .08.844c.057.261.145.491.263.691a1.35 1.35 0 0 0 .459.465 1.35 1.35 0 0 0 .685.165c.334 0 .609-.073.825-.22a1.5 1.5 0 0 0 .508-.593c.127-.253.212-.534.257-.844v-1.107a2.66 2.66 0 0 0-.153-.673 1.78 1.78 0 0 0-.3-.544 1.26 1.26 0 0 0-.471-.367 1.54 1.54 0 0 0-.654-.135c-.269 0-.497.057-.685.171a1.38 1.38 0 0 0-.465.471 2.22 2.22 0 0 0-.263.697 4.04 4.04 0 0 0-.086.85z"/></g></g><g class="D"><rect x="384.903" y="5.692" width="65.058" height="33.615" rx=".979" class="E"/><rect x="384.903" y="5.692" width="65.058" height="33.615" rx=".979" class="C F"/><g clip-path="url(#D)" class="B"><path d="M408.064 21.13a5.5 5.5 0 0 0-5.481-5.48 5.5 5.5 0 0 0-5.48 5.48c0 3.768 4.932 6.645 5.138 6.782a.62.62 0 0 0 .685 0c.205-.137 5.138-3.014 5.138-6.782zm-9.591 0c0-2.261 1.85-4.11 4.11-4.11s4.111 1.85 4.111 4.11c0 2.466-3.083 4.658-4.111 5.343-1.027-.685-4.11-2.877-4.11-5.343zm4.11-2.74a2.75 2.75 0 0 0-2.74 2.74 2.75 2.75 0 0 0 2.74 2.74 2.75 2.75 0 0 0 2.74-2.74 2.75 2.75 0 0 0-2.74-2.74zm0 4.11c-.753 0-1.37-.616-1.37-1.37s.617-1.37 1.37-1.37 1.37.617 1.37 1.37-.616 1.37-1.37 1.37z"/><path d="M408.064 26.61c-.411 0-.685.274-.685.685v.685h-9.591v-.685c0-.411-.274-.685-.685-.685s-.685.274-.685.685v1.37c0 .411.274.685.685.685h10.961c.411 0 .685-.274.685-.685v-1.37c0-.411-.274-.685-.685-.685z"/></g><path d="M416.117 17.595h1.37l2.575 6.869 2.569-6.869h1.37L420.6 26.5h-1.089l-3.394-8.905zm-.624 0h1.303l.226 5.945v2.96h-1.529v-8.905zm7.829 0h1.309V26.5h-1.535v-2.96l.226-5.945zm6.716 7.578v-3.156c0-.236-.043-.44-.129-.612s-.216-.304-.391-.398-.388-.141-.649-.141c-.24 0-.448.041-.623.122s-.312.192-.41.33-.147.296-.147.471h-1.468c0-.261.063-.514.19-.758s.31-.463.55-.654a2.75 2.75 0 0 1 .863-.453c.334-.11.709-.165 1.125-.165.497 0 .938.084 1.321.251s.691.42.911.758c.225.334.337.754.337 1.26v2.942c0 .302.02.573.061.814a2.61 2.61 0 0 0 .19.618v.098h-1.511a2.59 2.59 0 0 1-.165-.605c-.037-.249-.055-.489-.055-.722zm.214-2.697l.012.911h-1.058c-.273 0-.514.026-.722.079s-.381.122-.52.22-.242.216-.312.355-.104.296-.104.471.041.336.123.483a.85.85 0 0 0 .354.336c.159.081.351.122.575.122.302 0 .565-.061.789-.183s.408-.279.539-.459.199-.357.208-.52l.477.654c-.049.167-.133.347-.251.538s-.273.375-.465.55-.414.312-.679.422-.563.165-.905.165c-.432 0-.818-.086-1.156-.257s-.604-.41-.795-.703a1.82 1.82 0 0 1-.288-1.009c0-.351.065-.661.196-.93s.33-.502.587-.685.579-.322.954-.416.804-.147 1.285-.147h1.156zm4.287-1.321v7.89h-1.474v-9.162h1.358l.116 1.272zm4.312 1.976v.128c0 .481-.057.928-.171 1.34s-.275.765-.495 1.07-.484.536-.802.703-.685.251-1.101.251-.772-.075-1.082-.226-.565-.373-.777-.654a3.57 3.57 0 0 1-.514-.991 6.39 6.39 0 0 1-.269-1.26v-.495a6.78 6.78 0 0 1 .269-1.321c.131-.395.302-.736.514-1.021a2.19 2.19 0 0 1 .777-.661c.306-.155.662-.232 1.07-.232.416 0 .785.082 1.107.245a2.23 2.23 0 0 1 .814.685c.22.294.385.648.495 1.064s.165.871.165 1.376zm-1.474.128v-.128c0-.306-.028-.589-.085-.85s-.147-.497-.269-.697a1.33 1.33 0 0 0-.471-.465c-.188-.114-.414-.171-.679-.171s-.486.045-.673.135a1.28 1.28 0 0 0-.471.361c-.127.155-.224.336-.294.544s-.118.426-.146.667v1.187a2.94 2.94 0 0 0 .25.807c.119.245.286.44.502.587s.501.214.844.214c.265 0 .491-.057.679-.171a1.35 1.35 0 0 0 .459-.471c.122-.204.212-.438.269-.703a4.01 4.01 0 0 0 .085-.844z" class="B"/></g><g class="D"><rect x="455.635" y="5.692" width="117.058" height="33.615" rx=".979" class="E"/><rect x="455.635" y="5.692" width="117.058" height="33.615" rx=".979" class="C F"/><g clip-path="url(#E)" class="B"><path d="M478.261 17.555v9.89h-9.89v-9.89h9.89zm.125-1.448h-10.14c-.732 0-1.324.592-1.324 1.324v10.138c0 .732.592 1.324 1.324 1.324h10.137c.732 0 1.324-.592 1.324-1.324V17.43c0-.732-.592-1.324-1.324-1.324h.003zm-3.022 6.883v1.449h-3.896V22.99h3.896zm1.079-1.448h-6.057a.37.37 0 0 0-.369.37v3.609a.37.37 0 0 0 .369.37h6.057a.37.37 0 0 0 .369-.37v-3.609a.37.37 0 0 0-.369-.37zm-1.911-2.546h-4.206c-.169 0-.307.138-.307.307v.834c0 .17.138.307.307.307h4.206c.17 0 .307-.138.307-.307v-.834c0-.17-.137-.307-.307-.307z"/></g><path d="M491.485 23.601h1.53c-.049.583-.212 1.103-.49 1.56s-.666.809-1.168 1.07-1.111.391-1.829.391c-.55 0-1.046-.098-1.486-.294s-.818-.481-1.132-.844-.554-.809-.721-1.327a5.77 5.77 0 0 1-.245-1.737v-.74c0-.64.084-1.219.251-1.737s.416-.96.734-1.327a3.17 3.17 0 0 1 1.144-.85c.448-.196.952-.294 1.51-.294.71 0 1.309.13 1.798.392s.869.622 1.138 1.083.44.989.502 1.584h-1.529c-.041-.383-.131-.712-.27-.985-.134-.273-.334-.481-.599-.624s-.612-.22-1.04-.22c-.35 0-.656.065-.917.196s-.479.322-.655.575-.307.565-.397.936a5.55 5.55 0 0 0-.129 1.26v.752c0 .448.039.856.117 1.223s.203.675.367.936.379.463.636.605.564.214.923.214c.437 0 .789-.069 1.058-.208s.479-.34.618-.605.237-.597.281-.985zm2.496-.336v-.141a4.09 4.09 0 0 1 .208-1.327c.139-.412.338-.769.599-1.07a2.7 2.7 0 0 1 .967-.709c.383-.171.815-.257 1.296-.257s.918.086 1.297.257.707.404.973.709.466.659.605 1.07a4.09 4.09 0 0 1 .208 1.327v.141a4.09 4.09 0 0 1-.208 1.327c-.139.408-.34.765-.605 1.07a2.82 2.82 0 0 1-.967.71c-.379.167-.809.251-1.29.251-.486 0-.92-.084-1.303-.251a2.81 2.81 0 0 1-.967-.71c-.265-.306-.466-.663-.605-1.07a4.09 4.09 0 0 1-.208-1.327zm1.474-.141v.141c0 .298.031.579.092.844s.157.498.287.697.298.357.502.471.446.171.728.171c.273 0 .509-.057.709-.171s.371-.271.502-.471.226-.432.287-.697.098-.546.098-.844v-.141c0-.294-.033-.571-.098-.832s-.159-.499-.293-.703a1.41 1.41 0 0 0-.502-.477 1.38 1.38 0 0 0-.716-.177c-.277 0-.518.059-.721.177s-.365.273-.496.477-.226.438-.287.703-.092.538-.092.832zm7.376-1.829V26.5h-1.474v-6.618h1.389l.085 1.413zm-.263 1.651l-.477-.006c.004-.469.07-.899.196-1.291s.31-.728.538-1.009.51-.497.832-.648a2.45 2.45 0 0 1 1.077-.232c.318 0 .605.045.862.135s.483.226.667.422a1.91 1.91 0 0 1 .428.764c.098.31.147.691.147 1.144V26.5h-1.481v-4.282c0-.318-.047-.569-.14-.752a.79.79 0 0 0-.398-.398c-.171-.082-.385-.122-.642-.122s-.479.053-.679.159a1.53 1.53 0 0 0-.508.434c-.134.183-.238.396-.312.636a2.64 2.64 0 0 0-.11.771zm8.808-3.064v1.076h-3.731v-1.076h3.731zm-2.655-1.621h1.474v6.41c0 .204.029.361.086.471s.145.177.251.214a1.14 1.14 0 0 0 .373.055 2.24 2.24 0 0 0 .293-.018l.227-.037.006 1.125a3.76 3.76 0 0 1-.428.098c-.159.029-.343.043-.551.043a2.16 2.16 0 0 1-.899-.177c-.261-.122-.465-.32-.611-.593s-.221-.636-.221-1.089v-6.502zm7.524 6.911v-3.156c0-.236-.043-.44-.129-.612a.9.9 0 0 0-.391-.398c-.172-.094-.388-.141-.649-.141-.24 0-.448.041-.624.122s-.312.192-.409.33-.147.296-.147.471h-1.468c0-.261.063-.514.189-.758s.31-.463.551-.654.528-.343.862-.453.71-.165 1.126-.165c.497 0 .938.084 1.321.251s.691.42.911.758.337.754.337 1.26v2.942c0 .302.02.573.061.814a2.66 2.66 0 0 0 .189.618v.098h-1.51a2.54 2.54 0 0 1-.165-.605c-.037-.249-.055-.489-.055-.722zm.214-2.697l.012.911h-1.058c-.274 0-.514.026-.722.079s-.381.122-.52.22a.95.95 0 0 0-.312.355c-.069.139-.104.296-.104.471s.041.336.122.483a.86.86 0 0 0 .355.336c.159.081.351.122.575.122.302 0 .565-.061.789-.183a1.61 1.61 0 0 0 .538-.459c.131-.184.2-.357.208-.52l.477.654a2.21 2.21 0 0 1-.25.538c-.119.192-.274.375-.465.55s-.414.312-.679.422-.563.165-.905.165c-.433 0-.818-.086-1.156-.257s-.604-.41-.795-.703a1.82 1.82 0 0 1-.288-1.009c0-.351.065-.661.196-.93s.33-.502.587-.685.579-.322.954-.416.803-.147 1.285-.147h1.156zm5.51 2.973c.241 0 .457-.047.649-.141a1.24 1.24 0 0 0 .471-.404 1.11 1.11 0 0 0 .202-.593h1.388a2.07 2.07 0 0 1-.379 1.168c-.245.351-.569.63-.973.838s-.85.306-1.339.306c-.506 0-.946-.086-1.321-.257s-.687-.416-.936-.722-.436-.659-.563-1.058-.183-.828-.183-1.284v-.214c0-.457.061-.885.183-1.284s.314-.758.563-1.064.56-.544.936-.716.813-.263 1.315-.263c.53 0 .995.106 1.394.318s.714.5.942.875c.233.371.353.803.361 1.297h-1.388a1.49 1.49 0 0 0-.184-.66 1.21 1.21 0 0 0-.453-.477c-.191-.118-.422-.177-.691-.177-.297 0-.544.061-.74.183a1.24 1.24 0 0 0-.459.489 2.39 2.39 0 0 0-.238.691c-.045.253-.067.516-.067.789v.214a4.6 4.6 0 0 0 .067.795 2.27 2.27 0 0 0 .232.691 1.36 1.36 0 0 0 .465.483c.196.118.445.177.746.177zm6.875-5.566v1.076h-3.731v-1.076h3.731zm-2.654-1.621h1.474v6.41c0 .204.028.361.085.471a.46.46 0 0 0 .251.214c.106.037.231.055.373.055.102 0 .2-.006.294-.018l.226-.037.006 1.125a3.76 3.76 0 0 1-.428.098c-.159.029-.342.043-.55.043-.339 0-.639-.059-.899-.177s-.465-.32-.612-.593-.22-.636-.22-1.089v-6.502zm8.593-.667V26.5h-1.535v-8.905h1.535zm3.633 3.896v1.217h-4.024v-1.217h4.024zm.508-3.896v1.223h-4.532v-1.223h4.532zm.661 5.67v-.141a4.09 4.09 0 0 1 .208-1.327 3.14 3.14 0 0 1 .599-1.07c.265-.306.587-.542.966-.709.384-.171.816-.257 1.297-.257s.917.086 1.297.257a2.69 2.69 0 0 1 .972.709c.265.302.467.659.606 1.07s.208.85.208 1.327v.141c0 .477-.07.92-.208 1.327s-.341.765-.606 1.07-.587.538-.966.71-.81.251-1.291.251-.919-.084-1.303-.251-.701-.408-.966-.71-.467-.663-.605-1.07a4.09 4.09 0 0 1-.208-1.327zm1.474-.141v.141c0 .298.03.579.091.844s.157.498.288.697.297.357.501.471.447.171.728.171c.273 0 .51-.057.71-.171s.371-.271.501-.471.227-.432.288-.697.098-.546.098-.844v-.141c0-.294-.033-.571-.098-.832s-.159-.499-.294-.703-.298-.363-.501-.477-.439-.177-.716-.177-.518.059-.722.177-.365.273-.495.477-.226.438-.288.703-.091.538-.091.832zm7.394-1.982V26.5h-1.474v-6.618h1.407l.067 1.26zm2.025-1.303l-.012 1.37a2.92 2.92 0 0 0-.294-.037l-.306-.012a1.86 1.86 0 0 0-.667.11c-.191.069-.352.171-.483.306s-.224.29-.293.477-.11.398-.123.63l-.336.024a5.19 5.19 0 0 1 .122-1.156c.082-.355.204-.667.367-.936s.375-.479.624-.63.545-.226.875-.226c.089 0 .185.008.287.024s.186.035.239.055zm2.397 1.388V26.5h-1.474v-6.618h1.389l.085 1.346zm-.238 1.719l-.502-.006c0-.457.057-.879.172-1.266a3.04 3.04 0 0 1 .501-1.009c.22-.29.494-.512.82-.667s.711-.239 1.143-.239a2.42 2.42 0 0 1 .826.135 1.64 1.64 0 0 1 .655.41c.187.188.33.428.428.722s.153.648.153 1.064v4.41h-1.474v-4.282c0-.322-.049-.575-.147-.758s-.231-.314-.41-.391-.385-.122-.63-.122c-.277 0-.514.053-.709.159a1.33 1.33 0 0 0-.471.434 1.93 1.93 0 0 0-.269.636 3.28 3.28 0 0 0-.086.771zm4.104-.392l-.691.153a3.8 3.8 0 0 1 .165-1.132c.114-.359.279-.673.495-.942s.492-.487.814-.642.691-.232 1.107-.232c.338 0 .64.047.905.141s.498.232.685.428.33.451.428.764.147.685.147 1.125V26.5h-1.48v-4.288c0-.334-.049-.593-.147-.777a.76.76 0 0 0-.404-.379c-.175-.073-.385-.11-.63-.11a1.36 1.36 0 0 0-.605.128 1.2 1.2 0 0 0-.434.349c-.119.147-.208.316-.269.508s-.086.4-.086.624z" class="B"/></g><defs><clipPath id="B"><path fill="#fff" transform="translate(15.961 15.5)" d="M0 0h14v14H0z"/></clipPath><clipPath id="C"><path fill="#fff" transform="translate(217.811 15.193)" d="M0 0h14.614v14.614H0z"/></clipPath><clipPath id="D"><path fill="#fff" transform="translate(395.276 15.193)" d="M0 0h14.614v14.614H0z"/></clipPath><clipPath id="E"><path fill="#fff" transform="translate(466.922 16.106)" d="M0 0h12.787v12.787H0z"/></clipPath><path id="F" d="M6.565 5.692h115.488a.98.98 0 0 1 .978.979v31.658a.98.98 0 0 1-.978.979H6.565a.98.98 0 0 1-.979-.979V6.671a.98.98 0 0 1 .979-.979z"/></defs></svg>