<svg xmlns="http://www.w3.org/2000/svg" width="281" height="100" fill="none" xmlns:v="https://vecta.io/nano"><rect x=".75" y=".75" width="279.5" height="98.5" rx="2.25" stroke="#ccc" stroke-width="1.5"/><g opacity=".5"><rect x="12.563" y="14.063" width="73.875" height="58.875" rx="1.688" fill="#fff"/><rect x="12.563" y="14.063" width="73.875" height="58.875" rx="1.688" stroke="#ccc" stroke-width="1.125"/><path d="M20 23.062h1.125v4.5H20v-4.5z" fill="#293035"/><path d="M21.125 23.062H35.75v4.5H21.125v-4.5z" fill="#65747f"/><mask id="A" fill="#fff"><path d="M20 27.562h15.75v36H20v-36z"/></mask><g fill="#b5bec4"><path d="M35.75 27.562h-.6v36h.6.6v-36h-.6z" mask="url(#A)"/><use href="#E"/><use href="#E" y="5.625"/><use href="#E" y="11.25"/><use href="#E" y="16.875"/></g><path fill="#e6e9eb" d="M38.75 23.062h40.5v40.5h-40.5z"/><path d="M23.817 85.136l1.964-6.101h1.42L24.525 86.5h-.959l.251-1.364zm-1.815-6.101l1.948 6.101.267 1.364h-.964l-2.666-7.465h1.415zm8.131 7.567c-.41 0-.781-.067-1.113-.2s-.608-.326-.841-.569-.405-.528-.528-.856a3 3 0 0 1-.185-1.061v-.205c0-.434.063-.827.19-1.179s.303-.653.528-.902a2.27 2.27 0 0 1 .8-.579c.308-.133.641-.2 1-.2.396 0 .743.067 1.041.2s.543.321.738.564a2.34 2.34 0 0 1 .441.856c.099.332.149.697.149 1.097v.528h-4.286v-.887h3.066v-.097c-.007-.222-.051-.431-.133-.625s-.2-.352-.364-.472-.383-.179-.656-.179c-.205 0-.388.044-.549.133s-.289.21-.395.374a1.97 1.97 0 0 0-.246.595 3.34 3.34 0 0 0-.082.774v.205c0 .243.032.468.097.677s.167.385.297.538a1.41 1.41 0 0 0 .472.364c.185.086.395.128.631.128a1.71 1.71 0 0 0 .795-.18 1.82 1.82 0 0 0 .605-.507l.651.631c-.12.174-.275.342-.467.502s-.426.285-.702.385-.591.149-.954.149zm4.425-4.594V86.5h-1.236v-5.547h1.179l.056 1.056zm1.697-1.092l-.01 1.148a2.43 2.43 0 0 0-.246-.031l-.256-.01c-.212 0-.398.031-.559.092s-.296.144-.405.256-.188.243-.246.4a1.79 1.79 0 0 0-.103.528l-.282.02a4.32 4.32 0 0 1 .103-.969c.068-.297.171-.559.308-.784s.314-.402.523-.528.456-.19.733-.19c.075 0 .156.007.241.02a1.04 1.04 0 0 1 .2.046zm3.574.036v.902h-3.127v-.902h3.127zm-2.225-1.359h1.236v5.373c0 .171.024.302.072.395s.121.149.21.18a.96.96 0 0 0 .313.046c.086 0 .168-.005.246-.015l.19-.031.005.943c-.103.031-.222.058-.359.082a2.64 2.64 0 0 1-.462.036c-.284 0-.535-.05-.754-.149a1.11 1.11 0 0 1-.513-.497c-.123-.229-.185-.533-.185-.913v-5.45zm4.502 1.359V86.5h-1.241v-5.547h1.241zm-1.323-1.456c0-.188.062-.344.185-.467s.301-.19.523-.19.391.063.518.19.19.279.19.467-.063.338-.19.461-.299.185-.518.185-.396-.061-.523-.185-.185-.277-.185-.461zm4.942 6.122a1.22 1.22 0 0 0 .543-.118 1.03 1.03 0 0 0 .395-.338c.103-.144.159-.309.169-.497h1.164a1.73 1.73 0 0 1-.318.979c-.205.294-.477.528-.815.702s-.713.256-1.123.256c-.424 0-.793-.072-1.107-.215a2.19 2.19 0 0 1-.784-.605 2.66 2.66 0 0 1-.472-.887 3.66 3.66 0 0 1-.154-1.077v-.179c0-.383.051-.742.154-1.077s.263-.636.472-.892a2.14 2.14 0 0 1 .784-.6c.314-.147.682-.221 1.102-.221.444 0 .834.089 1.169.267a1.97 1.97 0 0 1 .79.733 2.07 2.07 0 0 1 .302 1.087h-1.164c-.01-.205-.062-.39-.154-.554s-.215-.301-.379-.4a1.08 1.08 0 0 0-.579-.149c-.249 0-.456.051-.62.154s-.292.236-.385.41a2 2 0 0 0-.2.579 3.79 3.79 0 0 0-.056.661v.179a3.88 3.88 0 0 0 .056.666c.038.215.103.409.195.579s.226.302.39.405.373.149.626.149zm6.347-.231v-2.646c0-.198-.036-.369-.108-.513s-.181-.255-.328-.333-.325-.118-.544-.118c-.202 0-.376.034-.523.103s-.261.161-.343.277-.123.248-.123.395h-1.23a1.37 1.37 0 0 1 .159-.636 1.7 1.7 0 0 1 .461-.549c.202-.161.443-.287.723-.379s.595-.138.943-.138c.417 0 .786.07 1.107.21s.579.352.764.636.282.632.282 1.056v2.466a4.1 4.1 0 0 0 .051.682 2.2 2.2 0 0 0 .159.518v.082h-1.266a2.19 2.19 0 0 1-.138-.508c-.031-.209-.046-.41-.046-.605zm.179-2.261l.01.764h-.887c-.229 0-.431.022-.605.067s-.319.103-.436.185a.8.8 0 0 0-.261.297.87.87 0 0 0-.087.395.82.82 0 0 0 .102.405.72.72 0 0 0 .297.282c.133.068.294.103.482.103a1.36 1.36 0 0 0 1.113-.538c.109-.154.167-.299.174-.436l.4.549c-.041.14-.111.29-.21.451s-.229.314-.39.462a1.94 1.94 0 0 1-1.328.492c-.362 0-.685-.072-.969-.215s-.506-.344-.666-.59-.241-.532-.241-.846c0-.294.055-.554.164-.779s.277-.42.492-.574a2.38 2.38 0 0 1 .8-.349 4.28 4.28 0 0 1 1.077-.123h.969zm3.676-4.501V86.5h-1.241v-7.875h1.241zm8.767 6.855v1.02h-3.748v-1.02h3.748zm-3.389-6.444V86.5h-1.287v-7.465h1.287zm6.706 7.567a2.96 2.96 0 0 1-1.113-.2c-.328-.137-.608-.326-.841-.569s-.405-.528-.528-.856a3 3 0 0 1-.184-1.061v-.205c0-.434.063-.827.19-1.179s.302-.653.528-.902a2.27 2.27 0 0 1 .8-.579c.308-.133.641-.2 1-.2.397 0 .743.067 1.041.2s.543.321.738.564a2.34 2.34 0 0 1 .441.856 3.82 3.82 0 0 1 .149 1.097v.528h-4.286v-.887h3.066v-.097c-.007-.222-.051-.431-.133-.625s-.2-.352-.364-.472-.383-.179-.656-.179c-.205 0-.388.044-.549.133s-.289.21-.395.374a1.97 1.97 0 0 0-.246.595 3.34 3.34 0 0 0-.082.774v.205c0 .243.032.468.097.677s.168.385.297.538a1.41 1.41 0 0 0 .472.364c.185.086.395.128.631.128a1.71 1.71 0 0 0 .795-.18 1.82 1.82 0 0 0 .605-.507l.651.631c-.12.174-.275.342-.466.502s-.426.285-.702.385-.591.149-.954.149zm4.855-.103h-1.236v-6.081c0-.413.077-.76.231-1.041a1.52 1.52 0 0 1 .672-.641c.291-.147.634-.22 1.031-.22a2.57 2.57 0 0 1 .364.026c.12.014.236.036.349.067l-.031.954a1.42 1.42 0 0 0-.225-.036l-.256-.01c-.188 0-.35.036-.487.108a.71.71 0 0 0-.308.302 1.07 1.07 0 0 0-.103.492V86.5zm1.143-5.547v.902h-3.23v-.902h3.23zm3.44 0v.902h-3.127v-.902h3.127zm-2.225-1.359h1.236v5.373c0 .171.024.302.072.395s.121.149.21.18a.96.96 0 0 0 .313.046c.085 0 .167-.005.246-.015l.19-.031.005.943c-.103.031-.222.058-.359.082a2.64 2.64 0 0 1-.462.036c-.284 0-.535-.05-.754-.149a1.11 1.11 0 0 1-.513-.497c-.123-.229-.185-.533-.185-.913v-5.45z" fill="#2c3333"/></g><g opacity=".5"><rect x="103.562" y="14.063" width="73.875" height="58.875" rx="1.688" fill="#fff"/><rect x="103.562" y="14.063" width="73.875" height="58.875" rx="1.688" stroke="#ccc" stroke-width="1.125"/><path fill="#e6e9eb" d="M111 23.062h40.5v40.5H111z"/><path d="M156 23.062h14.625v4.5H156v-4.5z" fill="#65747f"/><path d="M170.625 23.062h1.125v4.5h-1.125v-4.5z" fill="#293035"/><mask id="B" fill="#fff"><path d="M156 27.562h15.75v36H156v-36z"/></mask><g fill="#b5bec4"><path d="M156 63.562h.6v-36h-.6-.6v36h.6z" mask="url(#B)"/><use href="#F"/><use href="#F" y="5.625"/><use href="#F" y="11.25"/><use href="#F" y="16.875"/></g><path d="M111.817 85.136l1.964-6.101h1.42l-2.676 7.465h-.959l.251-1.364zm-1.815-6.101l1.948 6.101.267 1.364h-.964l-2.666-7.465h1.415zm8.132 7.567a2.96 2.96 0 0 1-1.113-.2c-.328-.137-.608-.326-.841-.569s-.405-.528-.528-.856a3 3 0 0 1-.184-1.061v-.205c0-.434.063-.827.189-1.179s.303-.653.528-.902a2.27 2.27 0 0 1 .8-.579 2.49 2.49 0 0 1 1-.2c.396 0 .743.067 1.041.2a1.96 1.96 0 0 1 .738.564 2.35 2.35 0 0 1 .441.856c.099.332.149.697.149 1.097v.528h-4.287v-.887h3.066v-.097a1.74 1.74 0 0 0-.133-.625c-.079-.195-.2-.352-.364-.472s-.383-.179-.656-.179c-.205 0-.388.044-.549.133s-.289.21-.395.374-.188.362-.246.595a3.38 3.38 0 0 0-.082.774v.205c0 .243.033.468.098.677s.167.385.297.538a1.41 1.41 0 0 0 .472.364 1.48 1.48 0 0 0 .63.128 1.71 1.71 0 0 0 .795-.18c.232-.12.434-.289.605-.507l.651.631c-.12.174-.275.342-.466.502s-.426.285-.703.385a2.79 2.79 0 0 1-.953.149zm4.424-4.594V86.5h-1.235v-5.547h1.179l.056 1.056zm1.697-1.092l-.01 1.148a2.41 2.41 0 0 0-.246-.031l-.257-.01c-.211 0-.398.031-.558.092s-.296.144-.405.256-.188.243-.247.4-.092.333-.102.528l-.282.02c0-.349.034-.672.102-.969s.171-.559.308-.784a1.58 1.58 0 0 1 .523-.528c.212-.126.456-.19.733-.19.075 0 .156.007.241.02a1.03 1.03 0 0 1 .2.046zm3.574.036v.902h-3.128v-.902h3.128zm-2.225-1.359h1.235v5.373c0 .171.024.302.072.395s.121.149.21.18a.96.96 0 0 0 .313.046 1.9 1.9 0 0 0 .246-.015l.19-.031.005.943a3.17 3.17 0 0 1-.359.082c-.133.024-.287.036-.462.036-.283 0-.534-.05-.753-.149a1.11 1.11 0 0 1-.513-.497c-.123-.229-.184-.533-.184-.913v-5.45zm4.501 1.359V86.5h-1.241v-5.547h1.241zm-1.323-1.456c0-.188.062-.344.185-.467s.301-.19.523-.19.391.063.518.19.189.279.189.467-.063.338-.189.461-.3.185-.518.185-.397-.061-.523-.185-.185-.277-.185-.461zm4.943 6.122a1.22 1.22 0 0 0 .543-.118 1.03 1.03 0 0 0 .395-.338c.102-.144.159-.309.169-.497h1.164c-.007.359-.113.685-.318.979s-.477.528-.815.702-.713.256-1.123.256c-.424 0-.793-.072-1.107-.215a2.19 2.19 0 0 1-.785-.605c-.208-.256-.366-.552-.472-.887a3.68 3.68 0 0 1-.153-1.077v-.179c0-.383.051-.742.153-1.077s.264-.636.472-.892a2.14 2.14 0 0 1 .785-.6c.314-.147.681-.221 1.102-.221.444 0 .834.089 1.169.267s.598.419.789.733.296.673.303 1.087h-1.164c-.01-.205-.061-.39-.154-.554s-.215-.301-.379-.4-.354-.149-.58-.149c-.249 0-.456.051-.62.154a1.03 1.03 0 0 0-.384.41c-.093.171-.159.364-.2.579a3.74 3.74 0 0 0-.057.661v.179a3.83 3.83 0 0 0 .057.666 1.89 1.89 0 0 0 .194.579 1.14 1.14 0 0 0 .39.405c.164.099.373.149.626.149zm6.347-.231v-2.646c0-.198-.036-.369-.108-.513s-.181-.255-.328-.333-.325-.118-.543-.118a1.23 1.23 0 0 0-.523.103c-.147.068-.262.161-.344.277a.67.67 0 0 0-.123.395h-1.23a1.38 1.38 0 0 1 .158-.636c.106-.205.26-.388.462-.549s.443-.287.723-.379.595-.138.943-.138c.417 0 .786.07 1.108.21a1.69 1.69 0 0 1 .764.636c.188.28.281.632.281 1.056v2.466a4.12 4.12 0 0 0 .052.682c.037.198.09.371.159.518v.082h-1.267c-.058-.133-.104-.302-.138-.508a4.11 4.11 0 0 1-.046-.605zm.179-2.261l.01.764h-.886c-.229 0-.431.022-.605.067s-.32.103-.436.185-.204.181-.262.297a.87.87 0 0 0-.087.395c0 .147.034.282.103.405s.167.214.297.282.294.103.482.103c.253 0 .473-.051.661-.154a1.35 1.35 0 0 0 .451-.385c.11-.154.168-.299.175-.436l.4.549a1.88 1.88 0 0 1-.21.451c-.1.161-.229.314-.39.462s-.347.261-.569.354a1.94 1.94 0 0 1-.759.138c-.362 0-.685-.072-.969-.215s-.506-.344-.667-.59-.24-.532-.24-.846c0-.294.054-.554.164-.779s.276-.42.492-.574a2.38 2.38 0 0 1 .8-.349c.314-.082.673-.123 1.076-.123h.969zm3.676-4.501V86.5h-1.24v-7.875h1.24zm4.092.41h2.64c.567 0 1.051.085 1.451.256s.706.424.918.759.323.742.323 1.231c0 .373-.069.701-.205.984a2 2 0 0 1-.58.718c-.249.191-.547.34-.892.446l-.39.19h-2.373l-.011-1.02h1.779c.308 0 .564-.055.769-.164s.359-.258.462-.446a1.31 1.31 0 0 0 .159-.646c0-.26-.051-.485-.154-.677a.99.99 0 0 0-.461-.446c-.209-.106-.474-.159-.795-.159h-1.354V86.5h-1.286v-7.465zm4.26 7.465l-1.753-3.353 1.348-.005 1.779 3.291v.067h-1.374zm3.553-5.547V86.5h-1.241v-5.547h1.241zm-1.323-1.456c0-.188.062-.344.185-.467s.301-.19.523-.19.391.063.518.19.189.279.189.467-.063.338-.189.461-.299.185-.518.185-.397-.061-.523-.185-.185-.277-.185-.461zm6.23 1.456h1.122v5.394c0 .499-.106.923-.318 1.272s-.507.614-.887.795-.818.277-1.317.277c-.212 0-.448-.031-.708-.092a2.89 2.89 0 0 1-.748-.297c-.239-.133-.439-.309-.6-.528l.579-.728c.199.236.417.408.657.518a1.79 1.79 0 0 0 .753.164c.284 0 .525-.053.723-.159s.357-.255.467-.456.164-.448.164-.738v-4.163l.113-1.256zm-3.769 2.835v-.108a4.01 4.01 0 0 1 .154-1.148c.103-.349.25-.648.441-.897s.424-.446.697-.579a2.05 2.05 0 0 1 .928-.205c.359 0 .665.065.918.195s.47.316.641.559a2.79 2.79 0 0 1 .4.861 6.57 6.57 0 0 1 .22 1.107v.343c-.044.397-.119.759-.225 1.087a3.01 3.01 0 0 1-.421.851c-.174.239-.39.424-.646.554a1.94 1.94 0 0 1-.897.195c-.338 0-.644-.07-.918-.21a2.09 2.09 0 0 1-.697-.59 2.81 2.81 0 0 1-.441-.892 3.91 3.91 0 0 1-.154-1.123zm1.236-.108v.108a3.3 3.3 0 0 0 .072.708c.051.219.128.412.23.579s.24.294.4.39.357.138.58.138c.29 0 .528-.061.712-.185s.332-.289.431-.497.174-.448.215-.708v-.928a2.24 2.24 0 0 0-.128-.564 1.52 1.52 0 0 0-.251-.456c-.106-.133-.239-.236-.4-.308a1.33 1.33 0 0 0-.569-.113c-.222 0-.415.048-.58.144s-.299.227-.405.395-.179.362-.23.584-.077.46-.077.713zm6.157-5.055V86.5h-1.23v-7.875h1.23zm-.215 4.896l-.4-.005c.003-.383.056-.737.159-1.061a2.72 2.72 0 0 1 .441-.846c.191-.243.42-.429.687-.559s.562-.2.887-.2c.273 0 .519.038.738.113s.414.197.574.364.282.379.364.646.129.585.129.964V86.5h-1.241v-3.573c0-.267-.039-.479-.118-.636a.68.68 0 0 0-.333-.338c-.147-.072-.327-.108-.539-.108a1.26 1.26 0 0 0-.589.133 1.23 1.23 0 0 0-.421.364c-.112.154-.198.332-.256.533s-.082.417-.082.646zm7.373-2.569v.902h-3.128v-.902h3.128zm-2.226-1.359h1.236v5.373c0 .171.024.302.072.395s.121.149.21.18a.96.96 0 0 0 .313.046 1.9 1.9 0 0 0 .246-.015l.19-.031.005.943c-.103.031-.223.058-.359.082s-.287.036-.462.036c-.283 0-.535-.05-.753-.149a1.11 1.11 0 0 1-.513-.497c-.123-.229-.185-.533-.185-.913v-5.45z" fill="#2c3333"/></g><g opacity=".5"><rect x="194.562" y="14.063" width="73.875" height="58.875" rx="1.938" fill="#fff"/><rect x="194.562" y="14.063" width="73.875" height="58.875" rx="1.938" stroke="#ccc" stroke-width="1.125"/><mask id="C" fill="#fff"><rect x="206.75" y="29.25" width="50.003" height="14.25" rx=".33"/></mask><rect x="206.75" y="29.25" width="50.003" height="14.25" rx=".33" fill="#fff" stroke="#7a8a96" mask="url(#C)"/><use href="#G" fill="#7a8a96"/><use href="#G" stroke="#7a8a96" stroke-width=".33"/><g fill="#fff"><rect x="209" y="27.563" width="34.5" height="1.5" rx=".682"/><path d="M254.5 27.844v.937h-3.75v-.937h3.75z"/></g><g fill="#b5bec4"><rect x="209.023" y="34.313" width="45.455" height=".625" rx=".313"/><rect x="209.023" y="36.813" width="45.455" height=".625" rx=".313"/><rect x="209.023" y="39.313" width="26.875" height=".625" rx=".313"/><rect x="206.75" y="45.75" width="50" height="7.125" rx=".33"/></g><g fill="#fff"><rect x="209" y="48.563" width="34.5" height="1.5" rx=".682"/><use href="#H"/></g><rect x="206.75" y="55.125" width="50" height="7.125" rx=".33" fill="#b5bec4"/><g fill="#fff"><rect x="209" y="57.938" width="34.5" height="1.5" rx=".682"/><use href="#H" y="9.375"/></g><path d="M198.33 79.035V86.5h-1.277v-7.465h1.277zm2.343 0v1.025h-5.942v-1.025h5.942zm3.302 6.352v-2.646c0-.198-.036-.369-.108-.513s-.181-.255-.328-.333-.325-.118-.544-.118c-.201 0-.376.034-.523.103s-.261.161-.343.277a.67.67 0 0 0-.123.395h-1.231a1.37 1.37 0 0 1 .159-.636c.106-.205.26-.388.462-.549a2.29 2.29 0 0 1 .723-.379c.28-.092.594-.138.943-.138.417 0 .786.07 1.107.21a1.68 1.68 0 0 1 .764.636c.188.28.282.632.282 1.056v2.466c0 .253.017.48.052.682s.09.371.159.518v.082h-1.267c-.058-.133-.104-.302-.138-.508a4.11 4.11 0 0 1-.046-.605zm.179-2.261l.01.764h-.887c-.229 0-.43.022-.605.067a1.24 1.24 0 0 0-.435.185c-.117.082-.204.181-.262.297a.87.87 0 0 0-.087.395c0 .147.034.282.102.405s.168.214.298.282.294.103.482.103c.253 0 .473-.051.661-.154a1.35 1.35 0 0 0 .451-.385c.11-.154.168-.299.175-.436l.4.549c-.041.14-.112.29-.211.451s-.229.314-.389.462a1.95 1.95 0 0 1-.569.354 1.94 1.94 0 0 1-.759.138c-.362 0-.685-.072-.969-.215s-.506-.344-.667-.59-.241-.532-.241-.846a1.77 1.77 0 0 1 .164-.779c.113-.229.277-.42.493-.574s.485-.27.799-.349.674-.123 1.077-.123h.969zm2.358-4.501h1.236v6.691l-.118 1.184h-1.118v-7.875zm4.856 5.05v.108c0 .41-.046.788-.139 1.133s-.225.639-.41.892a1.9 1.9 0 0 1-.677.59c-.266.137-.576.205-.928.205a1.97 1.97 0 0 1-.902-.195c-.256-.13-.472-.314-.646-.554a3.07 3.07 0 0 1-.415-.856c-.106-.331-.181-.697-.226-1.097v-.343c.045-.403.12-.769.226-1.097s.244-.617.415-.856.388-.429.641-.559.555-.195.897-.195c.356 0 .668.068.938.205s.501.332.682.584.316.547.405.892.139.726.139 1.143zm-1.236.108v-.108a3.81 3.81 0 0 0-.061-.702c-.041-.222-.11-.417-.206-.585a1.02 1.02 0 0 0-.379-.395c-.157-.099-.354-.149-.59-.149-.218 0-.406.038-.563.113s-.289.178-.395.308a1.51 1.51 0 0 0-.251.451c-.059.171-.098.355-.118.554v.928a2.33 2.33 0 0 0 .194.708c.103.212.247.383.431.513s.422.19.713.19c.229 0 .422-.046.579-.138a1.01 1.01 0 0 0 .374-.385c.096-.167.164-.362.205-.584s.067-.461.067-.718zm5.394 1.215c0-.123-.031-.234-.093-.333s-.179-.195-.353-.277-.424-.157-.759-.226c-.294-.065-.564-.142-.81-.231a2.58 2.58 0 0 1-.626-.333c-.174-.13-.309-.284-.405-.461s-.143-.383-.143-.615c0-.226.049-.439.148-.641s.241-.379.426-.533a2.06 2.06 0 0 1 .672-.364c.266-.089.563-.133.892-.133.464 0 .863.079 1.194.236s.591.364.769.631.267.561.267.892h-1.236a.78.78 0 0 0-.441-.723c-.147-.082-.331-.123-.553-.123-.212 0-.388.034-.528.103a.72.72 0 0 0-.308.256c-.065.106-.097.222-.097.349 0 .092.017.176.051.251s.099.138.184.2a1.53 1.53 0 0 0 .349.164c.15.051.338.101.564.149.424.089.788.203 1.092.344s.543.314.708.533.246.489.246.82a1.45 1.45 0 0 1-.159.677c-.103.202-.253.378-.452.528s-.435.261-.712.344-.581.123-.923.123c-.502 0-.928-.089-1.277-.267s-.613-.412-.794-.692-.267-.578-.267-.882h1.195c.013.229.077.412.189.549s.26.231.431.292a1.69 1.69 0 0 0 .538.087c.223 0 .409-.029.559-.087s.265-.144.344-.246a.59.59 0 0 0 .118-.359zm7.936-4.968l-2.23 6.47h-1.348l2.809-7.465h.861l-.092.995zm1.866 6.47l-2.235-6.47-.097-.995h.866l2.82 7.465h-1.354zm-.107-2.769v1.02h-4.061v-1.02h4.061zm4.44 1.887a1.22 1.22 0 0 0 .543-.118 1.03 1.03 0 0 0 .395-.338c.102-.144.159-.309.169-.497h1.164c-.007.359-.113.685-.318.979s-.477.528-.815.702-.713.256-1.123.256c-.424 0-.793-.072-1.107-.215a2.19 2.19 0 0 1-.785-.605c-.208-.256-.366-.552-.472-.887a3.68 3.68 0 0 1-.153-1.077v-.179c0-.383.051-.742.153-1.077s.264-.636.472-.892a2.14 2.14 0 0 1 .785-.6c.314-.147.681-.221 1.102-.221.444 0 .834.089 1.169.267s.598.419.789.733.296.673.303 1.087h-1.164c-.01-.205-.061-.39-.154-.554s-.215-.301-.379-.4-.354-.149-.579-.149c-.25 0-.457.051-.621.154a1.03 1.03 0 0 0-.384.41c-.093.171-.159.364-.2.579a3.74 3.74 0 0 0-.057.661v.179a3.83 3.83 0 0 0 .057.666c.037.215.102.409.195.579a1.13 1.13 0 0 0 .389.405c.164.099.373.149.626.149zm5.485 0a1.22 1.22 0 0 0 .544-.118 1.03 1.03 0 0 0 .395-.338c.102-.144.159-.309.169-.497h1.164c-.007.359-.113.685-.318.979s-.477.528-.815.702-.713.256-1.123.256c-.424 0-.793-.072-1.108-.215s-.575-.349-.784-.605-.366-.552-.472-.887a3.68 3.68 0 0 1-.153-1.077v-.179c0-.383.051-.742.153-1.077s.264-.636.472-.892.47-.456.784-.6.682-.221 1.103-.221c.444 0 .834.089 1.169.267s.598.419.789.733.296.673.303 1.087h-1.164a1.24 1.24 0 0 0-.154-.554c-.089-.168-.215-.301-.379-.4s-.354-.149-.58-.149c-.249 0-.456.051-.62.154a1.04 1.04 0 0 0-.385.41c-.092.171-.158.364-.199.579a3.74 3.74 0 0 0-.057.661v.179a3.83 3.83 0 0 0 .057.666 1.89 1.89 0 0 0 .194.579 1.14 1.14 0 0 0 .39.405c.164.099.373.149.625.149zm2.984-1.83v-.118c0-.4.058-.771.175-1.112s.283-.644.502-.897.492-.455.81-.595.684-.215 1.087-.215.769.072 1.087.215.593.338.815.595.392.552.508.897a3.44 3.44 0 0 1 .174 1.112v.118a3.44 3.44 0 0 1-.174 1.113 2.66 2.66 0 0 1-.508.897 2.35 2.35 0 0 1-.81.595c-.318.14-.678.21-1.082.21a2.71 2.71 0 0 1-1.092-.21 2.35 2.35 0 0 1-.81-.595 2.66 2.66 0 0 1-.507-.897c-.117-.342-.175-.713-.175-1.113zm1.236-.118v.118c0 .25.026.485.077.708a1.78 1.78 0 0 0 .241.584c.109.167.249.299.42.395s.375.144.61.144c.229 0 .428-.048.595-.144s.311-.227.42-.395a1.78 1.78 0 0 0 .241-.584c.055-.222.082-.458.082-.708v-.118a2.85 2.85 0 0 0-.082-.697 1.78 1.78 0 0 0-.246-.59 1.17 1.17 0 0 0-.42-.4c-.168-.099-.367-.149-.6-.149s-.434.049-.605.149a1.19 1.19 0 0 0-.415.4 1.84 1.84 0 0 0-.241.59c-.051.219-.077.451-.077.697zm6.198-1.661V86.5h-1.235v-5.547h1.179l.056 1.056zm1.697-1.092l-.01 1.148a2.41 2.41 0 0 0-.246-.031l-.256-.01c-.212 0-.398.031-.559.092s-.296.144-.405.256-.188.243-.246.4-.092.333-.103.528l-.282.02c0-.349.034-.672.103-.969s.171-.559.307-.784a1.59 1.59 0 0 1 .523-.528c.212-.126.457-.19.734-.19.075 0 .155.007.241.02s.155.029.199.046zm4.056 4.435v-6.727h1.241V86.5h-1.123l-.118-1.148zm-3.609-1.564v-.108a4.16 4.16 0 0 1 .148-1.148 2.7 2.7 0 0 1 .431-.897c.188-.253.417-.446.687-.579a1.99 1.99 0 0 1 .912-.205c.335 0 .629.065.882.195s.469.316.646.559a2.89 2.89 0 0 1 .426.861c.106.331.181.701.225 1.107v.343c-.044.397-.119.759-.225 1.087s-.248.612-.426.851-.394.424-.651.554-.548.195-.887.195-.637-.07-.907-.21a2 2 0 0 1-.682-.59c-.188-.253-.332-.55-.431-.892a4.06 4.06 0 0 1-.148-1.123zm1.235-.108v.108c0 .253.022.489.067.708s.121.412.22.579.228.294.385.39.352.138.574.138c.28 0 .511-.061.692-.185s.323-.289.426-.497a2.32 2.32 0 0 0 .215-.708v-.928c-.021-.202-.063-.39-.128-.564a1.52 1.52 0 0 0-.251-.456 1.06 1.06 0 0 0-.395-.308 1.24 1.24 0 0 0-.549-.113c-.225 0-.417.048-.574.144a1.17 1.17 0 0 0-.39.395 1.95 1.95 0 0 0-.22.584 3.37 3.37 0 0 0-.072.713zm6.229-2.728V86.5h-1.24v-5.547h1.24zm-1.322-1.456c0-.188.061-.344.184-.467s.301-.19.523-.19.391.063.518.19.19.279.19.467a.62.62 0 0 1-.19.461c-.127.123-.299.185-.518.185s-.396-.061-.523-.185-.184-.277-.184-.461zm2.44 4.291v-.118a3.44 3.44 0 0 1 .174-1.112c.117-.345.284-.644.503-.897s.492-.455.81-.595.683-.215 1.087-.215.769.072 1.087.215.593.338.815.595.391.552.507.897.175.713.175 1.112v.118c0 .4-.058.771-.175 1.113a2.66 2.66 0 0 1-.507.897 2.35 2.35 0 0 1-.81.595c-.318.14-.679.21-1.082.21s-.771-.07-1.092-.21a2.35 2.35 0 0 1-.81-.595 2.68 2.68 0 0 1-.508-.897 3.44 3.44 0 0 1-.174-1.113zm1.236-.118v.118a3.1 3.1 0 0 0 .077.708 1.78 1.78 0 0 0 .241.584c.109.167.249.299.42.395s.374.144.61.144a1.18 1.18 0 0 0 .595-.144c.171-.096.311-.227.42-.395a1.78 1.78 0 0 0 .241-.584c.055-.222.082-.458.082-.708v-.118a2.85 2.85 0 0 0-.082-.697 1.78 1.78 0 0 0-.246-.59 1.17 1.17 0 0 0-.42-.4c-.168-.099-.368-.149-.6-.149s-.434.049-.605.149a1.18 1.18 0 0 0-.415.4 1.84 1.84 0 0 0-.241.59c-.052.219-.077.451-.077.697zm6.183-1.533V86.5h-1.236v-5.547h1.164l.072 1.184zm-.221 1.384l-.4-.005c.004-.393.058-.754.164-1.082s.26-.61.452-.846.427-.417.697-.543.571-.195.902-.195a2.18 2.18 0 0 1 .723.113c.219.072.405.19.559.354s.277.378.359.641.123.579.123.959V86.5h-1.241v-3.589c0-.267-.039-.477-.118-.631s-.186-.268-.333-.333a1.25 1.25 0 0 0-.538-.103c-.212 0-.402.044-.569.133s-.31.21-.426.364-.2.332-.261.533-.093.417-.093.646z" fill="#2c3333"/></g><defs ><path id="E" d="M20 28.687h15.75v4.5H20v-4.5z"/><path id="F" d="M156 28.687h15.75v4.5H156v-4.5z"/><path id="G" d="M207.08 24.915h49.34c.091 0 .165.074.165.165v6.63h-49.67v-6.63c0-.091.074-.165.165-.165z"/><path id="H" d="M254.5 48.881v.768h-3.75v-.768h3.75zm-1.435-1.443v3.75h-.876v-3.75h.876z"/></defs></svg>