<svg xmlns="http://www.w3.org/2000/svg" width="208" height="45" fill="none" xmlns:v="https://vecta.io/nano"><style><![CDATA[.B{stroke:#2c3333}.C{stroke:#a3b1b9}.D{stroke-width:1.094}.E{stroke-miterlimit:10}.F{stroke-linejoin:round}.G{stroke-width:1.174}]]></style><rect x=".5" y=".5" width="206.351" height="44" rx="1.5" class="C"/><g opacity=".5"><use href="#C" fill="#e8ecef"/><use href="#C" class="C G"/><g clip-path="url(#B)"><mask id="A" maskUnits="userSpaceOnUse" x="15" y="15" width="15" height="15"><path d="M15.961 15.5h14v14h-14v-14z" fill="#fff"/></mask><g mask="url(#A)" class="B D E F"><path d="M29.414 27.878H18.658v-8.604h10.755v8.604z"/><path d="M27.263 19.273v-2.151H16.507v8.604h2.151m0 2.152l4.302-4.302 4.302 4.302" stroke-linecap="round"/><path d="M27.247 22.469a1.06 1.06 0 0 1-1.06 1.06 1.06 1.06 0 0 1-1.06-1.06 1.06 1.06 0 0 1 1.06-1.06 1.06 1.06 0 0 1 1.06 1.06z"/></g></g><path d="M37.202 17.595V26.5h-1.535v-8.905h1.535zm3.236 3.633V26.5h-1.474v-6.618h1.388l.086 1.346zm-.239 1.719l-.502-.006c0-.457.057-.879.171-1.266a3.04 3.04 0 0 1 .502-1.009c.22-.29.493-.512.82-.667s.712-.239 1.144-.239a2.42 2.42 0 0 1 .826.135c.253.086.471.222.655.41a1.81 1.81 0 0 1 .428.722c.102.294.153.648.153 1.064v4.41h-1.474v-4.282c0-.322-.049-.575-.147-.758s-.23-.314-.41-.391-.385-.122-.63-.122a1.47 1.47 0 0 0-.709.159c-.192.106-.349.251-.471.434s-.212.395-.269.636-.086.498-.086.771zm4.104-.392l-.691.153c0-.4.055-.777.165-1.131s.279-.673.495-.942.491-.487.814-.642.691-.232 1.107-.232c.338 0 .64.047.905.141a1.66 1.66 0 0 1 .685.428c.188.196.33.45.428.764s.147.685.147 1.125V26.5h-1.48v-4.288c0-.334-.049-.593-.147-.777a.76.76 0 0 0-.404-.379c-.175-.073-.385-.11-.63-.11-.228 0-.43.043-.605.128a1.2 1.2 0 0 0-.434.349c-.118.147-.208.316-.269.508s-.086.4-.086.624zm9.303 2.618v-3.156c0-.236-.043-.44-.129-.612a.9.9 0 0 0-.391-.398c-.171-.094-.387-.141-.648-.141-.241 0-.449.041-.624.122a1.01 1.01 0 0 0-.41.33c-.098.139-.147.296-.147.471H49.79c0-.261.063-.514.19-.758s.31-.463.55-.654a2.75 2.75 0 0 1 .862-.453c.334-.11.709-.165 1.125-.165.497 0 .938.084 1.321.251s.691.42.911.758.336.754.336 1.26v2.942c0 .302.02.573.061.814a2.63 2.63 0 0 0 .19.618v.098h-1.511c-.069-.159-.124-.361-.165-.605s-.055-.489-.055-.722zm.214-2.697l.012.911h-1.058a2.94 2.94 0 0 0-.722.079c-.208.049-.381.122-.52.22s-.243.216-.312.355a1.04 1.04 0 0 0-.104.471.98.98 0 0 0 .122.483c.081.143.2.255.355.336s.351.122.575.122c.302 0 .565-.061.789-.183s.408-.279.538-.459.2-.357.208-.52l.477.654a2.24 2.24 0 0 1-.251.538c-.118.192-.273.375-.465.55a2.31 2.31 0 0 1-.679.422c-.261.11-.563.165-.905.165-.432 0-.818-.086-1.156-.257s-.603-.41-.795-.703-.288-.634-.288-1.009c0-.351.065-.66.196-.93s.33-.502.587-.685.579-.322.954-.416.803-.147 1.284-.147h1.156zm7.046-2.593h1.34v6.434c0 .595-.126 1.101-.379 1.517s-.605.732-1.058.948-.977.33-1.572.33c-.253 0-.534-.037-.844-.11a3.46 3.46 0 0 1-.893-.355c-.285-.159-.524-.369-.716-.63l.691-.869c.236.281.497.487.783.618a2.14 2.14 0 0 0 .899.196c.339 0 .626-.063.862-.19a1.28 1.28 0 0 0 .557-.544c.13-.24.196-.534.196-.881v-4.966l.135-1.498zm-4.495 3.382v-.128c0-.502.061-.958.183-1.37a3.24 3.24 0 0 1 .526-1.07c.228-.302.506-.532.832-.691s.695-.245 1.107-.245c.428 0 .793.077 1.095.232s.561.377.765.667a3.32 3.32 0 0 1 .477 1.027 7.8 7.8 0 0 1 .263 1.321v.41c-.053.473-.143.905-.269 1.297s-.294.73-.502 1.015a2.14 2.14 0 0 1-.771.661c-.302.155-.659.232-1.07.232-.404 0-.769-.084-1.095-.251a2.49 2.49 0 0 1-.832-.703 3.33 3.33 0 0 1-.526-1.064c-.122-.412-.183-.858-.183-1.34zm1.474-.128v.128c0 .302.029.583.086.844s.153.491.275.691a1.44 1.44 0 0 0 .477.465c.196.11.426.165.691.165.347 0 .63-.073.85-.22s.395-.344.514-.593.208-.534.257-.844v-1.107a2.71 2.71 0 0 0-.153-.673 1.8 1.8 0 0 0-.3-.544 1.25 1.25 0 0 0-.477-.367c-.192-.09-.418-.135-.679-.135s-.495.057-.691.171-.357.271-.483.471-.214.432-.275.697a3.77 3.77 0 0 0-.092.85zm8.808 3.486a3.53 3.53 0 0 1-1.327-.238 2.93 2.93 0 0 1-1.003-.679 3.01 3.01 0 0 1-.63-1.021c-.147-.391-.22-.813-.22-1.266v-.245c0-.518.075-.987.226-1.407s.361-.779.63-1.076.587-.532.954-.691.765-.239 1.193-.239c.473 0 .887.08 1.242.239s.648.383.881.673.412.626.526 1.021.177.832.177 1.309v.63h-5.113v-1.058h3.658v-.116a2.07 2.07 0 0 0-.159-.746c-.094-.232-.239-.42-.434-.563s-.457-.214-.783-.214a1.33 1.33 0 0 0-.654.159c-.188.102-.345.251-.471.447a2.35 2.35 0 0 0-.294.709 3.99 3.99 0 0 0-.098.924v.245a2.7 2.7 0 0 0 .116.807 1.93 1.93 0 0 0 .355.642c.155.183.343.328.563.434s.471.153.752.153c.355 0 .671-.071.948-.214s.518-.344.722-.605l.777.752c-.143.208-.328.408-.557.599s-.508.34-.838.459-.705.177-1.138.177zm13.902-4.673v3.401c-.126.167-.324.351-.593.55s-.618.365-1.058.508-.989.214-1.645.214c-.559 0-1.07-.094-1.535-.281s-.867-.471-1.205-.838-.593-.814-.777-1.34-.275-1.133-.275-1.81v-.618c0-.673.084-1.272.251-1.798s.416-.979.734-1.346.701-.644 1.15-.832.964-.287 1.535-.287c.73 0 1.333.122 1.811.367s.852.575 1.113 1.003.426.917.495 1.468h-1.505a2.37 2.37 0 0 0-.287-.832c-.139-.245-.338-.436-.599-.575s-.591-.214-1.003-.214c-.355 0-.667.067-.936.202a1.77 1.77 0 0 0-.673.593c-.175.261-.308.579-.398.954s-.135.803-.135 1.284v.63c0 .489.051.924.153 1.303s.257.699.453.96a1.96 1.96 0 0 0 .728.593c.285.131.608.196.966.196.351 0 .638-.029.862-.086s.402-.133.532-.214.239-.167.312-.245v-1.768h-1.853v-1.144h3.382zm5.285 3.223v-3.156c0-.236-.043-.44-.128-.612a.9.9 0 0 0-.392-.398c-.171-.094-.387-.141-.648-.141-.241 0-.449.041-.624.122a1.01 1.01 0 0 0-.41.33c-.098.139-.147.296-.147.471h-1.468c0-.261.063-.514.19-.758s.31-.463.55-.654a2.75 2.75 0 0 1 .862-.453c.334-.11.709-.165 1.125-.165.498 0 .938.084 1.321.251a2.01 2.01 0 0 1 .911.758c.224.334.336.754.336 1.26v2.942c0 .302.02.573.061.814a2.62 2.62 0 0 0 .19.618v.098H86.06c-.069-.159-.124-.361-.165-.605s-.055-.489-.055-.722zm.214-2.697l.012.911h-1.058c-.273 0-.514.026-.722.079a1.48 1.48 0 0 0-.52.22c-.139.098-.243.216-.312.355s-.104.296-.104.471a.98.98 0 0 0 .122.483c.082.143.2.255.355.336s.351.122.575.122c.302 0 .565-.061.789-.183s.408-.279.538-.459.2-.357.208-.52l.477.654a2.24 2.24 0 0 1-.251.538c-.118.192-.273.375-.465.55a2.31 2.31 0 0 1-.679.422c-.261.11-.563.165-.905.165-.432 0-.817-.086-1.156-.257s-.603-.41-.795-.703-.288-.634-.288-1.009c0-.351.065-.66.196-.93a1.82 1.82 0 0 1 .587-.685c.261-.183.579-.322.954-.416s.803-.147 1.284-.147h1.156zm4.385-5.37V26.5h-1.48v-9.395h1.48zm3.193 0V26.5h-1.48v-9.395h1.48zm4.532 9.517a3.53 3.53 0 0 1-1.327-.238 2.93 2.93 0 0 1-1.003-.679 3.01 3.01 0 0 1-.63-1.021c-.147-.391-.22-.813-.22-1.266v-.245c0-.518.075-.987.226-1.407s.361-.779.63-1.076.587-.532.954-.691.765-.239 1.193-.239c.473 0 .887.08 1.242.239s.648.383.881.673.412.626.526 1.021.177.832.177 1.309v.63h-5.113v-1.058h3.658v-.116a2.07 2.07 0 0 0-.159-.746c-.094-.232-.239-.42-.434-.563s-.457-.214-.783-.214a1.33 1.33 0 0 0-.654.159c-.188.102-.345.251-.471.447a2.35 2.35 0 0 0-.294.709 3.99 3.99 0 0 0-.098.924v.245a2.7 2.7 0 0 0 .116.807 1.93 1.93 0 0 0 .355.642c.155.183.342.328.563.434s.471.153.752.153c.355 0 .671-.071.948-.214s.518-.344.722-.605l.776.752a3.01 3.01 0 0 1-.556.599 2.79 2.79 0 0 1-.838.459c-.326.118-.706.177-1.138.177zm5.279-5.48V26.5h-1.475v-6.618h1.407l.068 1.26zm2.024-1.303l-.012 1.37a2.92 2.92 0 0 0-.294-.037l-.306-.012c-.252 0-.475.037-.666.11a1.25 1.25 0 0 0-.483.306c-.127.131-.225.29-.294.477s-.11.398-.122.63l-.337.024a5.13 5.13 0 0 1 .123-1.156 3.12 3.12 0 0 1 .367-.936c.167-.269.375-.479.623-.63s.545-.226.875-.226a1.83 1.83 0 0 1 .288.024 1.22 1.22 0 0 1 .238.055zm2.954 5.939l1.798-5.896h1.578l-2.654 7.627c-.061.163-.141.34-.239.532s-.226.373-.385.544-.349.316-.581.422-.514.165-.844.165c-.13 0-.257-.012-.379-.037l-.337-.067-.006-1.125.147.012.147.006c.245 0 .448-.031.611-.092s.296-.151.398-.281.196-.306.269-.526l.477-1.284zm-1.015-5.896l1.572 4.954.263 1.554-1.022.263-2.403-6.771h1.59z" fill="#2c3333"/></g><g opacity=".5"><rect x="128.706" y="5.692" width="73.058" height="33.615" rx=".979" fill="#e8ecef"/><rect x="128.706" y="5.692" width="73.058" height="33.615" rx=".979" class="C G"/><circle cx="146.386" cy="22.5" r="5.709" stroke-width="1.37" class="B"/><g fill="#2c3333"><path d="M149.012 21.907c.457.264.457.923 0 1.186l-3.425 1.978c-.457.264-1.028-.066-1.028-.593v-3.955c0-.527.571-.857 1.028-.593l3.425 1.977zm13.336 2.966l2.342-7.278h1.694l-3.192 8.905h-1.144l.3-1.627zm-2.166-7.278l2.325 7.278.318 1.627h-1.15l-3.181-8.905h1.688zm8.631 2.288V26.5h-1.481v-6.618h1.481zm-1.578-1.737a.75.75 0 0 1 .22-.556c.147-.146.359-.226.624-.226s.467.075.617.226.227.332.227.556-.076.404-.227.55-.356.22-.617.22-.473-.073-.624-.22a.73.73 0 0 1-.22-.55zm7.229 6.985v-8.025h1.48V26.5h-1.339l-.141-1.37zm-4.306-1.866v-.128c0-.502.059-.958.178-1.37s.289-.773.513-1.07.498-.532.82-.691a2.43 2.43 0 0 1 1.089-.245c.404 0 .75.077 1.052.232a2.19 2.19 0 0 1 .77.667c.212.285.382.628.508 1.027a6.78 6.78 0 0 1 .269 1.321v.41a6.66 6.66 0 0 1-.269 1.297 3.46 3.46 0 0 1-.508 1.015c-.212.285-.471.506-.776.661s-.655.232-1.059.232-.76-.084-1.082-.251a2.37 2.37 0 0 1-.814-.703 3.28 3.28 0 0 1-.513-1.064c-.118-.408-.178-.858-.178-1.34zm1.474-.128v.128a4.24 4.24 0 0 0 .08.844c.057.261.145.491.263.691a1.35 1.35 0 0 0 .459.465c.191.11.419.165.685.165.334 0 .609-.073.825-.22a1.5 1.5 0 0 0 .508-.593c.126-.253.212-.534.257-.844v-1.107a2.75 2.75 0 0 0-.153-.673 1.8 1.8 0 0 0-.3-.544 1.26 1.26 0 0 0-.471-.367c-.183-.09-.401-.135-.654-.135-.269 0-.498.057-.685.171a1.39 1.39 0 0 0-.465.471 2.22 2.22 0 0 0-.263.697 4.04 4.04 0 0 0-.086.85zm8.771 3.486c-.489 0-.932-.079-1.327-.238a2.83 2.83 0 0 1-1.003-.679c-.277-.29-.483-.63-.63-1.021a3.57 3.57 0 0 1-.22-1.266v-.245c0-.518.075-.987.226-1.407s.361-.779.63-1.076.587-.532.954-.691a2.97 2.97 0 0 1 1.193-.239c.473 0 .887.08 1.241.239a2.33 2.33 0 0 1 .881.673 2.78 2.78 0 0 1 .526 1.021c.114.395.178.832.178 1.309v.63h-5.114v-1.058h3.658v-.116a2.06 2.06 0 0 0-.159-.746 1.31 1.31 0 0 0-.434-.563c-.195-.143-.457-.214-.783-.214a1.33 1.33 0 0 0-.655.159c-.187.102-.344.251-.471.447a2.33 2.33 0 0 0-.293.709c-.069.277-.098.581-.098.924v.245a2.71 2.71 0 0 0 .116.807c.082.245.2.459.355.642a1.69 1.69 0 0 0 .562.434c.22.106.471.153.753.153a2.04 2.04 0 0 0 .948-.214 2.18 2.18 0 0 0 .722-.605l.776.752a3.01 3.01 0 0 1-.556.599 2.8 2.8 0 0 1-.838.459c-.326.118-.706.177-1.138.177zm3.517-3.358v-.141a4.09 4.09 0 0 1 .208-1.327c.139-.412.338-.769.599-1.07a2.73 2.73 0 0 1 .967-.709c.379-.167.815-.257 1.296-.257s.918.086 1.297.257.708.404.973.709.467.659.605 1.07a4.09 4.09 0 0 1 .208 1.327v.141a4.09 4.09 0 0 1-.208 1.327c-.138.408-.34.765-.605 1.07a2.81 2.81 0 0 1-.967.71c-.379.167-.809.251-1.29.251s-.92-.084-1.303-.251-.701-.408-.966-.71-.467-.663-.606-1.07a4.09 4.09 0 0 1-.208-1.327zm1.474-.141v.141a3.75 3.75 0 0 0 .092.844c.061.265.157.498.287.697s.298.357.502.471.446.171.728.171c.273 0 .509-.057.709-.171s.371-.271.502-.471a2.13 2.13 0 0 0 .287-.697c.061-.265.098-.546.098-.844v-.141a3.43 3.43 0 0 0-.098-.832c-.065-.261-.159-.499-.293-.703a1.41 1.41 0 0 0-.502-.477 1.38 1.38 0 0 0-.716-.177c-.277 0-.517.059-.721.177s-.365.273-.496.477-.226.438-.287.703a3.67 3.67 0 0 0-.092.832z"/></g></g><defs><clipPath id="B"><path fill="#fff" transform="translate(15.961 15.5)" d="M0 0h14v14H0z"/></clipPath><path id="C" d="M6.565 5.692h115.488a.98.98 0 0 1 .978.979v31.658a.98.98 0 0 1-.978.979H6.565a.98.98 0 0 1-.979-.979V6.671a.98.98 0 0 1 .979-.979z"/></defs></svg>