<svg xmlns="http://www.w3.org/2000/svg" width="124" height="130" fill="none"><rect x="1" y="1" width="122" height="128" rx="3" stroke="#ccc" stroke-width="2"/><rect x="14.958" y="25.3" width="21.467" height="24.467" rx="1" fill="#d9d9d9"/><use href="#C" fill="#fff"/><rect x="39.425" y="25.3" width="21.467" height="24.467" rx="1" fill="#d9d9d9"/><use href="#C" x="24.467" fill="#fff"/><rect x="14.958" y="52.767" width="21.467" height="24.467" rx="1" fill="#d9d9d9"/><use href="#C" y="27.467" fill="#fff"/><rect x="39.425" y="52.767" width="21.467" height="24.467" rx="1" fill="#d9d9d9"/><use href="#C" x="24.467" y="27.467" fill="#fff"/><rect x="14.958" y="80.233" width="21.467" height="24.467" rx="1" fill="#d9d9d9"/><use href="#C" y="54.934" fill="#fff"/><rect x="39.425" y="80.233" width="21.467" height="24.467" rx="1" fill="#d9d9d9"/><use href="#C" x="24.467" y="54.934" fill="#fff"/><g fill="#d9d9d9"><rect x="64.958" y="27.3" width="31" height="2" rx="1"/><rect x="64.958" y="31.3" width="7" height="1.5" rx=".75"/><rect x="64.958" y="36.8" width="44" height="1" rx=".5"/><rect x="64.958" y="39.8" width="44" height="1" rx=".5"/><rect x="64.958" y="42.8" width="44" height="1" rx=".5"/><rect x="64.958" y="45.8" width="25" height="1" rx=".5"/><circle cx="66.458" cy="52.3" r="1.5"/><circle cx="70.458" cy="52.3" r="1.5"/><circle cx="74.458" cy="52.3" r="1.5"/><circle cx="78.458" cy="52.3" r="1.5"/><rect x="64.958" y="57.8" width="9" height="3" rx=".5"/></g><mask id="A" fill="#fff"><rect x="65.042" y="73.564" width="44" height="14.5" rx=".291"/></mask><rect x="65.042" y="73.564" width="44" height="14.5" rx=".291" fill="#fff" stroke="#7a8a96" stroke-width=".88" mask="url(#A)"/><use href="#D" fill="#7a8a96"/><use href="#D" stroke="#7a8a96" stroke-width=".291"/><g fill="#fff"><rect x="67.022" y="72.475" width="30.36" height="1.32" rx=".6"/><path d="M107.062 72.723v.825h-3.3v-.825h3.3z"/></g><g fill="#b5bec4"><rect x="67.125" y="78.415" width="40" height=".55" rx=".275"/><rect x="67.125" y="80.615" width="40" height=".55" rx=".275"/><rect x="67.125" y="82.815" width="40" height=".55" rx=".275"/><rect x="67.125" y="85.015" width="23.65" height=".55" rx=".275"/><rect x="65.042" y="89.762" width="44" height="6.27" rx=".291"/></g><g fill="#fff"><rect x="67.022" y="92.237" width="30.36" height="1.32" rx=".6"/><use href="#E"/></g><rect x="65.042" y="97.73" width="44" height="6.27" rx=".291" fill="#b5bec4"/><g fill="#fff"><rect x="67.022" y="100.205" width="30.36" height="1.32" rx=".6"/><use href="#E" y="7.968"/></g><defs ><path id="C" d="M33.358 35.233l-3.68-3.68-1.84-.307c0 1.073-.92 1.993-2.147 1.993s-2.147-.92-2.147-1.993l-1.84.307-3.68 3.68 2.453 2.453 1.227-1.227v7.36h7.973v-7.36l1.227 1.227 2.453-2.453z"/><path id="D" d="M65.332 70.146h43.42c.08 0 .145.065.145.145v5.835H65.187V70.29c0-.08.065-.144.145-.145z"/><path id="E" d="M107.062 92.517v.676h-3.3v-.676h3.3zm-1.263-1.27v3.3h-.771v-3.3h.771z"/></defs></svg>