<svg xmlns="http://www.w3.org/2000/svg" width="124" height="130" fill="none"><rect x="1" y="1" width="122" height="128" rx="3" stroke="#ccc" stroke-width="2"/><rect x="15" y="15" width="21.467" height="24.467" rx="1" fill="#d9d9d9"/><use href="#D" fill="#fff"/><rect x="39.467" y="15" width="21.467" height="24.467" rx="1" fill="#d9d9d9"/><use href="#D" x="24.467" fill="#fff"/><rect x="15" y="42.467" width="21.467" height="24.467" rx="1" fill="#d9d9d9"/><path d="M33.4 52.4l-3.68-3.68-1.84-.307c0 1.073-.92 1.993-2.147 1.993s-2.147-.92-2.147-1.993l-1.84.307-3.68 3.68 2.453 2.453 1.227-1.227v7.36h7.973v-7.36l1.227 1.227L33.4 52.4z" fill="#fff"/><rect x="39.467" y="42.467" width="21.467" height="24.467" rx="1" fill="#d9d9d9"/><use href="#D" x="24.467" y="27.467" fill="#fff"/><g fill="#d9d9d9"><rect x="65" y="17" width="31" height="2" rx="1"/><rect x="65" y="21" width="7" height="1.5" rx=".75"/><rect x="65" y="26.5" width="44" height="1" rx=".5"/><rect x="65" y="29.5" width="44" height="1" rx=".5"/><rect x="65" y="32.5" width="44" height="1" rx=".5"/><rect x="65" y="35.5" width="25" height="1" rx=".5"/><circle cx="66.5" cy="42" r="1.5"/><circle cx="70.5" cy="42" r="1.5"/><circle cx="74.5" cy="42" r="1.5"/><circle cx="78.5" cy="42" r="1.5"/><rect x="65" y="47.5" width="9" height="3" rx=".5"/></g><mask id="A" maskUnits="userSpaceOnUse" x="15" y="72.933" width="94" height="9" fill="#000"><path fill="#fff" d="M15 72.933h94v9H15z"/><path d="M15 72.933h94v8H15v-8z"/></mask><path d="M109 80.933v-1H15v1 1h94v-1z" fill="#b5bec4" mask="url(#A)"/><mask id="B" maskUnits="userSpaceOnUse" x="15" y="72.933" width="19" height="10" fill="#000"><path fill="#fff" d="M15 72.933h19v10H15z"/><path d="M15 72.933h19v8H15v-8z"/></mask><path d="M15 72.933h19v8H15v-8z" fill="#65747f"/><path d="M34 80.933v-1.2H15v1.2 1.2h19v-1.2z" fill="#293035" mask="url(#B)"/><path d="M36 72.933h19v8H36v-8zm21 0h19v8H57v-8z" fill="#b5bec4"/><path fill="#e6e9eb" d="M15 84.933h94v31H15z"/><defs ><path id="D" d="M33.4 24.933l-3.68-3.68-1.84-.307c0 1.073-.92 1.993-2.147 1.993s-2.147-.92-2.147-1.993l-1.84.307-3.68 3.68 2.453 2.453 1.227-1.227v7.36h7.973v-7.36l1.227 1.227 2.453-2.453z"/></defs></svg>